<svg width="100" height="100" xmlns="http://www.w3.org/2000/svg">
 <g>
  <title>Layer 1</title>
  <path d="m51.5,53.8a6.6,6.6 0 1 0 0,13.2a6.6,6.6 0 0 0 0,-13.2m-40.5,-33.9l7,6.8a47.5,47.5 0 0 1 67.2,0l7,-6.8a57.2,57.2 0 0 0 -81.2,0" fill="#00ace2" id="svg_2"/>
  <path d="m23.5,32.2l6.8,7a30,30 0 0 1 42.6,0l6.8,-7a39.7,39.7 0 0 0 -56.3,0" fill="#00ace2" id="svg_3"/>
  <path d="m35.8,44.6l6.8,6.9a12.6,12.6 0 0 1 18,0l6.8,-6.9a22.3,22.3 0 0 0 -31.6,0" fill="#00ace2" id="svg_4"/>
  <path d="m75.9,40.7a30.2,30.2 0 1 1 -48.7,0l-6.9,-7a39.9,39.9 0 1 0 62.5,0l-6.9,7z" fill="#002B49" id="svg_5"/>
 </g>

</svg>