<svg xmlns="http://www.w3.org/2000/svg" viewBox="0 0 512 512" xmlns:v="https://vecta.io/nano"><path d="M473.655 423.724H38.345C17.167 423.724 0 406.557 0 385.379V126.621c0-21.177 17.167-38.345 38.345-38.345h435.31c21.177 0 38.345 17.167 38.345 38.345V385.38c0 21.177-17.167 38.344-38.345 38.344z" fill="#f5f5f5"/><path d="M208.865 322.152c-20.38-4.652-38.549-15.174-52.606-29.714v31.097c15.339 11.188 33.236 19.028 52.606 22.613v-23.996zm94.22 0c20.38-4.652 38.549-15.174 52.606-29.714v31.097c-15.339 11.188-33.236 19.028-52.606 22.613v-23.996z" fill="#ffecd7"/><path d="M199.836 254.75c-.981.196-2.356 2.748-2.748 7.066s-3.14 22.573-9.03 20.61-9.814-10.6-9.814-10.6L170 283.8s5.496-2.159 11.189.393 7.066 3.926 8.637 2.356 5.3-6.281 8.244-5.889l3.337-23.752-1.571-2.158zm-32.584 39.062s-1.374 11.385-.589 12.759 22.377 6.477 22.377 6.477-6.281 5.103-6.477 7.852c0 0-7.656 1.374-10.403 3.73l-10.207-16.881-.393-13.937h5.692 0 0z" fill="#ffe15a"/><path d="M160.43 190.269l.147-5.889s-6.92-.736-7.802 14.869l-2.503-6.92s-5.153 6.92-2.061 18.108l-1.325 1.031s-6.772-8.98-10.894-20.61c0 0-6.92 5.447 1.177 20.905l-10.01-12.661s-5.005 10.6 10.01 23.261l-14.133-10.01s-.883 11.484 12.808 18.844l-13.692-7.361s.441 11.041 16.341 16.489l-15.017-2.797s3.802 9.027 14.906 11.463c-2.332 2.603-4.486 6.101-5.043 10.62l11.189-6.184s-5.3 5.447-3.828 12.956l17.225-17.225-2.354-1.053c13.031-2.444 10.304-3.364 10.304-3.364s-9.619-24.733-3.14-41.81 12.17-19.433 12.17-20.218-6.967-1.72-14.475 7.556z" fill="#ffecd7"/><path d="M173.729 200.181s22.377 23.555 22.77 25.715-2.356 1.767-2.356 1.767-5.496-7.066-12.956-9.814-12.366-11.385-15.31-13.347 7.852-4.321 7.852-4.321z" fill="#ffe15a"/><path d="M166.27 205.874c2.944.981 9.619-.393 9.422-6.477s-6.281-8.44-10.796-7.066-12.956 7.656-7.656 19.826 13.152 16.685 14.722 27.089c0 0-7.066 1.079-10.796.196-3.206-.759-8.637-3.337-7.459-10.403s3.926-11.189 1.57-15.115-9.814-10.796-9.814-10.796-16.096 41.222 12.956 52.018c0 0-13.74 13.152-20.61 25.91l4.122 1.177s-7.263 7.852-11.385 10.796c0 0 13.544 4.711 26.892-10.6 0 0 3.337 5.496 4.122 11.385h5.693s1.963-9.422 10.993-17.273 18.194-19.048 17.273-29.248c-1.079-11.974-10.097-17.361-19.482-24.782-12.663-10.012-9.767-16.637-9.767-16.637z" fill="#fff5e1"/><path d="M312.164 254.75c.981.196 2.356 2.748 2.748 7.066s3.14 22.573 9.03 20.61 9.815-10.6 9.815-10.6l8.244 11.974s-5.496-2.159-11.189.393-7.066 3.926-8.637 2.356-5.3-6.281-8.244-5.889l-3.337-23.752 1.57-2.158zm32.584 39.062s1.374 11.385.589 12.759-22.377 6.477-22.377 6.477 6.281 5.103 6.477 7.852c0 0 7.656 1.374 10.403 3.73l10.207-16.881.393-13.937h-5.693 0 .001z" fill="#ffe15a"/><path d="M351.57 190.269l-.147-5.889s6.92-.736 7.802 14.869l2.503-6.92s5.153 6.92 2.061 18.108l1.325 1.031s6.772-8.98 10.894-20.61c0 0 6.92 5.447-1.177 20.905l10.01-12.661s5.005 10.6-10.01 23.261l14.133-10.01s.884 11.484-12.808 18.844l13.692-7.361s-.441 11.041-16.341 16.489l15.017-2.797s-3.802 9.027-14.906 11.463c2.332 2.603 4.486 6.101 5.043 10.62l-11.189-6.184s5.3 5.447 3.828 12.956l-17.225-17.225 2.354-1.053c-13.032-2.444-10.304-3.364-10.304-3.364s9.619-24.733 3.14-41.81-12.17-19.433-12.17-20.218 6.967-1.72 14.475 7.556z" fill="#ffecd7"/><path d="M338.271 200.181s-22.377 23.555-22.77 25.715 2.356 1.767 2.356 1.767 5.496-7.066 12.956-9.814 12.366-11.385 15.31-13.347-7.852-4.321-7.852-4.321z" fill="#ffe15a"/><path d="M345.73 205.874c-2.944.981-9.619-.393-9.422-6.477s6.281-8.44 10.796-7.066 12.956 7.656 7.656 19.826-13.152 16.685-14.722 27.089c0 0 7.066 1.079 10.796.196 3.206-.759 8.637-3.337 7.459-10.403s-3.926-11.189-1.57-15.115 9.814-10.796 9.814-10.796 16.096 41.222-12.956 52.018c0 0 13.74 13.152 20.61 25.91l-4.122 1.177s7.263 7.852 11.385 10.796c0 0-13.544 4.711-26.892-10.6 0 0-3.337 5.496-4.122 11.385h-5.693s-1.963-9.422-10.993-17.273-18.194-19.048-17.273-29.248c1.079-11.974 10.097-17.361 19.482-24.782 12.663-10.012 9.767-16.637 9.767-16.637z" fill="#fff5e1"/><path d="M199.45 166.03h113.06v22.77H199.45z" fill="#464655"/><path d="M255.976 184.085h-56.532v75.377c0 14.133 9.422 51.821 56.532 65.954 47.11-14.133 56.532-51.821 56.532-65.954v-75.377h-56.532z" fill="#41479b"/><path d="M199.444 259.462c0 3.502.585 8.456 2.172 14.133h108.721c1.587-5.677 2.172-10.631 2.172-14.133v-28.266H199.444v28.266z" fill="#ff4b55"/><g fill="#f5f5f5"><path d="M255.976 252.395l-6.596 16.488 6.596-3.297 6.595 3.297z"/><path d="M255.976 252.395l6.595-16.489-6.595 3.298-6.596-3.298z"/><path d="M255.976 252.395l-16.489-6.595 3.298 6.595-3.298 6.595z"/><path d="M255.976 252.395l16.487 6.595-3.297-6.595 3.297-6.595z"/></g><g fill="#ffe15a"><use href="#B"/><use href="#B" x="34.666"/><use href="#B" x="-34.666"/><path d="M267.032 297.809s-2.519-.395-2.72 2.143l-.012.693c-.311-.147-.65-.244-1.017-.244a2.411 2.411 0 1 0 0 4.821c.106 0 .196-.047.298-.061-.359 1.149-.929 2.195-1.73 2.951h-3.218c-.846-.937-1.103-2.771-1.159-4.099.052.003.092.04.145.04a1.98 1.98 0 0 0 1.977-1.977c0-1.079-.866-1.949-1.94-1.97.171-.292.296-.615.296-.978 0-1.092-.885-1.977-1.977-1.977a1.98 1.98 0 0 0-1.977 1.977c0 .363.125.685.296.978-1.074.022-1.94.892-1.94 1.97a1.98 1.98 0 0 0 1.977 1.977c.053 0 .093-.035.145-.04-.054 1.329-.312 3.162-1.159 4.099h-3.218c-.801-.756-1.372-1.803-1.73-2.951.103.013.192.061.298.061a2.411 2.411 0 1 0 0-4.821c-.367 0-.706.096-1.017.244l-.012-.693c-.201-2.538-2.72-2.143-2.72-2.143 1.566 4.78 1.154 10.304 1.154 10.304v4.86h19.778v-4.849l.029-.011s-.413-5.524 1.153-10.304zm-23.113-18.844s-2.519-.395-2.72 2.143l-.012.693c-.311-.147-.65-.244-1.017-.244a2.411 2.411 0 1 0 0 4.821c.106 0 .196-.047.298-.061-.359 1.149-.929 2.195-1.73 2.951h-3.218c-.846-.937-1.103-2.771-1.159-4.099.052.004.092.04.145.04a1.98 1.98 0 0 0 1.977-1.977c0-1.079-.866-1.949-1.94-1.97.171-.292.296-.615.296-.978 0-1.092-.885-1.977-1.977-1.977a1.98 1.98 0 0 0-1.977 1.977c0 .363.125.685.296.978-1.074.022-1.94.892-1.94 1.97a1.98 1.98 0 0 0 1.977 1.977c.053 0 .093-.035.145-.04-.054 1.329-.312 3.162-1.159 4.099h-3.218c-.801-.756-1.372-1.803-1.73-2.951.103.013.192.061.298.061a2.411 2.411 0 1 0 0-4.821c-.367 0-.706.096-1.017.244l-.012-.693c-.201-2.538-2.72-2.143-2.72-2.143 1.566 4.78 1.154 10.304 1.154 10.304v4.86h19.778v-4.849l.029-.011c-.001-.001-.412-5.525 1.153-10.304zm46.227 0s-2.519-.395-2.72 2.143l-.012.693c-.311-.147-.65-.244-1.017-.244a2.411 2.411 0 1 0 0 4.821c.106 0 .196-.047.298-.061-.359 1.149-.929 2.195-1.73 2.951h-3.218c-.846-.937-1.103-2.771-1.159-4.099.052.004.092.04.145.04a1.98 1.98 0 0 0 1.977-1.977c0-1.079-.866-1.949-1.94-1.97.171-.292.296-.615.296-.978 0-1.092-.885-1.977-1.977-1.977a1.98 1.98 0 0 0-1.977 1.977c0 .363.125.685.296.978-1.074.022-1.94.892-1.94 1.97a1.98 1.98 0 0 0 1.977 1.977c.053 0 .093-.035.145-.04-.054 1.329-.312 3.162-1.159 4.099h-3.218c-.801-.756-1.372-1.803-1.73-2.951.103.013.192.061.298.061a2.411 2.411 0 1 0 0-4.821c-.367 0-.706.096-1.017.244l-.012-.693c-.201-2.538-2.72-2.143-2.72-2.143 1.566 4.78 1.154 10.304 1.154 10.304v4.86h19.778v-4.849l.029-.011c-.001-.001-.413-5.525 1.153-10.304zm38.992-123.767l-8.185-3.043-2.303 6.678-3.982-1.334 2.157-6.728-8.322-2.484-1.862 6.815-4.042-1.064 1.714-6.855-8.431-1.926-2.829 13.845 5.229 1.154-1.076 4.586c-10.166-2.4-20.491-3.901-30.855-4.5l.27-4.704 5.313.385 1.217-14.08a198.54 198.54 0 0 0-8.582-.559l-.305 7.06-4.143-.135.152-7.064a198.61 198.61 0 0 0-8.595 0l.152 7.064-4.143.135-.305-7.06c-2.863.124-5.724.31-8.582.559l1.217 14.08 5.313-.385.27 4.704a179.41 179.41 0 0 0-30.855 4.5l-1.076-4.586a174.84 174.84 0 0 1 5.229-1.154l-2.829-13.845c-2.82.579-5.632 1.222-8.431 1.926l1.714 6.855-4.042 1.064-1.862-6.815c-2.787.767-5.562 1.594-8.322 2.484l2.157 6.728-3.982 1.334-2.303-6.678a199.95 199.95 0 0 0-8.185 3.043L188 168.339c1.679-.666 3.367-1.309 5.06-1.923l6.401 17.716c4.564-1.66 9.183-3.111 13.842-4.354l4.672-1.175c9.37-2.211 18.887-3.595 28.439-4.148 6.368-.369 12.753-.367 19.121 0 9.553.552 19.069 1.935 28.439 4.148l4.672 1.175a166.09 166.09 0 0 1 13.842 4.354l6.401-17.716 5.06 1.923 5.189-13.141z"/></g><path d="M255.976 379.592c28.104 0 54.123-9.024 75.377-24.286v-30.834c-19.23 19.47-45.913 31.563-75.377 31.563-29.871 0-56.876-12.439-76.161-32.387v31.097c21.393 15.608 47.712 24.847 76.161 24.847z" fill="#ffe1cd"/><defs ><path id="B" d="M263.382 200.743c-1.1.177-2.067.317-2.941.776.992-2.479 1.692-4.806 1.076-6.435-1.505-3.985-4.399-3.272-5.514-6.177v-.11c-.008.022-.02.034-.028.055-.008-.022-.02-.034-.028-.055v.11c-1.114 2.905-4.009 2.193-5.514 6.177-.616 1.63.084 3.955 1.076 6.435-.873-.459-1.841-.6-2.942-.776-2.246-.36-5.658 1.976-4.94 6.467s5.928 4.851 5.928 4.851c-.718-.718-1.347-1.886-.988-3.144s2.964-2.335 4.311 1.886-3.233 10.24-3.233 10.24a7.5 7.5 0 0 0 3.54-1.067c-1.087 3.545 2.47 6.289 2.761 6.504v.042l.028-.021a2.03 2.03 0 0 1 .028.021v-.042c.291-.215 3.848-2.958 2.761-6.503.826.495 1.972.983 3.54 1.066 0 0-4.58-6.018-3.233-10.24s3.953-3.144 4.311-1.886-.269 2.425-.988 3.144c0 0 5.209-.36 5.928-4.851s-2.693-6.827-4.939-6.467z"/></defs></svg>