<svg xmlns="http://www.w3.org/2000/svg" viewBox="0 0 512.001 512.001" xmlns:v="https://vecta.io/nano"><style><![CDATA[.B{fill:#f5f5f5}.C{fill:#41479b}.D{fill:#ffe15a}.E{fill:#464655}.F{fill:#ff4b55}.G{fill:#ff6b71}.H{fill:#5f64b9}]]></style><path d="M503.172 423.724H8.828A8.83 8.83 0 0 1 0 414.896V97.103a8.83 8.83 0 0 1 8.828-8.828h494.345a8.83 8.83 0 0 1 8.828 8.828v317.793a8.83 8.83 0 0 1-8.829 8.828z" class="B"/><path d="M8.828 220.69h203.034a8.83 8.83 0 0 0 8.828-8.828V97.103a8.83 8.83 0 0 0-8.828-8.828H38.345C17.167 88.276 0 105.443 0 126.621v85.241a8.83 8.83 0 0 0 8.828 8.828zm494.344 70.62H300.138a8.83 8.83 0 0 0-8.828 8.828v114.759a8.83 8.83 0 0 0 8.828 8.828h173.517c21.177 0 38.345-17.167 38.345-38.345v-85.241a8.83 8.83 0 0 0-8.828-8.829z" class="C"/><path d="M473.655 88.276H300.138a8.83 8.83 0 0 0-8.828 8.828v114.759a8.83 8.83 0 0 0 8.828 8.828h203.034a8.83 8.83 0 0 0 8.828-8.828v-85.241c0-21.179-17.167-38.346-38.345-38.346zM220.69 414.897V300.138a8.83 8.83 0 0 0-8.828-8.828H8.828A8.83 8.83 0 0 0 0 300.138v85.241c0 21.177 17.167 38.345 38.345 38.345h173.517a8.83 8.83 0 0 0 8.828-8.827z" class="F"/><g fill="#64b496"><path d="M250.932 281.171s5.274 1.931 4.586 8.552l2.132-.04s-1.345-7.651-2.457-8.568-4.261.056-4.261.056z"/><path d="M256.218 280.149c-2.237 0-6.147-.003-10.259-1.113.917-.954 2.184-2.876 2.184-6.227 0-5.248-3.616-1.9-3.616-1.9s-2.378 2.001-.94 7.35c-1.402-.535-2.793-1.225-4.119-2.109.825-1.036 2.471-3.45 3.427-7.278 0 0-6.026-1.191-7.674 3.347-1.01-1.281-1.874-2.722-2.595-4.317 1.549.019 3.71-1.003 3.71-6.901 0 0-3.935.007-4.988 3.42-.414-1.427-.729-2.956-.961-4.572 1.571.456 5.633.783 5.633-8.032 0 0-4.877.009-6.006 4.329-.062-1.105-.086-2.247-.075-3.425 2.368-1.238 5.636-3.965 5.297-9.56 0 0-2.249.51-4.31 2.239.406-2.121.238-5.226-3.015-7.817 0 0-2.989 5.29 1.377 9.585a8.85 8.85 0 0 0-.984 1.817c-.981-1.494-2.554-2.883-5.088-3.727 0 0-1.166 7.085 5.449 10.049.157 4.138.804 7.794 1.916 10.973-1.895-1.669-3.428-3.967-3.428-3.967 0-7.872-6.453-8.071-6.453-8.071-1.205 8.985 5.439 9.348 5.439 9.348l3.638 3.97c-7.872-1.312-7.872 5.248-7.872 5.248 5.248 1.312 7.872-1.312 7.872-1.312l2.838 1.459c-5.034.147-6.774 5.101-6.774 5.101 6.327 1.054 10.953-.433 12.526-1.057 6.372 4.455 14.226 4.461 17.852 4.461v-1.311h-.001 0z"/><path d="M255.772 280.149c2.237 0 6.147-.003 10.259-1.113-.917-.954-2.184-2.876-2.184-6.227 0-5.248 3.616-1.9 3.616-1.9s2.378 2.001.94 7.35c1.402-.535 2.793-1.225 4.119-2.109-.825-1.036-2.471-3.45-3.427-7.278 0 0 6.026-1.191 7.674 3.347 1.01-1.281 1.874-2.722 2.595-4.317-1.549.019-3.71-1.003-3.71-6.901 0 0 3.935.007 4.988 3.42.414-1.427.729-2.956.961-4.572-1.571.456-5.633.783-5.633-8.032 0 0 4.877.009 6.006 4.329.062-1.105.086-2.247.075-3.425-2.368-1.238-5.636-3.965-5.297-9.56 0 0 2.249.51 4.311 2.239-.406-2.121-.238-5.226 3.015-7.817 0 0 2.989 5.29-1.377 9.585a8.8 8.8 0 0 1 .983 1.817c.981-1.494 2.555-2.883 5.088-3.727 0 0 1.166 7.085-5.449 10.049-.157 4.138-.804 7.794-1.916 10.973 1.895-1.669 3.428-3.967 3.428-3.967 0-7.872 6.453-8.071 6.453-8.071 1.205 8.985-5.439 9.348-5.439 9.348l-3.638 3.97c7.872-1.312 7.872 5.248 7.872 5.248-5.248 1.312-7.872-1.312-7.872-1.312l-2.838 1.459c5.034.147 6.774 5.101 6.774 5.101-6.327 1.054-10.953-.433-12.526-1.057-6.372 4.455-14.226 4.461-17.852 4.461l.001-1.311h0 0z"/></g><path d="M233.863 222.955c-4.614 2.957-8.681 6.722-11.958 11.167l4.224 3.115c2.892-3.923 6.481-7.245 10.551-9.856l-2.817-4.426z" class="C"/><path d="M256.015 257.066h18.367v10.496a5.25 5.25 0 0 1-5.248 5.248h-7.872c-2.156 0-4.052 1.054-5.248 2.66l.001-18.404h0z" class="G"/><path d="M259.95 245.258v-14.432h19.68l-5.248 5.248v14.432H259.95z" class="H"/><path d="M267.82 250.5h6.56v6.56h-6.56z" class="B"/><path d="M256.015 257.066h-18.368v10.496a5.25 5.25 0 0 0 5.248 5.248h7.872c2.156 0 4.052 1.054 5.248 2.66v-18.404z" class="G"/><path d="M252.735 273.126c1.309.418 2.439 1.233 3.25 2.307h.06a6.6 6.6 0 0 1 3.25-2.307v-10.813h-6.56v10.813h0z" class="B"/><path d="M252.079 245.258v-14.432h-19.68l5.248 5.248v14.432h14.432z" class="H"/><path d="M237.65 250.5h6.56v6.56h-6.56z" class="B"/><path d="M244.207 237.386v3.936l3.936 2.624v-2.624z" class="C"/><path d="M248.143 241.322v3.936l5.247 2.624v-1.312z" class="B"/><path d="M267.822 237.386v3.936l-3.936 2.624v-2.624z" class="C"/><path d="M263.886 241.322v3.936l-5.248 2.624v-1.312z" class="B"/><path d="M263.932 266.249h-15.829c-3.597 0-6.515-2.937-6.515-6.56v-20.291l14.525 9.795 14.333-9.795v20.291c0 3.624-2.916 6.56-6.514 6.56z" class="F"/><path d="M246.831 242.634l-5.248-3.936v14.432l5.248 2.624zm18.367 0l5.248-3.936v14.432l-5.248 2.624zM248.14 255.76h15.743v6.56H248.14z" class="C"/><path d="M248.143 243.946l7.872 3.936 7.871-3.936v11.808h-15.743z" class="F"/><g class="B"><path d="M261.919 245.186v13.191a1.97 1.97 0 0 1-1.967 1.967h-7.872a1.97 1.97 0 0 1-1.967-1.967V245.24l-3.936-2.636v15.774a5.91 5.91 0 0 0 5.903 5.903h7.872a5.91 5.91 0 0 0 5.903-5.903v-15.863l-3.936 2.671z"/><path d="M263.293 254.35c-2.21.199-4.697.422-7.278 1.32-2.581-.898-5.068-1.121-7.278-1.32-3.698-.332-5.892-.655-7.148-2.886v3.787c1.929 1.254 4.372 1.485 6.913 1.713 2.281.205 4.639.416 7.049 1.329l.465.175.465-.175c2.409-.913 4.767-1.123 7.049-1.329 2.543-.228 4.99-.456 6.919-1.711v-3.798c-1.257 2.24-3.453 2.563-7.156 2.895z"/></g><path d="M258.638 241.978h-1.967v-1.968h-1.312v1.968h-1.969v1.312h1.969v5.904h1.312v-5.904h1.967z" class="D"/><path d="M243.082 236.746l.72-.72 11.529 11.529-.72.72z" class="E"/><path d="M241.278 234.22l1.441 2.882 1.441-1.441z" class="D"/><path d="M245.627 234.758l.824-.6 9.6 13.179-.824.6z" class="E"/><path d="M244.227 231.982l.977 3.072 1.647-1.2z" class="D"/><path d="M240.927 239.253l.583-.835 13.367 9.333-.583.835z" class="E"/><path d="M238.71 237.108l1.923 2.585 1.167-1.67z" class="D"/><path d="M257.416 248.266l-.72-.72 11.529-11.529.72.72z" class="E"/><path d="M270.745 234.22l-1.441 2.882-1.441-1.441z" class="D"/><path d="M256.809 247.924l-.824-.6 9.6-13.179.824.6z" class="E"/><path d="M267.796 231.982l-.977 3.072-1.646-1.2z" class="D"/><path d="M257.746 248.616l-.583-.835 13.367-9.333.583.835z" class="E"/><path d="M273.313 237.108l-1.923 2.585-1.167-1.67z" class="D"/><path d="M255.349 272.436s-5.074-5.449-4.089-10.451c.791-4.023 3.192-8.458 5.071-9.537 0 0 2.657-.164 1.991 2.145s-1.478 2.903-1.24 5.178c.409 3.937 1.044 8.603-1.733 12.665z" class="B"/><path d="M256.888 252.477c-.317-.042-.558-.028-.558-.028-1.879 1.079-4.28 5.514-5.071 9.537-.448 2.275.361 4.638 1.373 6.543-.641-8.248 1.767-11.174 4.256-16.052z" class="C"/><path d="M257.081 259.772c-.237-2.274.574-2.87 1.24-5.178.467-1.615-.693-2.019-1.432-2.116 0 0-1.694 3.892-1.803 6.503-.096 2.297.492 11.644.264 13.458 2.776-4.065 2.141-8.731 1.731-12.667z" class="F"/><path d="M253.639 254.423c1.057-1.031 2.543-1.492 3.998-1.242l-2.07-6.664c-1.454-.249-2.941.212-3.999 1.242l2.071 6.664z" fill="#f5f0f0"/><path d="M257.638 253.181a4.61 4.61 0 0 1 3.999-1.242l-2.07-6.664c-1.454-.249-2.941.212-3.999 1.242l2.07 6.664z" class="B"/><path d="M250.022 224.354c-7.122-.164-14.156 1.587-20.37 5.07l-2.567-4.577c7.033-3.944 14.996-5.926 23.058-5.74l-.121 5.247z" class="H"/><path d="M278.167 222.955c4.614 2.957 8.681 6.722 11.958 11.167l-4.224 3.115c-2.892-3.923-6.481-7.245-10.551-9.856l2.817-4.426z" class="C"/><path d="M262.008 224.354c7.122-.164 14.156 1.587 20.37 5.07l2.567-4.577c-7.033-3.944-14.996-5.926-23.058-5.74l.121 5.247z" class="H"/><path d="M266.51 222.955c-6.871-1.88-14.121-1.88-20.991 0l-1.385-5.062c7.777-2.127 15.983-2.127 23.761 0l-1.385 5.062z" class="C"/><path d="M238.432 281.757c-5.663 1.479-11.199 3.474-16.529 5.985l2.237 4.747c5.143-2.424 10.489-4.337 15.96-5.742l-1.668-4.99zm35.166 0c5.663 1.479 11.199 3.474 16.529 5.985l-2.237 4.747c-5.143-2.424-10.489-4.337-15.96-5.742l1.668-4.99z" class="G"/><g class="F"><path d="M277.119 285.815a89.91 89.91 0 0 0-41.983 0l-1.225-5.102a95.17 95.17 0 0 1 44.433 0l-1.225 5.102z"/><path d="M256.015 287.241l-3.618.905a1.31 1.31 0 0 1-1.63-1.272v-1.887c0-.853.802-1.48 1.63-1.273l3.618.905v2.622z"/><path d="M256.015 284.617l3.618-.905c.828-.207 1.63.419 1.63 1.273v1.887a1.31 1.31 0 0 1-1.63 1.272l-3.618-.905v-2.622z"/></g><path d="M256.296 287.241h-.563a1.03 1.03 0 0 1-1.031-1.031v-.563a1.03 1.03 0 0 1 1.031-1.031h.563a1.03 1.03 0 0 1 1.031 1.031v.563a1.03 1.03 0 0 1-1.031 1.031z" class="G"/></svg>