<svg xmlns="http://www.w3.org/2000/svg" viewBox="0 0 512 512" xmlns:v="https://vecta.io/nano"><path d="M473.655 88.276H38.345C17.167 88.276 0 105.443 0 126.621V385.38c0 21.177 17.167 38.345 38.345 38.345h435.31c21.177 0 38.345-17.167 38.345-38.345V126.621c0-21.178-17.167-38.345-38.345-38.345z" fill="#82afff"/><path d="M8.828 256h238.345a8.83 8.83 0 0 0 8.828-8.828V97.103a8.83 8.83 0 0 0-8.828-8.828H38.345C17.167 88.276 0 105.443 0 126.621v120.552A8.83 8.83 0 0 0 8.828 256z" fill="#41479b"/><path d="M247.172 88.276h-15.334l-81.77 53.574V88.276H105.93v53.574L24.16 88.276H8.828A8.83 8.83 0 0 0 0 97.103v7.002l70.155 45.963H0v44.138h70.155L0 240.17v7.002A8.83 8.83 0 0 0 8.828 256h15.334l81.77-53.574V256h44.138v-53.574L231.839 256h15.334a8.83 8.83 0 0 0 8.828-8.828v-7.002l-70.155-45.963H256v-44.138h-70.155L256 104.106v-7.002a8.83 8.83 0 0 0-8.828-8.828z" fill="#f5f5f5"/><path d="M256 158.897H141.241V88.276h-26.482v70.621H0v26.482h114.759V256h26.482v-70.621H256zM8.227 102.902l72.662 47.167h16.214l-82.496-53.55c-2.369 1.87-4.51 4.013-6.38 6.383zm158.056 47.167l88.374-57.366c-1.536-2.599-4.246-4.427-7.485-4.427h-1.909l-95.194 61.793h16.214zm-76.809 44.138L1.269 251.463C2.79 254.125 5.542 256 8.828 256h1.665l95.196-61.793H89.474zm166.386 53.658l-82.666-53.658H156.98l93.874 60.935c2.812-1.305 4.741-4.04 5.006-7.277z" fill="#ff4b55"/><path d="M322.034 184.617v96.858c0 39.281 55.178 59.469 61.902 61.782 6.717-2.313 61.902-22.534 61.902-61.782v-96.858H322.034h0z" fill="#f5f5f5"/><path d="M448.022 229.041v-46.609H319.849v46.609h55.348v43.695h-55.348v17.479h55.348v52.433l8.739 2.913 8.738-2.913v-52.433h55.348v-17.479h-55.348v-43.695z" fill="#ff4b55"/><circle cx="334.22" cy="210.86" r="7.293" fill="#f5f5f5"/><path d="M348.231 200.999c-2.334-1.283-6.535-4.726-8.226-4.142s-2.07 1.78-4.437 1.962c-2.306.178-5.948 2.428-4.43 4.922 1.973 3.246 8.149.722 8.557-.796 0 0 1.517.243 2.792-.061 0 0 2.537 3.54 5.687 3.307s4.609-4.142 3.91-4.142-3.853-1.05-3.853-1.05zm9.685 15.46c-.525.962-4.522 4.38-11.202 5.951-1.487.35-1.225 2.1-2.713 1.225s-5.601-1.576-9.277-1.75-4.041-3.581-3.413-4.813c.797-1.565 6.665-2.519 7.715-.594s1.837 1.524 4.45 2.081c1.619.346 1.663 1.138 1.663 1.138s2.976-2.976 5.514-3.851 4.726-2.801 5.163-2.801 2.713.612 2.713.612l-.613 2.802zm9.714-10.327c3.851 1.4 15.228.962 27.392-2.976s15.666-4.638 21.617-2.451 8.527-4.725 4.619-5.894c-6.138-1.837-25.124 9.194-38.871 3.004 0 0-.405 1.665.032 2.452 0 0-9.976.35-7.614-9.976 0 0 .68 3.77 5.397 3.337 8.921-.819 10.196 5.462 29.085-.362 10.487-3.233 18.635-1.646 18.707 3.456.087 6.143-8.381 7.571-8.381 7.571s3.296 6.739 9.948 3.763 7.001 2.158 7.585 3.91 1.692 3.443 3.15 3.617c0 0 1.05 3.15.642 3.559s-3.15 3.851-5.892 3.851h-8.693s-1.576-3.91 1.459-3.967 6.71-.291 6.243-1.926-2.859-2.392-2.801-4.201c0 0-7.06 5.134-11.435-.934l-.117 2.859s-5.31-.992-7.234-5.251c0 0 .525 4.785-4.025 4.084 0 0 .934 1.4 2.509 2.392s-.059 3.15-3.092 4.959-12.369 7.06-16.628 1.692.934-8.46 2.217-8.11 4.959 6.009 7.468 5.251 3.734-3.326 1.633-4.9-3.673-3.064-2.349-4.654c1.821-2.185 8.534-1.53 8.3-2.988s-6.476-1.05-10.56 3.033-21.821 13.478-28.881 7.527-1.43-11.727-1.43-11.727z" fill="#ffe15a"/><path d="M365.355 203.507s5.338 5.251 14.353 6.914c0 0-1.663 2.538-6.476 1.838 0 0 1.926 1.663 3.239 4.463 0 0-3.063.7-5.777-.788 0 0 .35 2.275 1.663 4.114 0 0-3.588 0-6.652-2.713l-1.225 3.5s-2.1-1.4-3.413-4.114c0 0-2.451 1.926-4.9 1.926 0 0 .875-2.625.875-4.114 0 0-3.5 2.1-6.389 1.313 0 0 .087-3.676 1.05-4.726 0 0-2.275.263-3.763-.525l1.313-3.326c0 0-2.451.087-3.938-1.313 0 0 4.726-1.838 5.777-3.588l14.263 1.139z" fill="#ffd25a"/><path d="M356.749 188.804c1.05.584 2.742 1.867 3.443 4.025 0 0 1.926-2.801 5.251-3.326 0 0 1.459 1.633 1.05 5.892 0 0 3.676-1.05 5.66.875 0 0-3.91.875-5.718 4.142 0 0-.702 3.338.524 5.322 0 0-1.365.182-2.741-.42 0 0-.7 3.326 0 4.376 0 0-1.926-.234-2.976-2.275 0 0-1.576 2.392-1.459 3.851 0 0-2.1-1.225-2.217-3.033 0 0-1.459 2.742-3.033 2.976 0 0-.175-3.851-.875-5.31 0 0-1.342 1.459-3.092 1.4 0 0 0-2.976 1.459-4.376 0 0-2.451.758-3.793-1.926 0 0 4.025 1.166 5.017-1.283s1.283-3.209 2.684-4.551.816-6.359.816-6.359z" fill="#ffbe5a"/><path d="M365.355 200.094s-4.989 9.539-9.539 6.652c-4.985-3.165 1.225-10.59 2.013-11.377-.001-.001 3.675.962 7.526 4.725z" fill="#ffe15a"/><path d="M347.363 248.952s-.523-6.851-4.237-8.828c-3.492-1.858-5.555-2.787-5.955-5.169a45.97 45.97 0 0 0 6.241 2.265c2.898.787 5.726 5.692 4.867 11.209l-.916.523z" fill="#5abea0"/><path d="M335.639 254.585l.472.871.343 1.873-.687 2.221s2.729 1.085 3.35 4.791c.426 2.543 1.546 3.093 2.233 2.57s1.103-1.141.386-3.921c-.916-3.549-3.393-6.925-3.393-6.925l-1.932-2.962-.772 1.482z" fill="#b46446"/><g fill="#5abea0"><path d="M338.345 256.066c-2.49-3.223-9.277-9.931-10.564-.785 0 0-2.66-7.706 2.319-7.405 5.754.35 8.245 8.19 8.245 8.19z"/><path d="M336.111 255.457c-2.147-2.353-2.835-4.095-3.951-8.45s-1.46-5.663-2.749-5.576-2.061 1.481-2.061 4.268c0 0-3.779-3.398-1.203-6.098s8.331-1.219 8.675 3.572.258 8.014 1.975 12.022l-.686.262z"/><path d="M336.713 253.366s-4.552-10.018 8.246-15.42c0 0-11.338-3.049-9.963 13.067l1.717 2.353zm1.461 3.572s-9.62-3.659-8.761 5.227c0 0 1.632-4.182 6.356-2.613l2.405-2.614z"/></g><path d="M349.081 253.423c0 2.599 1.022 10.14-.429 11.093-.73.479-2.792.087-2.62-1.742s.988-10.716.988-12.893 2.061 3.542 2.061 3.542z" fill="#b46446"/><g fill="#5abea0"><path d="M342.955 259.464c1.661-1.684 2.176-5.517 1.603-10.628 0 0 3.436 2.381 4.524 4.588 0 0 1.088-5.053-2.462-6.389s-5.44-.58-6.07 1.045 1.085 3.445 1.833 6.098c.686 2.44.572 5.286.572 5.286z"/><path d="M348.853 252.088s.573-2.671 2.462-3.775c0 0 3.894 2.73 3.607 6.389 0 0 1.031-4.994-1.088-6.969s-4.524-2.497-5.726-.755.745 5.11.745 5.11z"/><path d="M349.769 246.977s1.203-7.144 4.237-8.712 8.647-3.02 8.99-3.369l-7.787.349c-1.088 0-7.101 4.355-7.101 10.803s.573 2.033.745 1.974.916-1.045.916-1.045z"/></g><path d="M352.561 265.867c.687 1.438 2.319 1.785 2.663 1.045s1.889-6.403 1.889-6.403l-2.19-1.045-2.362 6.403z" fill="#b46446"/><path d="M365.401 242.099c2.691-1.568 4.467 3.079 4.467 3.079 0-5.471-1.718-7.201-6.013-5.111-1.293.63-2.24 1.949-2.936 3.479-2.174-6.247-6.969-6.151-6.969-6.151l-1.088.755c3.926.755 6.175 5.46 7.126 8.026a30.27 30.27 0 0 0-.867 4.728c-2.573 2.667-4.198 8.559-4.198 8.559s1.847 1.089 2.19 1.045c0 0 1.203-3.702 2.706-3.615s3.264 2.483 3.307 4.008c0 0 2.233-4.53-.429-6.272-1-.654-1.8-.903-2.446-.915l1.974-2.221c3.221.61 5.454 3.659 5.454 3.659.065-5.444-2.339-6.507-4.874-6.051.453-2.192 1.45-6.334 2.596-7.002z" fill="#5abea0"/><path d="M418.42 249.639v15.439c0 .747-3.27 3.652-3.27 3.652h8.693s-2.792-3.238-2.792-3.652.638-14.277.638-14.277l-3.269-1.162z" fill="#b46446"/><path d="M418.978 251.215c-2.073-.166-7.816 4.566-9.491 11.787 0 0-5.105-8.301 7.657-15.191 0 0-5.663-1.661-14.276 7.305-.465.484-.877-13.53 14.595-9.795 0 0-5.902-8.551-18.025-1.826 0 0 8.055-14.444 19.939-1.494l.16-10.045c.081 1.162.957 6.308.957 6.308l2.313-4.067-1.834 8.301s10.607-14.112 19.62.582c0 0-11.645-4.814-17.227.581 0 0 11.964-3.238 11.006 10.625 0 0-4.705-8.218-12.362-7.139 0 0 9.013 4.15 6.141 15.357-.001.001-5.432-10.99-9.173-11.289zm-76.163 49.887c-.444-.601-1.066-.89-1.676-.966.235-.81.392-1.18.329-1.77.186.046.364.13.555.153l.082-.666c-.708-.085-1.48-.403-2.273-.887.489-.419.843-1.063.843-1.852 0-.857-.393-1.575-.952-1.982-.558.408-.952 1.126-.952 1.982 0 .643.264 1.159.61 1.572-.295-.204-.593-.44-.892-.694-.077-.527-.279-1.058-.747-1.484-.633-.577-1.428-.77-2.106-.632-.075.687.191 1.461.824 2.039.489.446 1.065.598 1.618.61l.397.323c-.38-.046-.789-.007-1.198.142-.806.294-1.345.908-1.537 1.572.575.385 1.383.51 2.188.216.703-.256 1.155-.771 1.399-1.335.471.301.988.552 1.523.753l-.085.011c-.018.483.014.682-.226 1.58a2.41 2.41 0 0 0-2.014-.286c-.822.242-1.399.822-1.633 1.473.55.42 1.348.596 2.171.353.618-.182 1.037-.579 1.336-1.03-.113.341-.255.693-.414 1.052-.483.223-.936.567-1.213 1.137-.375.77-.335 1.588-.011 2.199.681-.122 1.348-.596 1.724-1.366.289-.595.274-1.19.128-1.724l.198-.472c.063.377.216.759.474 1.109.509.69 1.25 1.034 1.942 1.031.206-.66.097-1.471-.412-2.161z" fill="#5abea0"/><path d="M338.874 298.951c2.911 0 6.719-.111 6.606 2.799s-3.359 12.766 4.143 15.789 8.398 2.575 8.398 2.575l3.359 7.726 8.174-2.911-7.839-6.271s-.672-4.255-2.575-7.167c0 0 4.815-2.464 6.495-4.591l-3.359-.224s4.367-2.799 6.382-5.934l-2.351.224s2.687-2.688 3.359-5.823c0 0-4.367 4.367-8.846 4.927 0 0 1.903-4.927 2.351-6.83 0 0-3.359 2.127-5.71 3.023s-6.047 1.007-4.367 8.622c0 0-2.016-1.679-3.247-5.263s-1.679-4.927-3.359-4.927c-2.743 0-3.807 2.464-3.807 2.464l-3.807 1.792z" fill="#ffecde"/><path d="M421.519 300.391c1.007-1.343 3.022-5.54 4.785-4.449s4.114 3.777 5.54 2.518 1.511-2.854-.672-3.609-4.617-2.015-6.127-1.511-6.127 5.289-6.127 5.289l2.601 1.762z" fill="#b46446"/><path d="M408.509 304c-.084-1.931 1.219-10.313 6.464-9.234 2.854.588 4.258 3.613 7.975 5.036 3.945 1.511 6.464 2.434 5.708 5.036s-2.183 5.708-5.457 6.464-14.69-7.302-14.69-7.302z" fill="#ffe15a"/><g fill="#5abea0"><path d="M405.067 310.911c-1.119.224-5.26 6.268-.335 12.424 0 0 6.044 2.462 10.857-1.343s1.231-5.708 1.231-5.708l-11.753-5.373z"/><path d="M405.486 312.226c-.503-.756-.419-1.315-.419-1.315s-.252-8.674 3.358-8.842 16.62 8.394 16.62 9.821-4.198 5.54-7.723 6.379-11.836-6.043-11.836-6.043z"/></g><path d="M396.589 333.212s11.466-5.151 9.311-9.342c-1.555-3.023-5.05-1.086-5.603 1.223-.691 2.881-2.932 6.896-3.708 8.119z" fill="#b46446"/><path d="M383.936 347.854l-.663-.211c-.665-.213-16.494-5.311-32.583-15.916-21.605-14.238-33.026-31.617-33.026-50.252V180.247h132.543v101.228c0 18.636-11.421 36.014-33.026 50.252-16.088 10.605-31.917 15.703-32.583 15.916l-.662.211zm-61.902-163.237v96.858c0 39.281 55.178 59.469 61.902 61.782 6.717-2.313 61.902-22.534 61.902-61.782v-96.858H322.034h0z" fill="#464655"/></svg>