<svg xmlns="http://www.w3.org/2000/svg" viewBox="0 0 512 512" xmlns:v="https://vecta.io/nano"><path d="M38.345 88.273C17.167 88.273 0 105.44 0 126.618v258.759c0 21.177 17.167 38.345 38.345 38.345h132.322V88.273H38.345z" fill="#82afff"/><path d="M170.67 88.277h170.67v335.45H170.67z" fill="#f5f5f5"/><path d="M473.655 88.273H341.333v335.448h132.322c21.177 0 38.345-17.167 38.345-38.345V126.618c0-21.178-17.167-38.345-38.345-38.345z" fill="#82afff"/><path d="M253.773 212.107l-5.062 2.531 4.657 1.923z" fill="#ffc855"/><g fill="#73af00"><path d="M256 305.649c-28.135 0-51.023-22.89-51.023-51.023 0-17.478 8.797-33.548 23.531-42.989l1.31 2.046c-14.034 8.993-22.412 24.299-22.412 40.943 0 26.795 21.8 48.594 48.594 48.594v2.43h0v-.001z"/><path d="M226.798 308.833c1.944.396 4.943-.117 8.023-1.551s5.402-3.402 6.349-5.145c-1.944-.396-4.943.116-8.023 1.551s-5.401 3.402-6.349 5.145z"/><path d="M241.172 302.137c.396-1.944-.117-4.943-1.551-8.023s-3.402-5.402-5.145-6.349c-.396 1.944.116 4.943 1.551 8.023s3.401 5.401 5.145 6.349zm-24.539.456c1.865.678 4.907.61 8.164-.356s5.843-2.572 7.036-4.157c-1.865-.678-4.907-.61-8.164.356s-5.843 2.572-7.036 4.157z"/><path d="M231.834 298.079c.678-1.865.61-4.907-.356-8.164s-2.572-5.843-4.157-7.036c-.678 1.865-.61 4.907.356 8.164s2.572 5.843 4.157 7.036zm-24.603-3.994c1.713 1.001 4.717 1.482 8.096 1.116s6.21-1.481 7.668-2.826c-1.713-1.001-4.717-1.482-8.096-1.116s-6.21 1.481-7.668 2.826z"/><path d="M222.995 292.374c1.001-1.713 1.482-4.717 1.116-8.096s-1.481-6.21-2.826-7.668c-1.001 1.713-1.482 4.717-1.116 8.096s1.481 6.211 2.826 7.668zm-23.537-10.038c1.508 1.289 4.38 2.294 7.77 2.531s6.375-.358 8.047-1.423c-1.508-1.289-4.38-2.294-7.77-2.531s-6.374.357-8.047 1.423z"/><path d="M215.276 283.444c1.289-1.508 2.294-4.381 2.531-7.77s-.358-6.375-1.423-8.047c-1.289 1.508-2.294 4.38-2.531 7.77s.357 6.374 1.423 8.047zm-20.368-14.05c1.204 1.577 3.799 3.164 7.064 4.109s6.306.991 8.167.301c-1.204-1.577-3.799-3.164-7.064-4.109s-6.307-.991-8.167-.301z"/><path d="M210.138 273.804c1.577-1.204 3.164-3.799 4.109-7.064s.991-6.306.301-8.167c-1.577 1.204-3.164 3.799-4.109 7.064s-.99 6.307-.301 8.167zm-17.156-19.521c.758 1.834 2.858 4.034 5.77 5.788s5.839 2.58 7.815 2.391c-.758-1.834-2.858-4.034-5.77-5.788s-5.84-2.579-7.815-2.391z"/><path d="M206.567 262.462c1.834-.758 4.034-2.858 5.788-5.77s2.58-5.839 2.391-7.815c-1.833.758-4.034 2.858-5.788 5.77s-2.58 5.84-2.391 7.815zm-11.76-22.446c.356 1.952 1.949 4.544 4.428 6.869s5.17 3.746 7.139 3.977c-.356-1.952-1.949-4.544-4.428-6.869s-5.168-3.747-7.139-3.977z"/><path d="M206.375 250.862c1.952-.356 4.544-1.949 6.869-4.428s3.746-5.17 3.977-7.139c-1.952.356-4.544 1.949-6.869 4.428s-3.747 5.168-3.977 7.139zm-4.4-26.283c-.408 1.941.085 4.943 1.501 8.033s3.368 5.423 5.105 6.382c.408-1.941-.085-4.943-1.501-8.033s-3.368-5.425-5.105-6.382z"/><path d="M208.58 238.994c1.941.408 4.943-.085 8.033-1.501s5.423-3.368 6.382-5.105c-1.941-.408-4.943.085-8.033 1.501s-5.424 3.368-6.382 5.105zm1.966-25.848c-.915 1.76-1.247 4.785-.714 8.141s1.785 6.13 3.201 7.519c.915-1.76 1.247-4.785.714-8.141s-1.786-6.129-3.201-7.519z"/><path d="M213.034 228.806c1.76.915 4.785 1.247 8.141.714s6.13-1.785 7.519-3.201c-1.76-.915-4.785-1.247-8.141-.714s-6.13 1.785-7.519 3.201zm5.917-23.617c-1.164 1.607-1.938 4.548-1.906 7.947s.864 6.326 2.059 7.908c1.164-1.607 1.938-4.548 1.905-7.947s-.862-6.326-2.058-7.908z"/><path d="M219.105 221.044c1.607 1.164 4.548 1.938 7.947 1.906s6.325-.864 7.908-2.059c-1.607-1.164-4.548-1.938-7.947-1.906s-6.324.864-7.908 2.059zm4.078-4.169c1.977.16 4.894-.707 7.78-2.502s4.956-4.024 5.688-5.868c-1.977-.16-4.894.707-7.78 2.502s-4.955 4.024-5.688 5.868zM256 305.649v-2.43c26.794 0 48.594-21.799 48.594-48.594 0-16.644-8.378-31.951-22.411-40.943l1.31-2.046c14.734 9.441 23.531 25.512 23.531 42.989-.001 28.134-22.889 51.024-51.024 51.024z"/><path d="M285.202 308.833c-1.944.396-4.943-.117-8.023-1.551s-5.402-3.402-6.349-5.145c1.944-.396 4.943.116 8.023 1.551s5.401 3.402 6.349 5.145z"/><path d="M270.828 302.137c-.396-1.944.117-4.943 1.551-8.023s3.402-5.402 5.145-6.349c.396 1.944-.116 4.943-1.551 8.023s-3.401 5.401-5.145 6.349zm24.539.456c-1.865.678-4.907.61-8.164-.356s-5.843-2.572-7.036-4.157c1.865-.678 4.907-.61 8.164.356s5.843 2.572 7.036 4.157z"/><path d="M280.165 298.079c-.677-1.865-.61-4.907.356-8.164s2.572-5.843 4.157-7.036c.678 1.865.61 4.907-.356 8.164s-2.571 5.843-4.157 7.036zm24.604-3.994c-1.713 1.001-4.717 1.482-8.096 1.116s-6.21-1.481-7.668-2.826c1.713-1.001 4.717-1.482 8.096-1.116s6.21 1.481 7.668 2.826z"/><path d="M289.005 292.374c-1.001-1.713-1.482-4.717-1.116-8.096s1.481-6.21 2.826-7.668c1.001 1.713 1.482 4.717 1.116 8.096s-1.481 6.211-2.826 7.668zm23.537-10.038c-1.508 1.289-4.381 2.294-7.77 2.531s-6.375-.358-8.047-1.423c1.508-1.289 4.38-2.294 7.77-2.531s6.374.357 8.047 1.423z"/><path d="M296.724 283.444c-1.289-1.508-2.294-4.381-2.531-7.77s.358-6.375 1.423-8.047c1.289 1.508 2.294 4.38 2.531 7.77s-.357 6.374-1.423 8.047zm20.368-14.05c-1.204 1.577-3.799 3.164-7.064 4.109s-6.306.991-8.167.301c1.204-1.577 3.799-3.164 7.064-4.109s6.307-.991 8.167-.301z"/><path d="M301.862 273.804c-1.577-1.204-3.164-3.799-4.109-7.064s-.991-6.306-.301-8.167c1.577 1.204 3.164 3.799 4.109 7.064s.99 6.307.301 8.167zm17.156-19.521c-.758 1.834-2.858 4.034-5.77 5.788s-5.839 2.58-7.815 2.391c.758-1.834 2.858-4.034 5.77-5.788s5.84-2.579 7.815-2.391z"/><path d="M305.433 262.462c-1.834-.758-4.034-2.858-5.788-5.77s-2.58-5.839-2.391-7.815c1.833.758 4.034 2.858 5.788 5.77s2.58 5.84 2.391 7.815zm11.76-22.446c-.356 1.952-1.949 4.544-4.428 6.869s-5.17 3.746-7.139 3.977c.356-1.952 1.949-4.544 4.428-6.869s5.168-3.747 7.139-3.977z"/><path d="M305.625 250.862c-1.952-.356-4.544-1.949-6.869-4.428s-3.746-5.17-3.977-7.139c1.952.356 4.544 1.949 6.869 4.428s3.747 5.168 3.977 7.139zm4.401-26.283c.408 1.941-.085 4.943-1.501 8.033s-3.368 5.423-5.105 6.382c-.408-1.941.085-4.943 1.501-8.033s3.367-5.425 5.105-6.382z"/><path d="M303.42 238.994c-1.941.408-4.943-.085-8.033-1.501s-5.423-3.368-6.382-5.105c1.941-.408 4.943.085 8.033 1.501s5.424 3.368 6.382 5.105zm-1.966-25.848c.915 1.76 1.247 4.785.714 8.141s-1.785 6.13-3.201 7.519c-.915-1.76-1.247-4.785-.714-8.141s1.786-6.129 3.201-7.519z"/><path d="M298.966 228.806c-1.76.915-4.785 1.247-8.141.714s-6.13-1.785-7.519-3.201c1.76-.915 4.785-1.247 8.141-.714s6.13 1.785 7.519 3.201zm-5.917-23.617c1.164 1.607 1.938 4.548 1.905 7.947s-.864 6.326-2.059 7.908c-1.164-1.607-1.938-4.548-1.905-7.947s.863-6.326 2.059-7.908z"/><path d="M292.895 221.044c-1.607 1.164-4.548 1.938-7.947 1.906s-6.325-.864-7.908-2.059c1.607-1.164 4.548-1.938 7.947-1.906s6.324.864 7.908 2.059zm-4.078-4.169c-1.977.16-4.894-.707-7.78-2.502s-4.956-4.024-5.688-5.868c1.977-.16 4.894.707 7.78 2.502s4.955 4.024 5.688 5.868z"/></g><path d="M228.146 294.348l-8.844 8.844-4.361-8.723 13.084-13.084 4.361 4.361-1.26 3.779a12.33 12.33 0 0 1-2.98 4.823z" fill="#966446"/><path d="M275.997 229.053l-47.972 47.972c-1.204 1.204-1.204 3.157 0 4.361l2.18 2.18 8.723-8.723 34.889-39.251 4.361-4.361-2.181-2.178z" fill="#b9b9b9"/><path d="M239.83 269.58c-.578.578-.904 1.363-.904 2.18v3.084l34.889-39.251-33.985 33.987z" fill="#966446"/><path d="M278.177 231.233l-2.18-2.18-2.181 2.18 2.181 2.182 2.18 2.18 23.987-28.347z" fill="#a0a0a0"/><path d="M286.284 294.348l8.844 8.844 4.361-8.723-13.084-13.084-4.361 4.361 1.26 3.779a12.33 12.33 0 0 0 2.98 4.823z" fill="#966446"/><path d="M238.433 229.053l47.972 47.972c1.204 1.204 1.204 3.157 0 4.361l-2.18 2.18-8.723-8.723-34.889-39.251-4.361-4.361 2.181-2.178z" fill="#b9b9b9"/><path d="M274.6 269.58c.578.578.904 1.363.904 2.18v3.084l-34.889-39.251L274.6 269.58z" fill="#966446"/><path d="M236.253 231.233l2.18-2.18 2.181 2.18-2.181 2.182-2.18 2.18-23.987-28.347z" fill="#a0a0a0"/><path d="M239.315 292.534l2.167 1.976c7.906-8.668 21.741-23.837 43.673-43.529.001.001-18.169 11.216-45.84 41.553z" fill="#b9b9b9"/><path d="M233.184 301.431h0a1.91 1.91 0 0 1-.124-2.694l4.644-5.092a1.91 1.91 0 0 1 2.694-.124h0a1.91 1.91 0 0 1 .124 2.694l-4.644 5.092c-.71.779-1.916.834-2.694.124z" fill="#ffe15a"/><path d="M237.556 290.93l-1.258.561c-1.119.557-4.063 2.222-4.57 4.595-.242 1.124.099 2.219.972 3.255.083-.214.196-.422.361-.601l.585-.641c-.396-.574-.605-1.138-.486-1.704.318-1.484 2.298-2.809 3.542-3.466l5.564 5.075 1.384-1.517-6.094-5.557z" fill="#ffc855"/><path d="M275.093 294.933l-2.167 1.976c-7.906-8.668-21.741-23.837-43.673-43.529-.001.001 18.169 11.216 45.84 41.553z" fill="#b9b9b9"/><path d="M281.224 303.832h0a1.91 1.91 0 0 0 .124-2.694l-4.644-5.092a1.91 1.91 0 0 0-2.694-.124h0a1.91 1.91 0 0 0-.124 2.694l4.644 5.092a1.91 1.91 0 0 0 2.694.124z" fill="#ffe15a"/><path d="M276.852 293.329l1.258.561c1.119.557 4.063 2.222 4.57 4.595.242 1.124-.099 2.219-.972 3.255-.083-.214-.196-.421-.361-.601l-.585-.641c.396-.574.605-1.138.486-1.704-.318-1.484-2.298-2.809-3.542-3.466l-5.564 5.075-1.384-1.517 6.094-5.557z" fill="#ffc855"/><path d="M258.161 214.683a3.63 3.63 0 0 0 .268-1.362c0-2.013-1.632-3.645-3.645-3.645s-3.645 1.632-3.645 3.645a3.63 3.63 0 0 0 1.482 2.919c-1.318 10.585 9.119 11.394 13.096 12.874 6.035 2.246 13.603 6.787 13.127 19.484-.462 12.342-8.267 24.251-8.267 24.251l6.479-8.808c-2.369 10.02-7.901 22.784-21.057 37.963 0 0 8.995-8.799 16.501-20.146-5.523 12.993-11.642 25.005-11.642 25.005s10.833-14.072 19.59-38.419c10.617-29.517-11.716-47.251-22.287-53.761z" fill="#69b469"/><path d="M239 258.267h9.719v4.86H239z" fill="#f4e08f"/><g fill="#ecd077"><circle cx="239" cy="263.127" r="4.86"/><circle cx="239" cy="231.547" r="4.86"/></g><path d="M268.148 236.403a4.86 4.86 0 1 0 0-9.72h-29.156a4.86 4.86 0 1 1 0 9.72 4.86 4.86 0 0 1-4.86-4.86c0 8.157 6.826 18.019 9.027 26.727 0 0 .692 2.176.692 4.86a4.86 4.86 0 0 1-4.86 4.86h29.156a4.86 4.86 0 0 0 4.86-4.86c0-8.157-6.826-18.019-9.027-26.727h4.168 0z" fill="#fcf0a8"/><g fill="#f4e08f"><use href="#B"/><use href="#B" y="31.585"/></g><defs ><path id="B" d="M243.852 231.545a4.86 4.86 0 0 1-4.86 4.86h29.156a4.86 4.86 0 0 0 4.86-4.86h-29.156z"/></defs></svg>