<svg xmlns="http://www.w3.org/2000/svg" viewBox="0 0 512 512" xmlns:v="https://vecta.io/nano"><path d="M473.655 88.275H38.345C17.167 88.275 0 105.442 0 126.62v258.76c0 21.177 17.167 38.345 38.345 38.345h435.31c21.177 0 38.345-17.167 38.345-38.345V126.62c0-21.178-17.167-38.345-38.345-38.345z" fill="#82c3d2"/><g fill="#ffe15a"><path d="M59.516 128.447c-.799-3.382-.998-4.63.52-6.147.74-.74.74-1.939 0-2.679s-1.939-.74-2.679 0c-3.072 3.073-2.339 6.262-1.544 9.638-2.422-.791-4.934-.204-6.28 1.494-.668.847-1.96 3.223.461 7.017a1.9 1.9 0 0 0 2.616.582c.883-.563 1.14-1.736.577-2.616-.908-1.429-.935-2.31-.681-2.632.3-.381 1.23-.582 2.204-.237.629.218 2.091.973 2.091 3.253a5.64 5.64 0 0 1-2.31 4.575c-1.471 1.088-3.375 1.395-5.21.825-2.266-.692-3.849-3.079-3.849-5.806 0-1.951.418-3.923 1.186-5.651l3.764-8.49c1.475-4.423-.024-6.647-1.047-7.576-1.369-1.247-3.37-1.558-5.092-.803-.262.116-.478.284-.705.44-.227-.157-.444-.324-.705-.44-1.721-.755-3.721-.445-5.092.803-1.023.929-2.522 3.154-1.047 7.576.746 2.236 3.641 8.235 3.738 8.435.793 1.784 1.212 3.756 1.212 5.707 0 2.728-1.582 5.114-3.849 5.806-1.842.569-3.74.266-5.21-.825-1.468-1.085-2.31-2.753-2.31-4.575 0-2.28 1.462-3.034 2.091-3.253.977-.344 1.902-.145 2.204.237.254.322.227 1.203-.681 2.632-.563.881-.306 2.055.577 2.616.89.563 2.058.3 2.616-.582 2.421-3.794 1.129-6.169.461-7.017-1.347-1.698-3.858-2.286-6.28-1.494.796-3.375 1.528-6.566-1.544-9.638-.74-.74-1.939-.74-2.679 0s-.74 1.939 0 2.679c1.517 1.517 1.32 2.764.52 6.147-.481 2.027-1.077 4.555-1.077 7.671 0 2.074.728 4.056 1.955 5.685h-.061c-1.047 0-1.895.847-1.895 1.895s.847 1.895 1.895 1.895h.061c-1.227 1.628-1.955 3.611-1.955 5.684 0 3.116.596 5.644 1.075 7.672.799 3.383.998 4.63-.52 6.147-.74.74-.74 1.939 0 2.679a1.89 1.89 0 0 0 2.68 0c3.072-3.073 2.339-6.263 1.544-9.638 2.422.788 4.934.204 6.28-1.494.668-.847 1.96-3.223-.461-7.017a1.9 1.9 0 0 0-2.616-.582c-.883.563-1.14 1.736-.577 2.616.908 1.429.935 2.31.681 2.632-.301.377-1.227.577-2.204.237-.629-.218-2.091-.973-2.091-3.253 0-1.821.842-3.49 2.31-4.574s3.373-1.399 5.21-.825c2.266.692 3.849 3.079 3.849 5.806 0 1.951-.418 3.923-1.212 5.707l-12.411 27.92c-1.02 2.295-1.538 4.734-1.538 7.246 0 3.233 1.47 6.185 3.784 7.987-2.313 1.802-3.784 4.754-3.784 7.987 0 2.513.519 4.952 1.538 7.246l12.409 27.919c.793 1.784 1.212 3.756 1.212 5.707 0 2.728-1.582 5.114-3.849 5.806-1.842.574-3.74.267-5.21-.825-1.468-1.085-2.31-2.753-2.31-4.574 0-2.28 1.462-3.034 2.091-3.253.977-.341 1.902-.145 2.204.237.254.322.227 1.203-.681 2.632-.563.881-.306 2.053.577 2.616a1.89 1.89 0 0 0 2.616-.582c2.421-3.794 1.129-6.169.461-7.017-1.347-1.699-3.858-2.283-6.28-1.494.796-3.375 1.528-6.566-1.544-9.638-.74-.74-1.939-.74-2.679 0s-.74 1.939 0 2.679c1.517 1.517 1.32 2.764.52 6.147-.479 2.026-1.075 4.554-1.075 7.67 0 2.073.728 4.056 1.955 5.685h-.061c-1.047 0-1.895.847-1.895 1.895s.847 1.895 1.895 1.895h.061c-1.227 1.629-1.955 3.611-1.955 5.685 0 3.116.596 5.644 1.075 7.672.799 3.383.998 4.63-.52 6.147-.74.74-.74 1.939 0 2.679a1.89 1.89 0 0 0 2.68 0c3.072-3.073 2.339-6.263 1.544-9.638 2.422.788 4.934.204 6.28-1.494.668-.847 1.96-3.223-.461-7.017a1.9 1.9 0 0 0-2.616-.582c-.883.563-1.14 1.736-.577 2.616.908 1.429.935 2.31.681 2.632-.301.381-1.227.58-2.204.237-.629-.218-2.091-.973-2.091-3.253 0-1.821.842-3.49 2.31-4.574s3.373-1.399 5.21-.825c2.266.692 3.849 3.079 3.849 5.806 0 1.951-.418 3.923-1.212 5.707l-12.41 27.924a17.73 17.73 0 0 0-1.538 7.246c0 3.233 1.47 6.185 3.784 7.987-2.313 1.801-3.784 4.754-3.784 7.987 0 2.513.519 4.952 1.538 7.246l12.409 27.919c.793 1.784 1.212 3.756 1.212 5.707 0 2.728-1.582 5.115-3.849 5.806-1.842.574-3.74.263-5.21-.825s-2.31-2.753-2.31-4.574c0-2.28 1.462-3.034 2.091-3.253.977-.341 1.902-.145 2.204.237.254.322.227 1.203-.681 2.632-.563.881-.306 2.054.577 2.616a1.89 1.89 0 0 0 2.616-.582c2.421-3.794 1.129-6.169.461-7.017-1.347-1.703-3.858-2.285-6.28-1.494.796-3.375 1.528-6.566-1.544-9.638-.74-.74-1.939-.74-2.679 0s-.74 1.939 0 2.679c1.517 1.517 1.32 2.764.52 6.147-.479 2.026-1.075 4.553-1.075 7.669 0 2.969 1.423 5.798 3.802 7.58-2.379 1.782-3.802 4.61-3.802 7.58 0 3.116.596 5.644 1.075 7.672.799 3.382.998 4.63-.52 6.147-.74.74-.74 1.94 0 2.679a1.89 1.89 0 0 0 2.68 0c3.072-3.073 2.339-6.263 1.544-9.639 2.422.788 4.934.204 6.28-1.494.668-.847 1.96-3.223-.461-7.017a1.9 1.9 0 0 0-2.616-.582c-.883.563-1.14 1.736-.577 2.616.908 1.429.935 2.31.681 2.632-.301.381-1.227.577-2.204.237-.629-.218-2.091-.973-2.091-3.253a5.64 5.64 0 0 1 2.31-4.575c1.471-1.088 3.373-1.395 5.21-.825 2.266.692 3.849 3.079 3.849 5.806 0 1.951-.418 3.923-1.186 5.651l-3.764 8.49c-1.475 4.423.024 6.647 1.047 7.576.875.796 2.002 1.214 3.154 1.214.653 0 1.315-.137 1.939-.41.262-.116.478-.284.705-.44.227.157.444.324.705.44a4.83 4.83 0 0 0 1.939.41c1.149 0 2.278-.418 3.154-1.214 1.023-.929 2.522-3.154 1.047-7.576-.746-2.236-3.641-8.234-3.738-8.435-.793-1.784-1.212-3.756-1.212-5.707 0-2.728 1.582-5.114 3.849-5.806 1.843-.57 3.74-.263 5.21.825s2.31 2.753 2.31 4.575c0 2.28-1.462 3.034-2.091 3.253-.973.341-1.905.145-2.204-.237-.254-.322-.227-1.203.681-2.632.563-.881.306-2.053-.577-2.616-.885-.555-2.052-.296-2.616.582-2.421 3.794-1.129 6.169-.461 7.017 1.347 1.698 3.858 2.283 6.28 1.494-.796 3.375-1.528 6.566 1.544 9.639a1.89 1.89 0 0 0 2.68 0c.74-.74.74-1.94 0-2.679-1.517-1.517-1.32-2.764-.52-6.147.479-2.028 1.075-4.556 1.075-7.672 0-2.97-1.423-5.798-3.801-7.58 2.378-1.782 3.801-4.609 3.801-7.58 0-3.116-.596-5.644-1.075-7.672-.799-3.382-.998-4.63.52-6.147.74-.74.74-1.939 0-2.679s-1.939-.74-2.679 0c-3.072 3.073-2.339 6.262-1.544 9.638-2.422-.791-4.934-.209-6.28 1.494-.668.847-1.96 3.223.461 7.017a1.9 1.9 0 0 0 2.616.582c.883-.563 1.14-1.736.577-2.616-.908-1.429-.935-2.31-.681-2.632.3-.381 1.23-.577 2.204-.237.629.218 2.091.973 2.091 3.253 0 1.821-.842 3.49-2.31 4.574s-3.375 1.399-5.21.825c-2.266-.692-3.849-3.079-3.849-5.806a14.14 14.14 0 0 1 1.212-5.707l12.409-27.919a17.73 17.73 0 0 0 1.538-7.246c0-3.233-1.47-6.185-3.784-7.987 2.314-1.802 3.784-4.754 3.784-7.987 0-2.513-.519-4.952-1.538-7.246l-12.409-27.919c-.793-1.784-1.212-3.756-1.212-5.707 0-2.728 1.582-5.114 3.849-5.806 1.843-.569 3.74-.263 5.21.825s2.31 2.753 2.31 4.574c0 2.28-1.462 3.034-2.091 3.253-.973.344-1.905.145-2.204-.237-.254-.322-.227-1.203.681-2.632.563-.881.306-2.054-.577-2.616-.885-.555-2.052-.296-2.616.582-2.421 3.794-1.129 6.169-.461 7.017 1.347 1.698 3.858 2.283 6.28 1.494-.796 3.375-1.528 6.566 1.544 9.638a1.89 1.89 0 0 0 2.68 0c.74-.74.74-1.94 0-2.679-1.517-1.517-1.32-2.764-.52-6.147.479-2.028 1.075-4.556 1.075-7.672 0-2.074-.728-4.056-1.955-5.685h.061c1.047 0 1.895-.847 1.895-1.895s-.847-1.895-1.895-1.895h-.061c1.227-1.629 1.955-3.61 1.955-5.685 0-3.116-.596-5.644-1.075-7.672-.799-3.383-.998-4.63.52-6.147.74-.74.74-1.939 0-2.679s-1.939-.74-2.679 0c-3.072 3.073-2.339 6.263-1.544 9.638-2.422-.788-4.934-.204-6.28 1.494-.668.847-1.96 3.223.461 7.017.563.881 1.727 1.137 2.616.582.883-.563 1.14-1.736.577-2.616-.908-1.429-.935-2.31-.681-2.632.3-.381 1.23-.577 2.204-.237.629.218 2.091.973 2.091 3.253 0 1.821-.842 3.49-2.31 4.574s-3.375 1.395-5.21.825c-2.266-.692-3.849-3.079-3.849-5.806 0-1.951.418-3.923 1.212-5.707l12.409-27.919a17.73 17.73 0 0 0 1.538-7.246c0-3.233-1.47-6.185-3.784-7.987 2.314-1.801 3.784-4.754 3.784-7.987 0-2.513-.519-4.952-1.538-7.246l-12.409-27.919c-.793-1.784-1.212-3.756-1.212-5.707 0-2.728 1.582-5.114 3.849-5.806 1.843-.569 3.74-.263 5.21.825s2.31 2.753 2.31 4.574c0 2.28-1.462 3.034-2.091 3.253-.973.341-1.905.141-2.204-.237-.254-.322-.227-1.203.681-2.632.563-.881.306-2.054-.577-2.616-.885-.555-2.052-.3-2.616.581-2.421 3.794-1.129 6.169-.461 7.017 1.347 1.698 3.858 2.283 6.28 1.494-.796 3.375-1.528 6.566 1.544 9.638a1.89 1.89 0 0 0 2.68 0c.74-.74.74-1.939 0-2.679-1.517-1.517-1.32-2.764-.52-6.147.479-2.028 1.075-4.556 1.075-7.672 0-2.074-.728-4.056-1.955-5.685h.061c1.047 0 1.895-.847 1.895-1.895s-.847-1.895-1.895-1.895h-.061c1.227-1.629 1.955-3.61 1.955-5.685-.004-3.114-.6-5.642-1.078-7.67zm-19.23-8.076c-.673-2.02-.438-3.171.006-3.575.29-.274.73-.263 1.009-.137.342.151.342.392.342.511 0 1.047.847 1.895 1.895 1.895s1.895-.847 1.895-1.895c0-.118 0-.359.342-.511.274-.126.711-.137 1.009.137.445.404.68 1.555.006 3.575-.49 1.465-2.263 5.279-3.251 7.349l-3.253-7.349zm3.251 78.186c.544.739 1.159 1.427 1.907 1.987-.748.561-1.363 1.248-1.907 1.987-.544-.739-1.159-1.427-1.907-1.987.748-.562 1.363-1.248 1.907-1.987zm0 113.69c.544.739 1.159 1.427 1.907 1.987-.748.561-1.363 1.248-1.907 1.987-.544-.739-1.159-1.427-1.907-1.987.748-.56 1.363-1.245 1.907-1.987zm3.251 82.162c.673 2.02.438 3.171-.006 3.575-.298.27-.735.259-1.009.137-.342-.152-.342-.392-.342-.511 0-1.047-.847-1.895-1.895-1.895s-1.895.847-1.895 1.895c0 .118 0 .359-.342.511-.278.122-.718.134-1.009-.137-.445-.404-.679-1.555-.006-3.575.49-1.465 2.263-5.279 3.251-7.349l3.253 7.349zm-1.362-23.328c-.717.558-1.353 1.226-1.889 1.981-.535-.755-1.172-1.422-1.889-1.981.717-.558 1.353-1.226 1.889-1.981a9.33 9.33 0 0 0 1.889 1.981zm10.162-43.153l-12.052 27.116-12.052-27.116c-.793-1.784-1.212-3.756-1.212-5.707 0-2.728 1.582-5.115 3.849-5.806 1.841-.57 3.742-.263 5.21.825s2.31 2.753 2.31 4.575c0 2.28-1.462 3.034-2.091 3.253-.977.341-1.906.145-2.204-.237-.254-.322-.227-1.203.681-2.632.563-.881.306-2.053-.577-2.616-.885-.555-2.052-.296-2.616.582-2.42 3.794-1.129 6.169-.461 7.017 1.372 1.732 3.953 2.328 6.421 1.465.281-.098.566-.218.847-.362v4.792a1.9 1.9 0 0 0-1.894-1.788c-1.047 0-1.895.847-1.895 1.895 0 1.236.864 3.38 3.79 4.044v3.535c0 1.047.847 1.895 1.895 1.895s1.895-.847 1.895-1.895v-3.535c2.925-.664 3.79-2.808 3.79-4.044 0-1.047-.845-1.957-1.891-1.957s-1.891.785-1.891 1.832l-.008-4.772a6.84 6.84 0 0 0 .847.362c2.468.862 5.048.266 6.421-1.465.668-.847 1.96-3.223-.461-7.017a1.9 1.9 0 0 0-2.616-.582c-.883.563-1.14 1.736-.577 2.616.908 1.429.935 2.31.681 2.632-.3.381-1.228.577-2.204.237-.629-.218-2.091-.973-2.091-3.253a5.64 5.64 0 0 1 2.31-4.575c1.471-1.088 3.375-1.399 5.21-.825 2.266.692 3.849 3.079 3.849 5.806a14.11 14.11 0 0 1-1.213 5.705zm0-27.386c.793 1.784 1.212 3.756 1.212 5.707 0 2.728-1.582 5.114-3.849 5.806-1.839.574-3.742.263-5.21-.825s-2.31-2.753-2.31-4.574c0-2.28 1.462-3.034 2.091-3.253.975-.341 1.905-.145 2.204.237.254.322.227 1.203-.681 2.632-.563.881-.306 2.053.577 2.616a1.89 1.89 0 0 0 2.616-.582c2.421-3.794 1.129-6.169.461-7.017-1.373-1.732-3.953-2.321-6.421-1.465-.281.098-.566.219-.847.361v-4.793l.003.006c.057.995.883 1.784 1.891 1.784 1.047 0 1.895-.847 1.895-1.895 0-1.236-.864-3.38-3.79-4.044v-3.535c0-1.047-.847-1.895-1.895-1.895s-1.895.847-1.895 1.895v3.535c-2.925.664-3.79 2.808-3.79 4.044 0 1.047.845 1.957 1.891 1.957s1.891-.785 1.891-1.832l.008 4.772c-.281-.142-.566-.264-.847-.361-2.468-.855-5.049-.267-6.421 1.465-.668.847-1.96 3.223.461 7.017.563.881 1.732 1.137 2.616.582.883-.563 1.14-1.736.577-2.616-.908-1.429-.935-2.31-.681-2.632.298-.381 1.227-.577 2.204-.237.629.218 2.091.973 2.091 3.253 0 1.821-.842 3.49-2.31 4.574s-3.371 1.399-5.21.825c-2.266-.692-3.849-3.079-3.849-5.806 0-1.951.418-3.923 1.212-5.707l12.052-27.116 12.053 27.117zM45.426 257.39c-.717.558-1.353 1.226-1.889 1.981-.535-.755-1.172-1.422-1.889-1.981.717-.558 1.353-1.226 1.889-1.981.535.755 1.17 1.422 1.889 1.981zm10.162-43.152l-12.052 27.116-12.052-27.116c-.793-1.784-1.212-3.756-1.212-5.707 0-2.728 1.582-5.114 3.849-5.806 1.841-.57 3.742-.263 5.21.825s2.31 2.753 2.31 4.575c0 2.28-1.462 3.034-2.091 3.253-.977.344-1.906.145-2.204-.237-.254-.322-.227-1.203.681-2.632.563-.881.306-2.053-.577-2.616a1.9 1.9 0 0 0-2.616.58c-2.42 3.794-1.129 6.169-.461 7.017 1.372 1.732 3.953 2.324 6.421 1.465a6.83 6.83 0 0 0 .847-.361v4.792l-.003-.006c-.057-.995-.883-1.784-1.891-1.784-1.047 0-1.895.847-1.895 1.895 0 1.236.864 3.38 3.79 4.044v3.535c0 1.047.847 1.895 1.895 1.895s1.895-.847 1.895-1.895v-3.535c2.925-.664 3.79-2.808 3.79-4.044 0-1.047-.845-1.958-1.891-1.958s-1.891.785-1.891 1.832l-.008-4.772c.281.143.566.264.847.361 2.468.858 5.048.267 6.421-1.465.668-.847 1.96-3.223-.461-7.017a1.89 1.89 0 0 0-2.616-.58c-.883.563-1.14 1.736-.577 2.616.908 1.429.935 2.31.681 2.632-.3.381-1.228.582-2.204.237-.629-.218-2.091-.973-2.091-3.253a5.64 5.64 0 0 1 2.31-4.575c1.471-1.088 3.375-1.395 5.21-.825 2.266.692 3.849 3.079 3.849 5.806a14.13 14.13 0 0 1-1.213 5.708zm0-27.388c.793 1.784 1.212 3.756 1.212 5.707 0 2.728-1.582 5.114-3.849 5.806-1.839.574-3.742.263-5.21-.825s-2.31-2.753-2.31-4.575c0-2.28 1.462-3.034 2.091-3.253.975-.341 1.905-.145 2.204.237.254.322.227 1.203-.681 2.632-.563.881-.306 2.054.577 2.616.89.559 2.058.303 2.616-.581 2.421-3.794 1.129-6.169.461-7.017-1.373-1.732-3.953-2.324-6.421-1.465-.281.097-.566.218-.847.361v-4.792a1.9 1.9 0 0 0 1.894 1.788c1.047 0 1.895-.847 1.895-1.895 0-1.236-.864-3.38-3.79-4.044v-3.535c0-1.047-.847-1.895-1.895-1.895s-1.895.847-1.895 1.895v3.535c-2.925.664-3.79 2.808-3.79 4.044 0 1.047.845 1.958 1.891 1.958s1.891-.785 1.891-1.832l.008 4.772c-.281-.143-.566-.264-.847-.361-2.468-.858-5.049-.267-6.421 1.465-.668.847-1.96 3.223.461 7.017.563.881 1.732 1.137 2.616.581.883-.563 1.14-1.736.577-2.616-.908-1.429-.935-2.31-.681-2.632.298-.381 1.227-.577 2.204-.237.629.218 2.091.973 2.091 3.253a5.64 5.64 0 0 1-2.31 4.575c-1.471 1.088-3.371 1.399-5.21.825-2.266-.692-3.849-3.079-3.849-5.806 0-1.951.418-3.923 1.212-5.707l12.052-27.116 12.053 27.117zm-13.941-43.151c.717-.558 1.353-1.226 1.889-1.981a9.38 9.38 0 0 0 1.889 1.981c-.717.558-1.353 1.226-1.889 1.981-.535-.757-1.17-1.425-1.889-1.981z"/><circle cx="270.74" cy="235.029" r="45.606"/><path d="M274.167 176.882a3.421 3.421 0 1 1-6.842 0c0-1.889 3.421-10.262 3.421-10.262s3.421 8.373 3.421 10.262zm-6.841 116.303a3.421 3.421 0 1 1 6.842 0c0 1.889-3.421 10.262-3.421 10.262s-3.421-8.372-3.421-10.262zm61.572-54.731a3.421 3.421 0 1 1 0-6.842c1.889 0 10.262 3.421 10.262 3.421s-8.373 3.421-10.262 3.421zm-116.303-6.841a3.421 3.421 0 1 1 0 6.842c-1.889 0-10.262-3.421-10.262-3.421s8.373-3.421 10.262-3.421zm101.69-35.28a3.421 3.421 0 1 1-4.838-4.838c1.336-1.335 9.675-4.838 9.675-4.838s-3.5 8.34-4.837 9.676zm-87.076 77.401a3.421 3.421 0 1 1 4.838 4.838c-1.336 1.337-9.675 4.837-9.675 4.837s3.501-8.339 4.837-9.675zm82.239 4.837a3.421 3.421 0 1 1 4.838-4.838c1.337 1.336 4.838 9.675 4.838 9.675s-8.341-3.501-9.676-4.837zm-77.402-87.076a3.421 3.421 0 1 1-4.838 4.838c-1.337-1.336-4.838-9.675-4.838-9.675s8.34 3.502 9.676 4.837zm19.608-11.496a3.421 3.421 0 0 1-6.321 2.617c-.723-1.746-.767-10.79-.767-10.79s6.365 6.427 7.088 8.173zm38.187 110.069a3.421 3.421 0 1 1 6.321-2.617c.723 1.746.767 10.79.767 10.79s-6.366-6.426-7.088-8.173zm35.94-74.127a3.421 3.421 0 1 1-2.617-6.321c1.746-.723 10.789-.767 10.789-.767s-6.426 6.364-8.172 7.088zm-110.068 38.185a3.421 3.421 0 0 1 2.617 6.321c-1.746.723-10.79.767-10.79.767s6.427-6.364 8.173-7.088zm80.448-71.509A3.421 3.421 0 0 1 289.84 180c.723-1.746 7.087-8.172 7.087-8.172s-.043 9.044-.766 10.789zm-50.828 104.834a3.42 3.42 0 0 1 4.469-1.852c1.745.723 2.574 2.724 1.852 4.469s-7.087 8.172-7.087 8.172.043-9.045.766-10.789zm77.829-27.003a3.421 3.421 0 1 1 2.617-6.321c1.746.723 8.172 7.087 8.172 7.087s-9.043-.042-10.789-.766zM218.33 209.62a3.421 3.421 0 1 1-2.617 6.321c-1.746-.723-8.172-7.087-8.172-7.087s9.045.042 10.789.766zm44.428-32.288a3.421 3.421 0 1 1-6.71 1.334c-.369-1.853 1.353-10.732 1.353-10.732s4.988 7.545 5.357 9.398zm15.979 115.403a3.421 3.421 0 1 1 6.71-1.334c.369 1.853-1.353 10.732-1.353 10.732s-4.989-7.544-5.357-9.398zm49.712-65.691a3.421 3.421 0 1 1-1.334-6.71c1.853-.369 10.732 1.353 10.732 1.353s-7.545 4.988-9.398 5.357zm-115.404 15.98a3.421 3.421 0 1 1 1.334 6.71c-1.853.369-10.732-1.353-10.732-1.353s7.545-4.988 9.398-5.357zm92.853-54.441a3.421 3.421 0 0 1-5.688-3.802c1.049-1.57 8.545-6.632 8.545-6.632s-1.807 8.862-2.857 10.434zm-70.303 92.901a3.421 3.421 0 1 1 5.688 3.802c-1.049 1.57-8.545 6.632-8.545 6.632s1.808-8.861 2.857-10.434zm81.603-11.299a3.421 3.421 0 0 1 3.802-5.688c1.571 1.049 6.632 8.545 6.632 8.545s-8.863-1.808-10.434-2.857zm-92.902-70.303a3.421 3.421 0 1 1-3.802 5.688c-1.571-1.05-6.632-8.545-6.632-8.545s8.864 1.808 10.434 2.857zm16.987-15.101c1.049 1.571.627 3.695-.943 4.745s-3.695.627-4.745-.943-2.857-10.433-2.857-10.433 7.496 5.062 8.545 6.631zm58.927 100.505c-1.049-1.571-.627-3.695.943-4.745s3.695-.627 4.745.943 2.857 10.433 2.857 10.433-7.495-5.06-8.545-6.631zm20.789-79.716c-1.57 1.049-3.695.627-4.745-.943s-.627-3.695.943-4.745 10.433-2.857 10.433-2.857-5.06 7.496-6.631 8.545zm-100.504 58.927c1.57-1.049 3.695-.627 4.745.943s.627 3.695-.943 4.745-10.433 2.857-10.433 2.857 5.06-7.495 6.631-8.545z"/><path d="M285.447 178.667a3.421 3.421 0 1 1-6.71-1.334c.369-1.853 5.357-9.397 5.357-9.397s1.721 8.877 1.353 10.731zm-29.4 112.734a3.421 3.421 0 1 1 6.71 1.334c-.369 1.853-5.357 9.397-5.357 9.397s-1.721-8.877-1.353-10.731zm71.067-41.667a3.421 3.421 0 1 1 1.334-6.71c1.853.369 9.398 5.357 9.398 5.357s-8.879 1.721-10.732 1.353zM214.38 220.333a3.421 3.421 0 1 1-1.334 6.71c-1.853-.369-9.398-5.357-9.398-5.357s8.879-1.721 10.732-1.353zm163.647 26.7c-1.336-.562-2.863.082-3.42 1.41-.01.031-.062.154-.151.364-1.977 4.618-6.067 11.367-10.197 17.716 3.847-12.383 7.363-25.609 7.609-26.539.367-1.389-.455-2.815-1.842-3.192a2.62 2.62 0 0 0-3.206 1.818c-1.795 6.432-5.466 14.897-8.853 22.063a281.85 281.85 0 0 0 .746-15.928 2.62 2.62 0 0 0-2.504-2.652c-1.331.041-2.615 1.012-2.72 2.426-3.349 46.068-47.678 66.676-51.995 68.572-2.258.225-12.777 1.41-22.324 4.725-1.084.376-2.004.753-2.922 1.127-.341-.128-.707-.2-1.092-.177-29.302 2.12-52.666-9.9-69.458-35.652-12.687-19.458-16.666-39.882-16.705-40.086-.268-1.42-1.628-2.335-3.054-2.084-1.42.27-2.353 1.634-2.084 3.054.106.564 1.852 9.479 6.66 21.212-6.433-10.155-10.916-22.457-12.494-28.864-.032-.128-.114-.225-.162-.343-.073-.181-.136-.363-.245-.52-.077-.111-.178-.192-.269-.289-.143-.151-.28-.299-.455-.412-.1-.065-.212-.097-.321-.148-.193-.09-.382-.179-.597-.218-.149-.029-.301-.01-.456-.013s-.305-.042-.465-.014c-.035.006-.062.03-.097.038s-.066-.004-.1.003c-.14.034-.247.122-.375.177-.163.071-.33.124-.473.223s-.246.223-.363.344-.239.226-.331.365-.143.3-.209.457-.136.297-.169.462-.019.343-.018.52c0 .141-.039.276-.014.42.01.061.03.124.041.184v.01l.01.038c1.618 9.533 5.474 19.415 8.961 26.951-5.537-6.283-10.164-13.523-11.804-17.809-.047-.125-.142-.212-.206-.324-.097-.173-.182-.35-.313-.493-.093-.102-.206-.168-.312-.253-.159-.128-.31-.257-.494-.345-.118-.056-.246-.074-.371-.113-.193-.058-.38-.122-.585-.135-.161-.011-.321.03-.484.051-.151.019-.3 0-.45.047-.029.009-.049.032-.076.042s-.056.003-.084.014c-.142.054-.243.159-.37.234-.149.088-.308.161-.435.275s-.22.262-.322.401c-.097.131-.205.248-.277.394-.075.153-.103.319-.146.484s-.1.311-.111.48.03.338.052.509c.019.148-.001.295.045.441 2.846 9.18 9.69 20.102 15.052 27.796a60.5 60.5 0 0 1-8.705-8.291l-.307-.367a2.62 2.62 0 0 0-3.668-.363c-1.113.909-1.288 2.545-.388 3.662a25.55 25.55 0 0 0 .572.69c3.924 4.67 8.199 9.027 12.072 12.705l-5.298-2.258c-1.208-.521-2.628-.051-3.29 1.098a2.62 2.62 0 0 0 .697 3.402c.515.383 9.898 7.392 18.02 11.534-.766.046-1.665-.01-2.671-.087-1.228-.118-2.436.761-2.735 2.007s.36 2.529 1.548 3.019c.2.082 2.675 1.103 5.731 2.191a2.61 2.61 0 0 0-.32 4.684 78.1 78.1 0 0 0 8.546 4.158 2.69 2.69 0 0 0-.296.618 2.62 2.62 0 0 0 1.004 2.963c.794.546 18.559 12.602 39.307 12.602 1.362 0 2.738-.051 4.122-.163 1.438-.113 2.514-1.374 2.399-2.815s-1.364-2.529-2.817-2.396c-13.034 1.063-25.591-3.831-33.059-7.571.986-.241 1.553-.46 1.694-.516a2.62 2.62 0 0 0 1.591-2.902c-.225-1.222-1.277-2.115-2.521-2.141-3.032-.062-7.231-1.538-10.848-3.122 1.366-.684 2.164-1.339 2.234-1.395.787-.659 1.119-1.711.851-2.702a2.62 2.62 0 0 0-2.104-1.89c-1.111-.184-2.495-.542-3.946-.981 1.41-.812 2.01-1.706 2.24-2.161a2.62 2.62 0 0 0 .023-2.304 2.61 2.61 0 0 0-1.809-1.426c-.684-.148-1.459-.398-2.296-.725.153-.153.294-.327.408-.526.666-1.129.391-2.58-.643-3.392-.054-.041-2.084-1.635-5.158-4.286a2.59 2.59 0 0 0 1.231-.96c.659-.95.612-2.222-.11-3.122-.058-.072-2.091-2.628-4.893-6.51.925.718 1.849 1.452 2.773 2.046a2.64 2.64 0 0 0 1.415.414 2.61 2.61 0 0 0 2.315-1.411c1.587 1.695 3.254 3.234 5.005 4.547.228.171.505.168.761.254.742 1.244 1.514 2.49 2.324 3.736 15.883 24.438 38.278 37.528 65.138 38.314-2.473 1.502-5.158 3.054-9.409 4.71-.928.362-1.748.724-2.572 1.087-.398.078-.771.222-1.084.469-7.42 3.435-10.492 6.829-11.738 9.203-1.244 2.36-.171 4.781 1.348 6.038.472.388 1.073.587 1.676.587.414 0 .828-.092 1.203-.281.925-.46 1.543-1.436 1.502-2.462.107-.118.562-.495 1.987-.542 1.039-.087 3.226.148 5.778.353l8.436.586-4.188 4.875c-.676.787-.825 1.9-.375 2.835a2.63 2.63 0 0 0 2.447 1.486l4.393-.132c.804 1.053 1.791 1.471 2.426 1.634 1.799.46 3.591-.26 4.942-1.113 1.022.736 2.044 1.047 2.854 1.164 1.826.25 3.518-.281 4.74-.884 1.267.818 2.508 1.027 3.454 1.027h.043c2.04-.01 3.826-.996 5.09-1.962 1.117.664 2.184.878 3.009.915 1.873.066 3.425-.654 4.457-1.329 3.686.74 6.863-.996 8.963-2.912.958.557 1.869.695 2.595.659 1.867-.066 3.289-1.201 4.202-2.217 4.179.505 7.178-.266 8.911-2.324.946-1.119 1.329-2.38 1.433-3.53 11.594-.066 12.643-6.396 12.728-7.178a2.61 2.61 0 0 0-2.441-2.891l-30.396-1.828c-1.272-.092-2.407.761-2.702 2.003-.006.021-.523 1.951-2.145 3.495-2.181 2.083-5.695 3.183-9.516 3.766a2.62 2.62 0 0 0-.169-1.054c-.521-1.348-2.038-2.003-3.382-1.497-6.275 2.435-16.435 2.129-24.383 1.576 1.219-.996 2.687-1.983 3.86-2.627a2.62 2.62 0 0 0 1.313-2.779c-.152-.809-.737-1.372-1.442-1.734 2.21-1.116 4.022-2.194 5.741-3.242 2.984-1.828 5.803-3.55 10.937-5.333 9.91-3.443 21.379-4.49 21.494-4.501.26-.02.516-.087.759-.184.408-.169 32.758-13.721 47.999-44.991a29.64 29.64 0 0 1-.647 2.564 2.61 2.61 0 0 0 1.486 3.182 2.62 2.62 0 0 0 2.79-.49c-.963 2.539-1.834 4.536-2.545 5.716a2.62 2.62 0 0 0 .792 3.535 2.75 2.75 0 0 0 .868.373 82.95 82.95 0 0 1-3.569 4.859 2.62 2.62 0 0 0 .082 3.357c-2.049 2.145-3.864 3.913-5.244 5.037-.902.73-1.195 1.952-.781 2.994-1.331.761-2.424 1.298-3.182 1.527-1.272.383-2.053 1.665-1.813 2.973.125.69.513 1.272 1.049 1.655-1.599.429-3.349.843-5.249 1.22-1.07.214-1.895 1.067-2.071 2.145a2.62 2.62 0 0 0 1.284 2.692c.082.046.975.552 2.343 1.134-5.059 2.038-14.094 4.7-28.919 6.161a2.62 2.62 0 0 0-2.345 2.861c.14 1.436 1.382 2.432 2.86 2.35 28.142-2.784 36.832-9.828 37.187-10.131a2.62 2.62 0 0 0 .812-2.799 2.61 2.61 0 0 0-1.288-1.523c8.991-2.83 12.851-5.962 13.052-6.13a2.62 2.62 0 0 0 .585-3.341c-.654-1.109-2.015-1.589-3.203-1.109-.334.128-.868.26-1.543.393 6.034-4.132 12.439-9.053 15.256-11.249a28.26 28.26 0 0 0 1.341-1.053c1.094-.919 1.247-2.543.345-3.652a2.62 2.62 0 0 0-3.647-.404l-1.272.996c-1.3.966-2.963 2.059-4.777 3.182 6.848-7.775 13.741-16.204 15.711-18.625l.534-.659c.904-1.124.728-2.769-.396-3.673-1.127-.919-2.774-.73-3.676.388l-.006.005-.002.006c-.049.056-.27.332-.643.792-2.063 2.518-4.235 4.956-6.378 7.233 6.976-12.643 12.258-25.088 13.032-26.932l.082-.2c.556-1.321-.074-2.854-1.408-3.406zm-122.59 88.168l.714.093c-.876.819-1.588 1.737-2.155 2.685l-3.252-.227c1.217-.796 2.783-1.658 4.693-2.551z"/></g></svg>