<svg xmlns="http://www.w3.org/2000/svg" viewBox="0 0 100 100" preserveAspectRatio="xMidYMid" xmlns:v="https://vecta.io/nano"><defs><clipPath id="A"><circle cx="50" cy="50" r="35"/></clipPath></defs><circle cx="50" cy="50" r="35" fill="#009ef7"/><g clip-path="url(#A)"><path transform="matrix(2 0 0 2 -50 -50)" fill="#dbfb54" d="M64.4 74.4c.3.3.2.3-.3.3 0-.4.1-.2.3-.3zm-33 1c-.2.1-.3-.2-.5.1.3.2.6.1.8-.1-.1-.2-.1 0-.3 0zm53.5-38.5c-.3.2-.8-.1-1.1-.5.1.2.1.6.3.9-.5.2-.2.6.2.7v-.4c.2.1.4.2.5.3.2-.2.2-.3.4-.5-.1-.2-.2-.4-.3-.5zm.2 3.7c0-.6-.1-2.1-.6-2.4-.6-.4.5 2.1-.6 1.6 0 .2-.1.5 0 .7-.8-.3-.9.5-1.4.9.3.3.4.6.6.9.3-.4.2-.9-.3-1.2.2 0 .4-.2.6-.2s.6.2.6.2c.2-.1.5-.4 1.1-.5zm-1.4.4c-.4-.1-.7.2-.3.6.2-.4 0-.1.3-.2.1-.2-.1-.3 0-.4zm9.8 21.8c.1.5.3.9.7.8-.1-.3-.4-.6-.7-.8zm-.5 8.4c-.1-.1-2.5 1.6-2.9 2.1.8.5 2.9-1.2 3.1-2.1-.2.3-.3 0-.2 0zm2-1.3c-.4.2-.6 0-.5-.4 0 .1-.1.2-.1.3.1-.5.1-.8-.1-1.1-.3.7.1 1.4-.7 2 .3.3.3.4-.1.7.1 0 .1.1.1.2.3-.3 1.4-1.4 1.4-1.7zM82 50.6c.2-.2.3-.2.3-.5-.1 0-.3-.1-.4-.1 0 .2 0 .4.1.6zm.4 0c-.3-.4-.2.1-.1.5.2-.3.3-.5.2-.9 0 .2-.1.3-.1.4zm.4-.9h-.3c0 .1.2.4.2.5h-.2c.1.2.1.3.2.5.1-.2.1-.2 0-.5.1 0 .2.1.2.1.1-.2 0-.4-.1-.6zM81 51c.2-.3.3-.4.2-.8-.1.5-.4.8-.6 1.2.2-.1.3-.3.4-.4zm.2-2.4c.1.2.1.5.3.3 0 .4.3.6.6.6 0 0 0-.1.1-.1a.78.78 0 0 0 .4.4c0-.7-.6-.5-.8-1-.2-.4.2-.9 0-1.4-.5-.1-.6.3-.4 1l-.1-.1c-.2 0-.2.1-.1.3zm2.1 3.6c.1-.5.1-1.1-.3-1.4v.3c-.4.2-.9.1-.9.8.7-.7.4.2 1 .5 0-.2.1-.5.1-.7 0 .3.1.4.1.5zm-1.8-2.6c.1-.1.3-.1-.2-.3.1.1.2.2.2.3zm10.3 7.8c.1.1 0 .2.2.1-.1-.2-.2-.5-.3-.7-.1.2 0 .3.1.6zm-1.6-.1c.4-.1 1.1-.5.6-.9-.1.4-.2.6-.4.3-.1 0-.5.2-.5.3 0 .2.1.2.3.3zm.7-1.2c.1.2.2.3.2.5.1-.5-.2-.8-.6-.8a1.38 1.38 0 0 1 .4.3zm-.6 2.9c-.2-.4-.7-.7-1-1.6h.3c-.7-.7-1.4-1.7-2.5-1.8-.5-.1-1 .5-1.3.3-.5-.2-.1-1.4-1.2-.8.3.4.6.5.9.6-.2 0-.3.1-.5.1.1.2.2.4.3.5.1 0 .2-.2.2-.2.6.5 2 1 1 2 .6-.3.7.4 1.2.3.4-.1.4-.5.6-.5.9 0 1.2 1 2 1.1zm2.9-.5c-.1.1-.2-.2-.2.1.3.2.2 0 .2-.1zm-.8-.8s-.1-.2-.2-.3c0 .2.1.2.2.3zm.5.3l.2.2c-.2-.2-.3-.3-.5-.4.1 0 .2.1.3.2zm.6 1.1c.1-.2.1-.3 0 0zm0-.4c0-.2 0-.4-.2-.6 0 .2.1.4.2.6zM81 45.9c.1-.5.2-1-.1-1.3a.94.94 0 0 0 .1 1.3zM94.8 61s.1-.2 0-.4c-.1.2 0 .5 0 .4zm0 .2c.1.1 0 .3.2.1-.1-.2-.2-.1-.2-.1zM29.5 76.3c-.4-.8-.5-.2-.7-.2.2 0-.3.2-.3.2-.2 0-.6-.3-.9-.4.9.9 1.9 1.2 2.6.7-.2 0-.4-.2-.7-.3zm60.1-11.9c0-.2-.2-.3-.1-.7-.2 0-.1-.1-.3 0 .1-.8-.5-1.1-.7-1.7-.1-.5 0-1-.2-1.6l-.2.2c0-.5-.1-1.1-.2-1.6-.5.9-.5 3.8-1.7 2.2-.3-.5-.4-.2-.4-.8 0-.3.4-.5.4-.7 0-.1-1.1-.4-1.4-.5.3.3-.7.7-.8 1.5-.5-.2-.7-.4-1.1-.2-.4.1-.7.9-.7 1.1l-.1.1c0-.1 0-.2-.1-.3-.4.8-.6 1.1-1.3 1.4-.6.3-1.1.4-1.6 1v-.3c-.3.6-.5 1.1-.3 1.8-.1-.1-.1-.2-.2-.3v.4c0-.1-.1-.1-.1-.2.1 1 .1 1.7 0 2.7 0 .4-.6.5 0 .9.4.2.7-.3 1-.4l2.3-.7c1.4-.5 1.7-.2 2.1 1.1.2-.3.5-.6.8-.8-.1.4-.3.7-.6 1 .2-.1.3-.2.5-.4-.1.2-.1.3-.2.5.5.2.5 2.1 1.5.9 0 .1-.1.1-.1.2 1.1 1.1 5-4.1 3.8-5.8zm-3.7 6.9c-.4-.2-1 .2-.7.8.2.6.9-.4 1.1-.9-.1 0-.2 0-.4.1zm-61.3-27c0-.2.2-.3-.1-.5 0 .2.1.4.1.5zm-.4.6c.1.1.1.2.1.4.1-.2.1-.3 0-.6-.2-.1 0 .1-.1.2zm.2-1c-.2 0-.3-.1-.3.2.2 0 .3-.2.3-.2zm11.8 13c-1-.3-1.6-1.5-2.7-1.1 0-.7-.8-.9-1.2-.6 0-.4-.4-.5-.5-.8-.1-.1-.1-.7-.2-1-.3-.7-.6-.8-1.2-1.1s-.6-.2-1.1-.8a4.74 4.74 0 0 0-1-1c.1 0 .2-.1.3-.1-.9-.2-1.7.6-2.3-.6-.4.3-.4.8-.6 1.2v-.9c.4-.6-.1-.2-.5.1-.3.2-.7.9-1 1l-1.6-.3c-.8-.7.1-1.4-.1-2.2s-1.1-.3-1.6-.5c.2-.3.3-.7.3-1.1.1 0 .1 0 .1.1.2-1.2.5-1.7-.7-.8-.6.5-1.3 1.5-1.8 0-.3-.8 0-2.4.4-3.1.7-1.1 1.6-.5 2.3-.6-.1-.7 1.4-.4 1.6-.3.2.3.2 2.8.8 1.6.5-1-.4-1.7.5-2.7.6-.7 2-1.1 1.3-2.2.1 0 .1 0 .2.1 0-.2 0-.3.1-.4 0 .4 0 .4-.1.8.3-.4.3-.4.3-.9.1.1.1.1.1.2.2-.3.4-.5.4-.7 0 0 .4-.1.6-.1h-.5c.4-.2.8-.2 1.1-.4h-.2c-.1-.9 1.4-1.5 1.9-1.4-.5.2-.4.3-.6.7.5-.1 1.4-.5 1.9-.9 0-.1-.1-.3-.1-.4-.6 1.2-1.7-.1-.8-.7-.7-.6-1.3.5-2 .8.5-.5 1.1-1.2 1.7-1.3.8-.2 1.5.2 2.2-.4 1.2-.9.1-1.1-.6-1.9.2-.5-.1-.9-.2-1.5-.5.5-1.8 1-1.1-.3-.5 0-.6-.4-1.2-.4-1 0-.4.7-1.2 1.3.6.8-.3 1.4-.9 1.5.6 1.6-1.5 1.4-.5-.2-.8 0-1.4-1-2.2-.7 0-.6.1-.4-.3-.7.5-1.3 2.5-2.2 3.5-2.7.3-.1 1.4-.2 1.3-.9-.2-1-1.3.4-1.7.6.1-.2 0-.2.1-.5-.2 0-.2-.2-.6 0 .1-.1.1-.2.2-.3-.1 0-.2 0-.4-.1.7-.6-.4-1-.8-.1.5.5-.1.7-.5 1 .1-.1.1-.2.2-.3-.5-.2-1 .1-1.6 0-.4-.1-.7-.4-1.2-.1l.1.1c-.4.1-1.1.1-1.7 0 .1-.1.3-.1.4-.2-.6-.3-1.5-.7-2.1-.3.1-.1.1-.2.2-.3-.4.3-.9 0-1.4 0-.6.1-1.2.4-1.8.4s-2.5-.4-2.7-.6c-1.3-.2-2.7.3-4 .8.3.2.3.4.4.8h-.5l.2-.2c-.4 0-.9.2-1.3.3.2.7.9.5 1.4.3-.3.5-.9.4-1.5.6-.5.2-1.4 1.3-.4 1.1-.1.1-.1.3-.3.5.2-.1.3-.1.5-.1 0 .1 0 .1-.1.2.1 0 .1-.1.2-.1v.2c.2-.1.4-.1.6-.2-1 .9-2.2 1-3.2 1.7 2.1-.4 3.5-1.8 5.4-2.6-.3.1-.7.4-.8.8.8-.2 1.2-.4 1.9-.4.8.1 1.3.9 2.1.8-.1.6-.1 1.8.3 2.2-.6.8 1.3 1 .4 2-.2-1.2-.9 1-1.2 1.6-.4.8-.5 2-.2 2.8.2.4 1.7 3 .9 3.3.6.7.6 1.2 1 2 .6-.7-1.1-2.5-.6-3.6.4.2.8 1.8 1 2.3l.8 1.6c.1.7-.2.6.2 1.3.2.4.9.7 1.3.9.5.3 1 .1 1.3.2.8.3 1.4 1.1 2.1 1.3H21c.4.5.5.9.7 1.3.1-.1.1-.1.1-.2.4.6.9 1.2 1.4 1-.1-.8.3-.4.5-.1.3.5.3 1.3.2 1.7-.2.7-1.6 1.6-.9 2.5 0-.1.1-.1.1-.2 0 .6-.4.8-.3 1.5.1.3.7 1.2.9 1.6.3.7.5 1.6 1 2.1.5.6 1.3.7 1.6 1.4s.2 2 .2 2.8c0 1 .2 1.8.2 2.7.1 1.2-.5 3.5.3 4.4v-.5c.3.3.2.4.3.9-.1 0-.2-.1-.3-.1 0 .5 0 .6-.1 1 .1 0 .3.1.4.1-.8 1.1.7 2.6 1.6 2.7-.1-.5.1-.6.6-.6-.6-.4-.2-.6-.2-1 0-.2.3-.7.3-.7 0-.2-.3-.5-.3-.4 0-.1-.3-.3-.3-.6 0-.2.4-.2.4-.2.1-.5-.2-.7.3-1 0-.1-.1-.1-.1-.2-.8 0 0-.5 0-.4.1-.3.5-.3.1-.9 1.8.4 1.2-1.1.8-2 1 .9 1.4 0 1.9-1 .6-1.3.3-2.4 1.5-3.2.7-.5.7-.1 1.1-1 .3-.8.3-1.4.4-2.2 0-.8 1.2-2.2.8-3.6zm-12-30.7c-.2 0-.3-.1-.5 0 .2.4.2.1.5 0zm-1.8-.9c-.2.1-.4.2-.5.3.4.1.8 0 1.2 0-.2 0-.4.2-.6.2.5 0 1.7 0 2-.5h-.4c0-.1 0-.2.1-.3-.4.1-.3-.1-.4.4-.5.1-1-.2-1.4-.1zm1.8 2c-.5-.1-.6-1.9-1.2-.5 0-.6-.7-.4-1.2-.3l.2-.2c-.5-.1-1.1.2-1.5.5.2 0 .4.1.7.1-.2 0-.4.1-.6.1.3.2.8.1 1.2.2-.4 0-.8.1-1.2.1.6.8 3 .6 3.6 0zm-.2-2.4c0-.3-.3-.1-.7 0 .3.1.5 0 .7 0zm-2.4.5c.4-.1.9-.1 1.2-.5-.6 0-1.2.2-1.8.5h.6zm10.8 9.4c-.1 0-.2.2-.3 0l.1-.1h-.4c.2-.2.3-.5.5-.7-.6.1-1.2 1.1-1.3 1.6.3 0 .7 0 1 .1l-.2.2c.1-.1.4-.2.5-.3 0 .1 0 .2-.1.4.4 0 .5-.3.4-.7-.1 0-.1 0-.2.1 0-.1.1-.2.1-.3.1-.2 0-.2-.1-.3zM14 35c.7.6.5-.1.2-.5-.5-.4-.7.1-.2.5zm5.6-7.9c.8-.1 1.5-.7 2.3-.8-.9-.9-1.9 0-2.6.5.2 0 .2.2.3.3zm8.1 2.3c-.8-.6-.7-.5-1.6.2.1 0 .4.2.3.2.6-.4 1.2-.1 1.3-.4zm-14.4 3.7c-.2.2-.3.4 0 .7.1-.2.2-.5.3-.7h-.3zm14.2-3c.1 0 .1.3.2-.1-.1 0-.1.1-.2.1zm2.3 5.9c-.1 0 0-.3-.2-.1.3.2.2.2.6.1-.1.1-.3.1-.4 0zm-3.1-6c.2 0 .3.1.6-.2-.3 0-.4.1-.6.2zm3.8 5c-.2-.2-.3-.3-.6-.3.2.2.4.2.6.3zM27 25.3c0 .2.1.2 0 .5.7.2 2.2.4 2.7-.2-.7-.3-1.4.1-2.1-.2l.1-.1c-.4-.2-.8-.3-1.3-.1.3.1.4.1.6.1zm-.2-.4h.5c-.1-.1-.4 0-.5 0zm.7-.5h.4c-.1.1-.2.1-.3.2.6.4 1.2 0 1.8-.2-.5-.6-1.3-.6-2-.2-.1.2 0 0 .1.2zm-1.2 1.4c.2 0 .3.1.5-.1-.2-.1-.7-.3-.5.1zm.7-1c-.1-.2-.1-.3-.5 0 .3.1.3-.1.5 0zm2.7 1.6h.5c-.2-.3-.6-.4-.9-.2.1.3.1.2.4.2zm-2.8-.4c-.5-.1-.9.1-1 .7.5-.1 1-.3 1.4-.6-.2 0-.3-.1-.4-.1zm4.6 1.3c-.4-.3-.7-.5-1.2-.4-.2-.6-.9-.4-1.3-.2.3-.8-.6-.5-1-.2 0-.1 0-.1-.1-.2.1-.1.2-.1.3-.2-.6 0-1.1.2-1.4.8h.3c0 .1-.1.1-.2.2.6.3 2.7.1 2.5.6.8.1.7.4.2.9-.3.3-.9.1-1.3.6.5.2.9-.2 1.4.3l-.1.1c.4.3.8.5 1.2.5-.1-.2-.2-.5-.4-.7 1.4 1.5.5-.9.4-.7.3-.6.9.8 1.6-.4-.5-.1-.8-.5-1.3-.6.2-.1.3-.1.5-.2 0 0-.1-.1-.1-.2zm-5.8-2.6c.2.1.4.1.6.1-.1-.4-.5-.5-.9-.3.1 0 .1 0 .2.1-.1 0-.2.1-.3.1h.4zM29 24c.5.1.9.1 1.4.1-.3.1-.7.1-1 .1.1.2 0 .1.2.3-.2.1-.5.2-.8.3a1.38 1.38 0 0 1 .4.3c-.4-.2-.8 0-1.1.3.7.1 1.9.3 2.5-.2h-.4c.4-.3 1-.4 1.2-.7h-.3c.9 0 1.8-.4 2.7-.6h-.4c.4-.1.9-.1 1.3-.3-1.6-.4-4.4-.4-5.9.3.1-.1.1 0 .2.1zm.5 4.2c-.2-.3-.3-.3-.5.2.3 0 .4-.1.5-.2zm-5.1-3.6c-.2 0-.4-.1-.6.1.2 0 .4-.1.6-.1zm.6 2.8c-.2 0-.4 0-.7.2.3.2.6.2.9.1 0-.3-.1-.2-.2-.3zm-.6-.9c.4.5.9.5 1.3 0-.1 0-.2-.1-.2-.1.2-.1.2-.1.3-.3-.4 0-.9-.1-.9.3-.2 0-.3.1-.5.1zm.9-.8c.4.2.9-.1.9-.5-.4 0-.8 0-1.1.4.4-.2.2.1.2.1zm52.8 21c-.7.3-.2.9 0 .7.3-.4.3-.6 0-.7zm-53.4.1c.2 0 .3 0 .4-.2-.8-.5-2-1.9-3-.7l.9-.3-.1.1c.6.3 1 .3 1.4.8-.1.1-.1.2-.2.2.2 0 .4.1.6.1zm31-6.3c-.1.1-.2.1-.4.1.4.2.3.1.6-.2 0 0-.1 0-.2.1zm-6.2-7.7c.1-.4.2-.6-.3-.4 0 .3.1.3.3.4zm-.6 5.3c0-.3.1-.4 0-.7-.3.3-.1.4 0 .7zm-3.8-5.5c.1-.1.1-.3.2-.1 0 .1.4.4.4.6 0 .4-.6-.1-.3.6-.1 0-.2.1-.3.1.1 0 .3.2.5.2-.2.1-.4.3-.6.5.7 0 1.9 0 1.9-1-.6-.2-.6-1-1.2-1.2.2-.2.2-.5.3-.6h-.5c.1-.1.2-.3.3-.4-.8-.1-.9.7-.7 1.3zm8.2 7.9c-.2 0-.2.1-.4-.1v.2c.3.1.5.2.8 0-.2-.1-.2-.1-.4-.1zM41.5 27.3h-.9c0-.1.2-.4.2-.4.3.3.4.3.8.3-.2-.3-.2-.4-.6-.6h.5c-.1-.1 0-.2-.2-.4.3 0 .5-.1.7-.2 0 0 0 0-.1 0h.5c-.1-.1-.2-.2-.2-.3.3-.2.3-.2-.1-.5.2 0 .5-.1.7-.1-.3-.4-.2-.7.3-.9h-.5c.5 0 1-.2 1.6-.3-.6-.3-1.5-.1-2.1 0 .1-.1.2-.1.2-.2-.6-.1-1.3-.1-1.9-.1.7 0 1.5.1 2.2-.1-1.4-.2-3.8-.7-5 .1.1 0 .3.1.4.1-1.6-.3-3.3-.2-4.8.4.2 0 .3.1.5.1-.6.3-1.4.1-1.9.5.4.1.8.2 1.2.2-.3 0-.7 0-1 .1.2.2 4.1.7 2.5 1.7.3.1.5.2.8.4-.9-.5-1 .9 0 .2-.6 1-1.2.7-.8 2.1.2.7.5.9.9 1.1.7.4.6.2 1.1-.4.1-.1.4-.9.6-1.1.4-.3.8-.2 1.1-.4 1.1-.4 2.2-.7 3.3-1.3zM25.3 47.4c.3.1.4-.1.6.3.2-.4.6-.3.9-.4-.3-.4-.9-.7-1.4-.4.2.2.1.2.3.4-.2 0-.3.1-.6 0-.1.3 0 .1.2.1zm55.5 10.9c.1 0 .2-.1.3-.1-.1-.2-.4-.2-.6.2.1 0 .2-.1.3-.1zm1.7-1.7l-.5-1.1c.2-.1.3-.3.5-.3V55c-.4.2-1.4.1-.8-.4.5-.4 1.2.5 1.3-.5-.4.6-.9 0-1.3.2-.3.2-.5 1.1-.5 1.5 0 0 .3 1.2.2 1.2.4.2.2-.9.4-1.2 0 .4.1.6.2.9.1-.1.2-.1.3-.2-.1.3 0 .3 0 .5.2-.1.1-.2.2-.4zm-4-1.3c.1.8 1.5 1.1 1.9 1.1.1-.7.3-1.8.9-2-.6-.8-.4-1.3 0-1.8-.4-.2-.5-.6-.8-.5s-.6.9-.8 1.1c-.6.7-1.8.8-1.2 2.1zm7.3 1.8c-.1.1-.2 0-.2.5.2-.2.1-.4.2-.5zM83.6 56h-.3c.3.5.2.1.3 0zm-2 2.9c-.1-.2-.1-.4-.5-.3.2.2.3.2.5.3zm.7-.7c-.1-.2-.5-.1-.8.1.2.1.5 0 .8-.1zm-3.6-.2c.5.1 1 .2 1.5.1-.6-.3-2.6-1.5-3-.6.5.2 1 .3 1.5.5zm-1.3-1.5c.3-1-2-4.1-3.1-3.9.4.9 1 1.6 1.5 2.5.2.3 1.7 3.2 1.6 1.4zm6.8-.4c.2.1.3 0 .5.2-.2-.5-.6-.6-.9-.2h.4zm-.3-1c.1-.4.3-.8-.1-1.2-.1.4-.1.8.1 1.2zm-1.2 3.7c.2-.3.6-.5.9-.7-.5 0-1 .2-1.2.8.1 0 .2 0 .3-.1zM44.1 33.6c-.1.1-.1.3-.2.4.4.1 1.4-.5 1.1-1-.3-.7-1 0-.9.6zm-2.3-4c.5.1 1.1-.1 1.5-.5 0-.1-.2-.4-.2-.5-.6.1-1.9-.2-2.3.3.2 0 .3.1.5.1-.1 0-.2.1-.4.2.2.1.3.1.5.2-.1.1-.2.1-.2.2.2-.1.4-.1.6 0zm6.9 8.9c.1 1.7.3-1.3 0 0zm1.8.9c-.2 0-.4.1-.6 0 .1.3.4.5.7.6.1-.5 0-.5-.1-.6zm-26.4 7.9c-.1.1-.2-.1-.2.1.3.2.3.2.6.1-.1-.2-.2-.1-.4-.2zM70 51l-.2-.2c-.5 1.9 1.1 1.5.2.2zm-9 9.2c0-.2-.1-.4-.2-.6-.1.3-.3.5-.4.7-.1.8-.9.8-1.1 1.4-.2.4.1.7 0 1.1s-.3.6-.4 1c-.1 1.2.5 1.5 1.1.7.5-.7.9-2.6.9-3.5 0 .1.1.2.1.2.1-.3 0-.6 0-1zm13.3-12.1c-.9.8-1-2.4-2-2.6v.4c-.3-.1-.5 0-.9.1.1.9-1.3 1.5-1.5 2.2-.2.6-.2 2.1-.3 2.7-.1.1-.3.4-.5.5-1-1.2-1.5-3.8-1.8-5.4-.6.6-1.1-.6-1.6-1-.5-.5-.4-.4-1.1-.5-.5-.1-.9.1-1.3-.1s-.5-.6-.8-.7-.5.2-1 0c-.7-.3-.8-1.5-1.5-1.1.1.9.8 1.3 1 2.1 0-.2.1-.4.1-.5.1 1.3 1 .8 1.4-.1-.1.9.5.7.8 1.1.4.8.2.6-.1 1.2-.4 1-.6 1.2-1.5 1.7-.6.4-2 1.9-2.6 1.1-.3-.4-.1-.9-.2-1.3-.2-.5-.7-1-.9-1.4-.4-.8-1.8-3-1.6-3.7 0 .3-.2.5-.2.7-.2-.3-.4-.5-.5-.9.1.8.6 1.5.9 2.2s.4 1.4.7 2.1 2 2.5 1.7 3c.5.9 1.8.2 2.4-.1.1 3.4-3.7 4.9-3.4 7.8.1 1.4.7 2.7-.3 3.9-.7.8-1 .7-1.1 1.7 0 .5.2.8-.1 1.3-.1.2-.6.3-.7.5 0 .1 0 .5-.1.7-.2.5-.5 1.1-.9 1.5a3.06 3.06 0 0 1-1.4 1c-.2.1-1.4.4-1.5.4-.6-.2-.2-.7-.3-1.2-.2-.8-.6-1.4-.8-2.2-.2-.9-.2-1.6-.5-2.5-.3-.8-.5-1.3-.2-2.2.3-1.4.5-2.2.1-3.5-.3-1-.9-1.5-.9-2.5 0-.8.3-1.3-.2-1.9-.9.6-1.1-.8-2.2-.5-.7.2-1.9.8-2.6.6-1.5-.3-2.2-3.1-2.8-4.2.8-.8.2-2.2.4-3 .1-.4.4-1.2.6-1.5.4-.6.9-.7 1.2-1.3.5-.8.3-1.3 1-2 .8-.9.3-.3 1.4-.5.9-.1 2.7-1.4 3.4-.6.1 0 .2-.1.2-.1-.2.8-.3 1.2.3 1.7.5.4 1.7 1.1 2.2.8.1 0 0-.6.5-.7.2-.1.7.4.9.5.5.2 1.7-.1 1.9.3.9.2 1-1.5 1-2.3-.6 0-1.4.3-1.9.1-1.2-.5-.9-1.5 0-1.9.4-.2 1.1-.3 1.6-.3.4 0 1 .7 1.4.3.6-.6-.9-1.3-1.3-1.6.3-.4.2-.2.2-.5.1-.1.2-.1.4-.2-.4-.1-1.6.5-.6.6-.4.4-.8.5-1.1.1.1-.1.2-.1.3-.2-1-.9-1.9 1.4-1 1.8a3.04 3.04 0 0 0-.7.5c-.2-.4-.3-.3-.7-.2l.2.2c-.3-.1-.2.1-.4-.1 0 .5.2.7.4 1.1-.1 0-.2-.1-.3-.1.1.2.1.2-.1.2 0 .1.1.2.1.4-1 0-1-1.6-1.3-2.1s-1.4-1.3-1.6-1.2c-.1-.2 0-.2 0-.3-1.3 0 1.2 2 1.3 2.3-.7-.5-.1.3-.7.8.3-1-.8-1.3-1.3-1.8-.6-.6-.2-.5-.9-.6-.5-.1-1.1.5-1.3.7-.8.6-.7 1.7-1.5 2.2s-1.1-.4-1.8-.1c-.1-.5-.2-2.3.1-2.6.4-.5 1.5.4 1.9-.1.7-.8-.5-1.5-.8-2 .3 0 .5-.1.8 0 0-.1-.1-.3-.1-.4.5.3.9-.3 1.2-.6s.8-.7 1-.9c.1-.2.3.2.4-.1 0 0-.1-.3-.1-.4.2-.4-.2-.8.5-1 0 .1.1.4.1.5-1.1.9 1.1.8 1.5.7.6-.1.7.1 1.1-.3.2-.2-.2-1.4.7-.6v-.5c-.2-.1-.1-.1-.3-.3.5-.2.9 0 1.3-.3-.6-.4-1.5.5-1.9-.3-.4-.7.2-1.2.8-1.5-.5-.8-.9.1-1.2.5-.7.9-.3.8-.4 1.8 0 .2-.6 1.4-.9 1.3-.4-.1-.7-1.2-1-1.4-.3-.1-1.5.8-1.2-.8.1-.6 1.1-1 1.6-1.5 1-1.1 2.6-2.5 4.1-1.6-.1 0-.2.1-.3.1.4.2 2.3.3 2.6.9.4 1-1.2.3-1.6.4.5.3.5.9 1.1 1-.1-.1-.1-.2-.2-.3h.9c-.1-.1-.1-.2-.2-.3.3-.3.6-.4.9-.2 0-.3-.1-.6-.3-.9.4 0 .6.1.8.3h-.3c.4.6 1.1-.3 1.9-.4l-.2.2c.5 0 1.2-.1 1.6-.3-.1-.1-.2-.1-.3-.2.6-.2 1.5.2 2.1.5 0-.1.1-.1.1-.2-.7-.3-1.2-1.5-.2-1.4.5 0 1.4 1.7 1 2.2.4 0 .5-.1.6-.5-.4-.4-.6-.8-1-1.2.1-.1.2-.1.3-.2-.1-.1-.1-.2-.2-.2l.6.6c-.1-.1-.1-.2-.2-.2.4-.2.8-.2 1.2 0-.3-.2-.3-.4-.5-.6.4-.1.9-.1 1.3-.1-.1-.1-.2-.1-.3-.2.6-.7 1.8-.5 2.7-.6.1-.4.5-.5.9-.3.2-.4.1-.4 0-.4.7.2 1.8-.1 2.3.6-.2.1-.5.3-.7.4 1.1.1 2.1.5 3.2.4-.1-.1-.1-.2-.2-.2 1.1 0 1.5.7 2.5 1 0-.1-.1-.2-.1-.4.6.2 1.2.1 1.8.1-.1-.1-.3-.2-.4-.3.5-.3 1.7-.1 2.3.1.7.2 1.4.2 2.1.4 1.1.2 2.5.9 3.6.7-.2-.1-.3-.2-.5-.4 1.8.3 2.5.3 3.9 1.8-.2 0-.2.1-.5.1.4.2.9.4 1.2.8-.6-.2-1.3.2-1.3.9-.5-.4-1.1 0-1.6 0 0 .9.6.7 1 1.4h-.2c.1.2.2.3.3.5-.1.1-.2.1-.3.2.1.1.1.3.2.4-.1 0-.2.1-.3.1.2.4 0 .4 0 .7-.7-.7-1.6-1.6-1.8-2.6.5-.2 1-1.7.2-1.7.2 1-.4.2-.7.3-.4.2-1.1.3-.3.9-.6.3-1.3-.1-2 0-1.2.1-1.2.4-1.8 1.7 1.2.2 2.2.4 2.5 2.1.1.6.1 1.6-.2 2.1-.4.5-.6.3-.9.6l-.4.9c.1.5.3.4.6.9 1.1 1.9-.9 1.2-.5.3-.2-.2-.7-.8-.7-.8-.4-.2-.5-.6-1.1 0 .4-1.3-.9-.4-.9 0 0 .9 1.3.4 1.6.8-1.4.4.5 2.1.6 2.8.2 1.5-.7 2.5-1.6 3.1-.3.2-.4.3-.8.4-.1 0 .1.4-.1.4-.1 0-.2-.3-.2-.3-.1 0-1-.5-1 .7 0 .8 1.1 1.3 1.3 2.1.2 1.1-.4 1.4-1 2.1 0-.5-.9-1.6-1.4-1.6v-.3h-.3c0 .6-.1 1.2 0 1.7.1.4.5.7.7 1.1.4.8.5 1.3.8 2.1-1.2-.2-1.1-2-1.8-2.8v.2c.1-.5 0-3.8-.7-3.4zm-20.7 3.3l-.2-.2c.1.1.1.2.2.2zm7.6-11.7c-.1-.7-.4-.9-.5-1.5.3.1.3 0 .5 0-.2-.4-.5-.6-.5-.1-.1-.7-.6-.8-.9-1.4h.3c.2-.4-.1-.3.4-.3.1-1-1-.7-1.3-.2-.5.8.2 1.8.8 2.3-.9.6.4 1.9 1.2 1.2zM50.4 24.2c.4.2 1 .2 1.5-.1-.6-.2-1.4-.2-2-.1.2.2.3.2.5.2zm.6.8c.1 0 .3-.1.4-.1-.3-.1-.5-.1-.8-.1.1.3.1-.1 0 .2.2-.1.3-.1.4 0zm-1.9-.2c.1 0 .2.1.3.1-.1 0-.1.1-.2.1.7.5.8-.4 1.5-.5-.9-.3-1.4-.2-2.2-.2.2.2.4.4.6.5zm-22 22.5c.1.1 0 .4.4.1-.1-.1-.2-.1-.4-.1zm28.5-23.2c.3.1.6 0 .9-.1h-1.3c.3 0 .5.2.4.1zm2.1 2.8c.4.2.9.4 1.4.3-2-.4 1.3-1.7 1.6-1.9-.7-.3-1.8.1-2.5.5-.1.2 0 .1-.3.4h.2c-.4.2-.4.4-.4.7zm7.4-2.5c.5.1 1 .2 1.5.2-.4-.6-1.5-.9-2.1-.4.2-.1.3.1.6.2zm10.6 1.4c.3-.1.7-.1 1.1-.1-.3-.5-1.3-.5-1.8-.4.2.4.4.5.7.5zm-8.1-1.2c-.5-.2-.9-.4-1 .2.4 0 .9 0 1-.2zm9 1.5c-.2.1-.2 0-.3.2.3.1.6.1.8.1a.55.55 0 0 0-.5-.3zM5 29.1zM7.7 27c-.2-.1-.3-.2-.6.1.2 0 .4-.1.6-.1zm74.6 6.9c.6.5.9 1.6 1.4 2.3v-.3c.1.1.2.2.3.2-.3-.4-.7-.7-.7-1.2.2 0 .3.1.5.1-.6-.6-1.2-1.8-1.8-2 .1.3.2.4.3.9zM5.5 28.8s.3.1.5.1c.1.8 1.1-.1 1.7-.2-.2-.5-.7-.4-1-.2.1-.1.2-.1.2-.2-.5-1.3-1.3.2-1.9.8.2-.2.7-.7.5-.3zm72.1-3c.2 0 .3.1.5-.1-.3-.1-.7-.1-1.1-.1.2.1.3.1.6.2zm8.2 1.3c-.1-.1-.2-.2-.3-.2l-.1.1c.2.1.3 0 .4.1zM28.5 50.6s.1.3.2-.2c-.1-.1-.2.2-.2.2zM7.1 29.7c-.3-.1-.4-.2-.7 0 .2.1.4 0 .7 0zm2.1 1.9c-.3.1-.5.1-.5.5.2-.1.5-.2.7-.3-.1-.3-.1-.1-.2-.2zm-2.8-.8c.2 0 .3.3.4 0-.1-.1-.3 0-.4 0z"><animateTransform attributeName="transform" type="translate" repeatCount="indefinite" dur="2s" keyTimes="0;1" values="-100 0;0 0"/></path><path transform="scale(2)" fill="#dbfb54" d="M64.4 74.4c.3.3.2.3-.3.3 0-.4.1-.2.3-.3zm-33 1c-.2.1-.3-.2-.5.1.3.2.6.1.8-.1-.1-.2-.1 0-.3 0zm53.5-38.5c-.3.2-.8-.1-1.1-.5.1.2.1.6.3.9-.5.2-.2.6.2.7v-.4c.2.1.4.2.5.3.2-.2.2-.3.4-.5-.1-.2-.2-.4-.3-.5zm.2 3.7c0-.6-.1-2.1-.6-2.4-.6-.4.5 2.1-.6 1.6 0 .2-.1.5 0 .7-.8-.3-.9.5-1.4.9.3.3.4.6.6.9.3-.4.2-.9-.3-1.2.2 0 .4-.2.6-.2s.6.2.6.2c.2-.1.5-.4 1.1-.5zm-1.4.4c-.4-.1-.7.2-.3.6.2-.4 0-.1.3-.2.1-.2-.1-.3 0-.4zm9.8 21.8c.1.5.3.9.7.8-.1-.3-.4-.6-.7-.8zm-.5 8.4c-.1-.1-2.5 1.6-2.9 2.1.8.5 2.9-1.2 3.1-2.1-.2.3-.3 0-.2 0zm2-1.3c-.4.2-.6 0-.5-.4 0 .1-.1.2-.1.3.1-.5.1-.8-.1-1.1-.3.7.1 1.4-.7 2 .3.3.3.4-.1.7.1 0 .1.1.1.2.3-.3 1.4-1.4 1.4-1.7zM82 50.6c.2-.2.3-.2.3-.5-.1 0-.3-.1-.4-.1 0 .2 0 .4.1.6zm.4 0c-.3-.4-.2.1-.1.5.2-.3.3-.5.2-.9 0 .2-.1.3-.1.4zm.4-.9h-.3c0 .1.2.4.2.5h-.2c.1.2.1.3.2.5.1-.2.1-.2 0-.5.1 0 .2.1.2.1.1-.2 0-.4-.1-.6zM81 51c.2-.3.3-.4.2-.8-.1.5-.4.8-.6 1.2.2-.1.3-.3.4-.4zm.2-2.4c.1.2.1.5.3.3 0 .4.3.6.6.6 0 0 0-.1.1-.1a.78.78 0 0 0 .4.4c0-.7-.6-.5-.8-1-.2-.4.2-.9 0-1.4-.5-.1-.6.3-.4 1l-.1-.1c-.2 0-.2.1-.1.3zm2.1 3.6c.1-.5.1-1.1-.3-1.4v.3c-.4.2-.9.1-.9.8.7-.7.4.2 1 .5 0-.2.1-.5.1-.7 0 .3.1.4.1.5zm-1.8-2.6c.1-.1.3-.1-.2-.3.1.1.2.2.2.3zm10.3 7.8c.1.1 0 .2.2.1-.1-.2-.2-.5-.3-.7-.1.2 0 .3.1.6zm-1.6-.1c.4-.1 1.1-.5.6-.9-.1.4-.2.6-.4.3-.1 0-.5.2-.5.3 0 .2.1.2.3.3zm.7-1.2c.1.2.2.3.2.5.1-.5-.2-.8-.6-.8a1.38 1.38 0 0 1 .4.3zm-.6 2.9c-.2-.4-.7-.7-1-1.6h.3c-.7-.7-1.4-1.7-2.5-1.8-.5-.1-1 .5-1.3.3-.5-.2-.1-1.4-1.2-.8.3.4.6.5.9.6-.2 0-.3.1-.5.1.1.2.2.4.3.5.1 0 .2-.2.2-.2.6.5 2 1 1 2 .6-.3.7.4 1.2.3.4-.1.4-.5.6-.5.9 0 1.2 1 2 1.1zm2.9-.5c-.1.1-.2-.2-.2.1.3.2.2 0 .2-.1zm-.8-.8s-.1-.2-.2-.3c0 .2.1.2.2.3zm.5.3l.2.2c-.2-.2-.3-.3-.5-.4.1 0 .2.1.3.2zm.6 1.1c.1-.2.1-.3 0 0zm0-.4c0-.2 0-.4-.2-.6 0 .2.1.4.2.6zM81 45.9c.1-.5.2-1-.1-1.3a.94.94 0 0 0 .1 1.3zM94.8 61s.1-.2 0-.4c-.1.2 0 .5 0 .4zm0 .2c.1.1 0 .3.2.1-.1-.2-.2-.1-.2-.1zM29.5 76.3c-.4-.8-.5-.2-.7-.2.2 0-.3.2-.3.2-.2 0-.6-.3-.9-.4.9.9 1.9 1.2 2.6.7-.2 0-.4-.2-.7-.3zm60.1-11.9c0-.2-.2-.3-.1-.7-.2 0-.1-.1-.3 0 .1-.8-.5-1.1-.7-1.7-.1-.5 0-1-.2-1.6l-.2.2c0-.5-.1-1.1-.2-1.6-.5.9-.5 3.8-1.7 2.2-.3-.5-.4-.2-.4-.8 0-.3.4-.5.4-.7 0-.1-1.1-.4-1.4-.5.3.3-.7.7-.8 1.5-.5-.2-.7-.4-1.1-.2-.4.1-.7.9-.7 1.1l-.1.1c0-.1 0-.2-.1-.3-.4.8-.6 1.1-1.3 1.4-.6.3-1.1.4-1.6 1v-.3c-.3.6-.5 1.1-.3 1.8-.1-.1-.1-.2-.2-.3v.4c0-.1-.1-.1-.1-.2.1 1 .1 1.7 0 2.7 0 .4-.6.5 0 .9.4.2.7-.3 1-.4l2.3-.7c1.4-.5 1.7-.2 2.1 1.1.2-.3.5-.6.8-.8-.1.4-.3.7-.6 1 .2-.1.3-.2.5-.4-.1.2-.1.3-.2.5.5.2.5 2.1 1.5.9 0 .1-.1.1-.1.2 1.1 1.1 5-4.1 3.8-5.8zm-3.7 6.9c-.4-.2-1 .2-.7.8.2.6.9-.4 1.1-.9-.1 0-.2 0-.4.1zm-61.3-27c0-.2.2-.3-.1-.5 0 .2.1.4.1.5zm-.4.6c.1.1.1.2.1.4.1-.2.1-.3 0-.6-.2-.1 0 .1-.1.2zm.2-1c-.2 0-.3-.1-.3.2.2 0 .3-.2.3-.2zm11.8 13c-1-.3-1.6-1.5-2.7-1.1 0-.7-.8-.9-1.2-.6 0-.4-.4-.5-.5-.8-.1-.1-.1-.7-.2-1-.3-.7-.6-.8-1.2-1.1s-.6-.2-1.1-.8a4.74 4.74 0 0 0-1-1c.1 0 .2-.1.3-.1-.9-.2-1.7.6-2.3-.6-.4.3-.4.8-.6 1.2v-.9c.4-.6-.1-.2-.5.1-.3.2-.7.9-1 1l-1.6-.3c-.8-.7.1-1.4-.1-2.2s-1.1-.3-1.6-.5c.2-.3.3-.7.3-1.1.1 0 .1 0 .1.1.2-1.2.5-1.7-.7-.8-.6.5-1.3 1.5-1.8 0-.3-.8 0-2.4.4-3.1.7-1.1 1.6-.5 2.3-.6-.1-.7 1.4-.4 1.6-.3.2.3.2 2.8.8 1.6.5-1-.4-1.7.5-2.7.6-.7 2-1.1 1.3-2.2.1 0 .1 0 .2.1 0-.2 0-.3.1-.4 0 .4 0 .4-.1.8.3-.4.3-.4.3-.9.1.1.1.1.1.2.2-.3.4-.5.4-.7 0 0 .4-.1.6-.1h-.5c.4-.2.8-.2 1.1-.4h-.2c-.1-.9 1.4-1.5 1.9-1.4-.5.2-.4.3-.6.7.5-.1 1.4-.5 1.9-.9 0-.1-.1-.3-.1-.4-.6 1.2-1.7-.1-.8-.7-.7-.6-1.3.5-2 .8.5-.5 1.1-1.2 1.7-1.3.8-.2 1.5.2 2.2-.4 1.2-.9.1-1.1-.6-1.9.2-.5-.1-.9-.2-1.5-.5.5-1.8 1-1.1-.3-.5 0-.6-.4-1.2-.4-1 0-.4.7-1.2 1.3.6.8-.3 1.4-.9 1.5.6 1.6-1.5 1.4-.5-.2-.8 0-1.4-1-2.2-.7 0-.6.1-.4-.3-.7.5-1.3 2.5-2.2 3.5-2.7.3-.1 1.4-.2 1.3-.9-.2-1-1.3.4-1.7.6.1-.2 0-.2.1-.5-.2 0-.2-.2-.6 0 .1-.1.1-.2.2-.3-.1 0-.2 0-.4-.1.7-.6-.4-1-.8-.1.5.5-.1.7-.5 1 .1-.1.1-.2.2-.3-.5-.2-1 .1-1.6 0-.4-.1-.7-.4-1.2-.1l.1.1c-.4.1-1.1.1-1.7 0 .1-.1.3-.1.4-.2-.6-.3-1.5-.7-2.1-.3.1-.1.1-.2.2-.3-.4.3-.9 0-1.4 0-.6.1-1.2.4-1.8.4s-2.5-.4-2.7-.6c-1.3-.2-2.7.3-4 .8.3.2.3.4.4.8h-.5l.2-.2c-.4 0-.9.2-1.3.3.2.7.9.5 1.4.3-.3.5-.9.4-1.5.6-.5.2-1.4 1.3-.4 1.1-.1.1-.1.3-.3.5.2-.1.3-.1.5-.1 0 .1 0 .1-.1.2.1 0 .1-.1.2-.1v.2c.2-.1.4-.1.6-.2-1 .9-2.2 1-3.2 1.7 2.1-.4 3.5-1.8 5.4-2.6-.3.1-.7.4-.8.8.8-.2 1.2-.4 1.9-.4.8.1 1.3.9 2.1.8-.1.6-.1 1.8.3 2.2-.6.8 1.3 1 .4 2-.2-1.2-.9 1-1.2 1.6-.4.8-.5 2-.2 2.8.2.4 1.7 3 .9 3.3.6.7.6 1.2 1 2 .6-.7-1.1-2.5-.6-3.6.4.2.8 1.8 1 2.3l.8 1.6c.1.7-.2.6.2 1.3.2.4.9.7 1.3.9.5.3 1 .1 1.3.2.8.3 1.4 1.1 2.1 1.3H21c.4.5.5.9.7 1.3.1-.1.1-.1.1-.2.4.6.9 1.2 1.4 1-.1-.8.3-.4.5-.1.3.5.3 1.3.2 1.7-.2.7-1.6 1.6-.9 2.5 0-.1.1-.1.1-.2 0 .6-.4.8-.3 1.5.1.3.7 1.2.9 1.6.3.7.5 1.6 1 2.1.5.6 1.3.7 1.6 1.4s.2 2 .2 2.8c0 1 .2 1.8.2 2.7.1 1.2-.5 3.5.3 4.4v-.5c.3.3.2.4.3.9-.1 0-.2-.1-.3-.1 0 .5 0 .6-.1 1 .1 0 .3.1.4.1-.8 1.1.7 2.6 1.6 2.7-.1-.5.1-.6.6-.6-.6-.4-.2-.6-.2-1 0-.2.3-.7.3-.7 0-.2-.3-.5-.3-.4 0-.1-.3-.3-.3-.6 0-.2.4-.2.4-.2.1-.5-.2-.7.3-1 0-.1-.1-.1-.1-.2-.8 0 0-.5 0-.4.1-.3.5-.3.1-.9 1.8.4 1.2-1.1.8-2 1 .9 1.4 0 1.9-1 .6-1.3.3-2.4 1.5-3.2.7-.5.7-.1 1.1-1 .3-.8.3-1.4.4-2.2 0-.8 1.2-2.2.8-3.6zm-12-30.7c-.2 0-.3-.1-.5 0 .2.4.2.1.5 0zm-1.8-.9c-.2.1-.4.2-.5.3.4.1.8 0 1.2 0-.2 0-.4.2-.6.2.5 0 1.7 0 2-.5h-.4c0-.1 0-.2.1-.3-.4.1-.3-.1-.4.4-.5.1-1-.2-1.4-.1zm1.8 2c-.5-.1-.6-1.9-1.2-.5 0-.6-.7-.4-1.2-.3l.2-.2c-.5-.1-1.1.2-1.5.5.2 0 .4.1.7.1-.2 0-.4.1-.6.1.3.2.8.1 1.2.2-.4 0-.8.1-1.2.1.6.8 3 .6 3.6 0zm-.2-2.4c0-.3-.3-.1-.7 0 .3.1.5 0 .7 0zm-2.4.5c.4-.1.9-.1 1.2-.5-.6 0-1.2.2-1.8.5h.6zm10.8 9.4c-.1 0-.2.2-.3 0l.1-.1h-.4c.2-.2.3-.5.5-.7-.6.1-1.2 1.1-1.3 1.6.3 0 .7 0 1 .1l-.2.2c.1-.1.4-.2.5-.3 0 .1 0 .2-.1.4.4 0 .5-.3.4-.7-.1 0-.1 0-.2.1 0-.1.1-.2.1-.3.1-.2 0-.2-.1-.3zM14 35c.7.6.5-.1.2-.5-.5-.4-.7.1-.2.5zm5.6-7.9c.8-.1 1.5-.7 2.3-.8-.9-.9-1.9 0-2.6.5.2 0 .2.2.3.3zm8.1 2.3c-.8-.6-.7-.5-1.6.2.1 0 .4.2.3.2.6-.4 1.2-.1 1.3-.4zm-14.4 3.7c-.2.2-.3.4 0 .7.1-.2.2-.5.3-.7h-.3zm14.2-3c.1 0 .1.3.2-.1-.1 0-.1.1-.2.1zm2.3 5.9c-.1 0 0-.3-.2-.1.3.2.2.2.6.1-.1.1-.3.1-.4 0zm-3.1-6c.2 0 .3.1.6-.2-.3 0-.4.1-.6.2zm3.8 5c-.2-.2-.3-.3-.6-.3.2.2.4.2.6.3zM27 25.3c0 .2.1.2 0 .5.7.2 2.2.4 2.7-.2-.7-.3-1.4.1-2.1-.2l.1-.1c-.4-.2-.8-.3-1.3-.1.3.1.4.1.6.1zm-.2-.4h.5c-.1-.1-.4 0-.5 0zm.7-.5h.4c-.1.1-.2.1-.3.2.6.4 1.2 0 1.8-.2-.5-.6-1.3-.6-2-.2-.1.2 0 0 .1.2zm-1.2 1.4c.2 0 .3.1.5-.1-.2-.1-.7-.3-.5.1zm.7-1c-.1-.2-.1-.3-.5 0 .3.1.3-.1.5 0zm2.7 1.6h.5c-.2-.3-.6-.4-.9-.2.1.3.1.2.4.2zm-2.8-.4c-.5-.1-.9.1-1 .7.5-.1 1-.3 1.4-.6-.2 0-.3-.1-.4-.1zm4.6 1.3c-.4-.3-.7-.5-1.2-.4-.2-.6-.9-.4-1.3-.2.3-.8-.6-.5-1-.2 0-.1 0-.1-.1-.2.1-.1.2-.1.3-.2-.6 0-1.1.2-1.4.8h.3c0 .1-.1.1-.2.2.6.3 2.7.1 2.5.6.8.1.7.4.2.9-.3.3-.9.1-1.3.6.5.2.9-.2 1.4.3l-.1.1c.4.3.8.5 1.2.5-.1-.2-.2-.5-.4-.7 1.4 1.5.5-.9.4-.7.3-.6.9.8 1.6-.4-.5-.1-.8-.5-1.3-.6.2-.1.3-.1.5-.2 0 0-.1-.1-.1-.2zm-5.8-2.6c.2.1.4.1.6.1-.1-.4-.5-.5-.9-.3.1 0 .1 0 .2.1-.1 0-.2.1-.3.1h.4zM29 24c.5.1.9.1 1.4.1-.3.1-.7.1-1 .1.1.2 0 .1.2.3-.2.1-.5.2-.8.3a1.38 1.38 0 0 1 .4.3c-.4-.2-.8 0-1.1.3.7.1 1.9.3 2.5-.2h-.4c.4-.3 1-.4 1.2-.7h-.3c.9 0 1.8-.4 2.7-.6h-.4c.4-.1.9-.1 1.3-.3-1.6-.4-4.4-.4-5.9.3.1-.1.1 0 .2.1zm.5 4.2c-.2-.3-.3-.3-.5.2.3 0 .4-.1.5-.2zm-5.1-3.6c-.2 0-.4-.1-.6.1.2 0 .4-.1.6-.1zm.6 2.8c-.2 0-.4 0-.7.2.3.2.6.2.9.1 0-.3-.1-.2-.2-.3zm-.6-.9c.4.5.9.5 1.3 0-.1 0-.2-.1-.2-.1.2-.1.2-.1.3-.3-.4 0-.9-.1-.9.3-.2 0-.3.1-.5.1zm.9-.8c.4.2.9-.1.9-.5-.4 0-.8 0-1.1.4.4-.2.2.1.2.1zm52.8 21c-.7.3-.2.9 0 .7.3-.4.3-.6 0-.7zm-53.4.1c.2 0 .3 0 .4-.2-.8-.5-2-1.9-3-.7l.9-.3-.1.1c.6.3 1 .3 1.4.8-.1.1-.1.2-.2.2.2 0 .4.1.6.1zm31-6.3c-.1.1-.2.1-.4.1.4.2.3.1.6-.2 0 0-.1 0-.2.1zm-6.2-7.7c.1-.4.2-.6-.3-.4 0 .3.1.3.3.4zm-.6 5.3c0-.3.1-.4 0-.7-.3.3-.1.4 0 .7zm-3.8-5.5c.1-.1.1-.3.2-.1 0 .1.4.4.4.6 0 .4-.6-.1-.3.6-.1 0-.2.1-.3.1.1 0 .3.2.5.2-.2.1-.4.3-.6.5.7 0 1.9 0 1.9-1-.6-.2-.6-1-1.2-1.2.2-.2.2-.5.3-.6h-.5c.1-.1.2-.3.3-.4-.8-.1-.9.7-.7 1.3zm8.2 7.9c-.2 0-.2.1-.4-.1v.2c.3.1.5.2.8 0-.2-.1-.2-.1-.4-.1zM41.5 27.3h-.9c0-.1.2-.4.2-.4.3.3.4.3.8.3-.2-.3-.2-.4-.6-.6h.5c-.1-.1 0-.2-.2-.4.3 0 .5-.1.7-.2 0 0 0 0-.1 0h.5c-.1-.1-.2-.2-.2-.3.3-.2.3-.2-.1-.5.2 0 .5-.1.7-.1-.3-.4-.2-.7.3-.9h-.5c.5 0 1-.2 1.6-.3-.6-.3-1.5-.1-2.1 0 .1-.1.2-.1.2-.2-.6-.1-1.3-.1-1.9-.1.7 0 1.5.1 2.2-.1-1.4-.2-3.8-.7-5 .1.1 0 .3.1.4.1-1.6-.3-3.3-.2-4.8.4.2 0 .3.1.5.1-.6.3-1.4.1-1.9.5.4.1.8.2 1.2.2-.3 0-.7 0-1 .1.2.2 4.1.7 2.5 1.7.3.1.5.2.8.4-.9-.5-1 .9 0 .2-.6 1-1.2.7-.8 2.1.2.7.5.9.9 1.1.7.4.6.2 1.1-.4.1-.1.4-.9.6-1.1.4-.3.8-.2 1.1-.4 1.1-.4 2.2-.7 3.3-1.3zM25.3 47.4c.3.1.4-.1.6.3.2-.4.6-.3.9-.4-.3-.4-.9-.7-1.4-.4.2.2.1.2.3.4-.2 0-.3.1-.6 0-.1.3 0 .1.2.1zm55.5 10.9c.1 0 .2-.1.3-.1-.1-.2-.4-.2-.6.2.1 0 .2-.1.3-.1zm1.7-1.7l-.5-1.1c.2-.1.3-.3.5-.3V55c-.4.2-1.4.1-.8-.4.5-.4 1.2.5 1.3-.5-.4.6-.9 0-1.3.2-.3.2-.5 1.1-.5 1.5 0 0 .3 1.2.2 1.2.4.2.2-.9.4-1.2 0 .4.1.6.2.9.1-.1.2-.1.3-.2-.1.3 0 .3 0 .5.2-.1.1-.2.2-.4zm-4-1.3c.1.8 1.5 1.1 1.9 1.1.1-.7.3-1.8.9-2-.6-.8-.4-1.3 0-1.8-.4-.2-.5-.6-.8-.5s-.6.9-.8 1.1c-.6.7-1.8.8-1.2 2.1zm7.3 1.8c-.1.1-.2 0-.2.5.2-.2.1-.4.2-.5zM83.6 56h-.3c.3.5.2.1.3 0zm-2 2.9c-.1-.2-.1-.4-.5-.3.2.2.3.2.5.3zm.7-.7c-.1-.2-.5-.1-.8.1.2.1.5 0 .8-.1zm-3.6-.2c.5.1 1 .2 1.5.1-.6-.3-2.6-1.5-3-.6.5.2 1 .3 1.5.5zm-1.3-1.5c.3-1-2-4.1-3.1-3.9.4.9 1 1.6 1.5 2.5.2.3 1.7 3.2 1.6 1.4zm6.8-.4c.2.1.3 0 .5.2-.2-.5-.6-.6-.9-.2h.4zm-.3-1c.1-.4.3-.8-.1-1.2-.1.4-.1.8.1 1.2zm-1.2 3.7c.2-.3.6-.5.9-.7-.5 0-1 .2-1.2.8.1 0 .2 0 .3-.1zM44.1 33.6c-.1.1-.1.3-.2.4.4.1 1.4-.5 1.1-1-.3-.7-1 0-.9.6zm-2.3-4c.5.1 1.1-.1 1.5-.5 0-.1-.2-.4-.2-.5-.6.1-1.9-.2-2.3.3.2 0 .3.1.5.1-.1 0-.2.1-.4.2.2.1.3.1.5.2-.1.1-.2.1-.2.2.2-.1.4-.1.6 0zm6.9 8.9c.1 1.7.3-1.3 0 0zm1.8.9c-.2 0-.4.1-.6 0 .1.3.4.5.7.6.1-.5 0-.5-.1-.6zm-26.4 7.9c-.1.1-.2-.1-.2.1.3.2.3.2.6.1-.1-.2-.2-.1-.4-.2zM70 51l-.2-.2c-.5 1.9 1.1 1.5.2.2zm-9 9.2c0-.2-.1-.4-.2-.6-.1.3-.3.5-.4.7-.1.8-.9.8-1.1 1.4-.2.4.1.7 0 1.1s-.3.6-.4 1c-.1 1.2.5 1.5 1.1.7.5-.7.9-2.6.9-3.5 0 .1.1.2.1.2.1-.3 0-.6 0-1zm13.3-12.1c-.9.8-1-2.4-2-2.6v.4c-.3-.1-.5 0-.9.1.1.9-1.3 1.5-1.5 2.2-.2.6-.2 2.1-.3 2.7-.1.1-.3.4-.5.5-1-1.2-1.5-3.8-1.8-5.4-.6.6-1.1-.6-1.6-1-.5-.5-.4-.4-1.1-.5-.5-.1-.9.1-1.3-.1s-.5-.6-.8-.7-.5.2-1 0c-.7-.3-.8-1.5-1.5-1.1.1.9.8 1.3 1 2.1 0-.2.1-.4.1-.5.1 1.3 1 .8 1.4-.1-.1.9.5.7.8 1.1.4.8.2.6-.1 1.2-.4 1-.6 1.2-1.5 1.7-.6.4-2 1.9-2.6 1.1-.3-.4-.1-.9-.2-1.3-.2-.5-.7-1-.9-1.4-.4-.8-1.8-3-1.6-3.7 0 .3-.2.5-.2.7-.2-.3-.4-.5-.5-.9.1.8.6 1.5.9 2.2s.4 1.4.7 2.1 2 2.5 1.7 3c.5.9 1.8.2 2.4-.1.1 3.4-3.7 4.9-3.4 7.8.1 1.4.7 2.7-.3 3.9-.7.8-1 .7-1.1 1.7 0 .5.2.8-.1 1.3-.1.2-.6.3-.7.5 0 .1 0 .5-.1.7-.2.5-.5 1.1-.9 1.5a3.06 3.06 0 0 1-1.4 1c-.2.1-1.4.4-1.5.4-.6-.2-.2-.7-.3-1.2-.2-.8-.6-1.4-.8-2.2-.2-.9-.2-1.6-.5-2.5-.3-.8-.5-1.3-.2-2.2.3-1.4.5-2.2.1-3.5-.3-1-.9-1.5-.9-2.5 0-.8.3-1.3-.2-1.9-.9.6-1.1-.8-2.2-.5-.7.2-1.9.8-2.6.6-1.5-.3-2.2-3.1-2.8-4.2.8-.8.2-2.2.4-3 .1-.4.4-1.2.6-1.5.4-.6.9-.7 1.2-1.3.5-.8.3-1.3 1-2 .8-.9.3-.3 1.4-.5.9-.1 2.7-1.4 3.4-.6.1 0 .2-.1.2-.1-.2.8-.3 1.2.3 1.7.5.4 1.7 1.1 2.2.8.1 0 0-.6.5-.7.2-.1.7.4.9.5.5.2 1.7-.1 1.9.3.9.2 1-1.5 1-2.3-.6 0-1.4.3-1.9.1-1.2-.5-.9-1.5 0-1.9.4-.2 1.1-.3 1.6-.3.4 0 1 .7 1.4.3.6-.6-.9-1.3-1.3-1.6.3-.4.2-.2.2-.5.1-.1.2-.1.4-.2-.4-.1-1.6.5-.6.6-.4.4-.8.5-1.1.1.1-.1.2-.1.3-.2-1-.9-1.9 1.4-1 1.8a3.04 3.04 0 0 0-.7.5c-.2-.4-.3-.3-.7-.2l.2.2c-.3-.1-.2.1-.4-.1 0 .5.2.7.4 1.1-.1 0-.2-.1-.3-.1.1.2.1.2-.1.2 0 .1.1.2.1.4-1 0-1-1.6-1.3-2.1s-1.4-1.3-1.6-1.2c-.1-.2 0-.2 0-.3-1.3 0 1.2 2 1.3 2.3-.7-.5-.1.3-.7.8.3-1-.8-1.3-1.3-1.8-.6-.6-.2-.5-.9-.6-.5-.1-1.1.5-1.3.7-.8.6-.7 1.7-1.5 2.2s-1.1-.4-1.8-.1c-.1-.5-.2-2.3.1-2.6.4-.5 1.5.4 1.9-.1.7-.8-.5-1.5-.8-2 .3 0 .5-.1.8 0 0-.1-.1-.3-.1-.4.5.3.9-.3 1.2-.6s.8-.7 1-.9c.1-.2.3.2.4-.1 0 0-.1-.3-.1-.4.2-.4-.2-.8.5-1 0 .1.1.4.1.5-1.1.9 1.1.8 1.5.7.6-.1.7.1 1.1-.3.2-.2-.2-1.4.7-.6v-.5c-.2-.1-.1-.1-.3-.3.5-.2.9 0 1.3-.3-.6-.4-1.5.5-1.9-.3-.4-.7.2-1.2.8-1.5-.5-.8-.9.1-1.2.5-.7.9-.3.8-.4 1.8 0 .2-.6 1.4-.9 1.3-.4-.1-.7-1.2-1-1.4-.3-.1-1.5.8-1.2-.8.1-.6 1.1-1 1.6-1.5 1-1.1 2.6-2.5 4.1-1.6-.1 0-.2.1-.3.1.4.2 2.3.3 2.6.9.4 1-1.2.3-1.6.4.5.3.5.9 1.1 1-.1-.1-.1-.2-.2-.3h.9c-.1-.1-.1-.2-.2-.3.3-.3.6-.4.9-.2 0-.3-.1-.6-.3-.9.4 0 .6.1.8.3h-.3c.4.6 1.1-.3 1.9-.4l-.2.2c.5 0 1.2-.1 1.6-.3-.1-.1-.2-.1-.3-.2.6-.2 1.5.2 2.1.5 0-.1.1-.1.1-.2-.7-.3-1.2-1.5-.2-1.4.5 0 1.4 1.7 1 2.2.4 0 .5-.1.6-.5-.4-.4-.6-.8-1-1.2.1-.1.2-.1.3-.2-.1-.1-.1-.2-.2-.2l.6.6c-.1-.1-.1-.2-.2-.2.4-.2.8-.2 1.2 0-.3-.2-.3-.4-.5-.6.4-.1.9-.1 1.3-.1-.1-.1-.2-.1-.3-.2.6-.7 1.8-.5 2.7-.6.1-.4.5-.5.9-.3.2-.4.1-.4 0-.4.7.2 1.8-.1 2.3.6-.2.1-.5.3-.7.4 1.1.1 2.1.5 3.2.4-.1-.1-.1-.2-.2-.2 1.1 0 1.5.7 2.5 1 0-.1-.1-.2-.1-.4.6.2 1.2.1 1.8.1-.1-.1-.3-.2-.4-.3.5-.3 1.7-.1 2.3.1.7.2 1.4.2 2.1.4 1.1.2 2.5.9 3.6.7-.2-.1-.3-.2-.5-.4 1.8.3 2.5.3 3.9 1.8-.2 0-.2.1-.5.1.4.2.9.4 1.2.8-.6-.2-1.3.2-1.3.9-.5-.4-1.1 0-1.6 0 0 .9.6.7 1 1.4h-.2c.1.2.2.3.3.5-.1.1-.2.1-.3.2.1.1.1.3.2.4-.1 0-.2.1-.3.1.2.4 0 .4 0 .7-.7-.7-1.6-1.6-1.8-2.6.5-.2 1-1.7.2-1.7.2 1-.4.2-.7.3-.4.2-1.1.3-.3.9-.6.3-1.3-.1-2 0-1.2.1-1.2.4-1.8 1.7 1.2.2 2.2.4 2.5 2.1.1.6.1 1.6-.2 2.1-.4.5-.6.3-.9.6l-.4.9c.1.5.3.4.6.9 1.1 1.9-.9 1.2-.5.3-.2-.2-.7-.8-.7-.8-.4-.2-.5-.6-1.1 0 .4-1.3-.9-.4-.9 0 0 .9 1.3.4 1.6.8-1.4.4.5 2.1.6 2.8.2 1.5-.7 2.5-1.6 3.1-.3.2-.4.3-.8.4-.1 0 .1.4-.1.4-.1 0-.2-.3-.2-.3-.1 0-1-.5-1 .7 0 .8 1.1 1.3 1.3 2.1.2 1.1-.4 1.4-1 2.1 0-.5-.9-1.6-1.4-1.6v-.3h-.3c0 .6-.1 1.2 0 1.7.1.4.5.7.7 1.1.4.8.5 1.3.8 2.1-1.2-.2-1.1-2-1.8-2.8v.2c.1-.5 0-3.8-.7-3.4zm-20.7 3.3l-.2-.2c.1.1.1.2.2.2zm7.6-11.7c-.1-.7-.4-.9-.5-1.5.3.1.3 0 .5 0-.2-.4-.5-.6-.5-.1-.1-.7-.6-.8-.9-1.4h.3c.2-.4-.1-.3.4-.3.1-1-1-.7-1.3-.2-.5.8.2 1.8.8 2.3-.9.6.4 1.9 1.2 1.2zM50.4 24.2c.4.2 1 .2 1.5-.1-.6-.2-1.4-.2-2-.1.2.2.3.2.5.2zm.6.8c.1 0 .3-.1.4-.1-.3-.1-.5-.1-.8-.1.1.3.1-.1 0 .2.2-.1.3-.1.4 0zm-1.9-.2c.1 0 .2.1.3.1-.1 0-.1.1-.2.1.7.5.8-.4 1.5-.5-.9-.3-1.4-.2-2.2-.2.2.2.4.4.6.5zm-22 22.5c.1.1 0 .4.4.1-.1-.1-.2-.1-.4-.1zm28.5-23.2c.3.1.6 0 .9-.1h-1.3c.3 0 .5.2.4.1zm2.1 2.8c.4.2.9.4 1.4.3-2-.4 1.3-1.7 1.6-1.9-.7-.3-1.8.1-2.5.5-.1.2 0 .1-.3.4h.2c-.4.2-.4.4-.4.7zm7.4-2.5c.5.1 1 .2 1.5.2-.4-.6-1.5-.9-2.1-.4.2-.1.3.1.6.2zm10.6 1.4c.3-.1.7-.1 1.1-.1-.3-.5-1.3-.5-1.8-.4.2.4.4.5.7.5zm-8.1-1.2c-.5-.2-.9-.4-1 .2.4 0 .9 0 1-.2zm9 1.5c-.2.1-.2 0-.3.2.3.1.6.1.8.1a.55.55 0 0 0-.5-.3zM5 29.1zM7.7 27c-.2-.1-.3-.2-.6.1.2 0 .4-.1.6-.1zm74.6 6.9c.6.5.9 1.6 1.4 2.3v-.3c.1.1.2.2.3.2-.3-.4-.7-.7-.7-1.2.2 0 .3.1.5.1-.6-.6-1.2-1.8-1.8-2 .1.3.2.4.3.9zM5.5 28.8s.3.1.5.1c.1.8 1.1-.1 1.7-.2-.2-.5-.7-.4-1-.2.1-.1.2-.1.2-.2-.5-1.3-1.3.2-1.9.8.2-.2.7-.7.5-.3zm72.1-3c.2 0 .3.1.5-.1-.3-.1-.7-.1-1.1-.1.2.1.3.1.6.2zm8.2 1.3c-.1-.1-.2-.2-.3-.2l-.1.1c.2.1.3 0 .4.1zM28.5 50.6s.1.3.2-.2c-.1-.1-.2.2-.2.2zM7.1 29.7c-.3-.1-.4-.2-.7 0 .2.1.4 0 .7 0zm2.1 1.9c-.3.1-.5.1-.5.5.2-.1.5-.2.7-.3-.1-.3-.1-.1-.2-.2zm-2.8-.8c.2 0 .3.3.4 0-.1-.1-.3 0-.4 0z"><animateTransform attributeName="transform" type="translate" repeatCount="indefinite" dur="2s" keyTimes="0;1" values="0 0;100 0"/></path></g></svg>