<svg xmlns="http://www.w3.org/2000/svg" viewBox="0 0 512 512" xmlns:v="https://vecta.io/nano"><style><![CDATA[.B{fill:#ffe15a}.C{fill:#ffcd5a}.D{fill:#ff4b55}.E{fill:#ffbe5a}.F{fill:#ffaa5a}.G{fill:#73af00}]]></style><path d="M473.655 88.273H341.333v335.448h132.322c21.177 0 38.345-17.167 38.345-38.345V126.618c0-21.178-17.167-38.345-38.345-38.345z" class="D"/><path d="M170.67 88.277h170.67v335.45H170.67z" class="B"/><path d="M38.345 88.273C17.167 88.273 0 105.44 0 126.618v258.759c0 21.177 17.167 38.345 38.345 38.345h132.322V88.273H38.345z" fill="#41479b"/><path d="M291.673 312.915l-4.391 3.58-20.011-24.543 4.391-3.58z" class="C"/><path d="M282.648 297.397l-8.783 7.155-8.803-10.805 8.783-7.155z" class="E"/><path d="M242.795 288.374l4.391 3.58-20.011 24.543-4.391-3.58z" class="C"/><path d="M240.592 286.593l8.783 7.155-8.803 10.805-8.783-7.155z" class="E"/><path d="M250.14 297.584l-14.163 28.326 19.828 14.163v-39.657z" class="B"/><path d="M261.471 297.584l14.163 28.326-19.829 14.163v-39.657z" class="C"/><path d="M216.148 297.584v-73.65h8.498v56.653c0 8.497-8.498 16.997-8.498 16.997z" class="E"/><path d="M210.482 311.747v-87.814h8.498v70.817c-.001 8.498-8.498 16.997-8.498 16.997z" class="C"/><path d="M204.817 323.078v-99.144h8.498v82.148c0 8.497-8.498 16.996-8.498 16.996z" class="B"/><path d="M224.646 226.766v53.821c0 14.164 20.537 12.275 31.159 22.661 10.623-10.387 31.159-8.498 31.159-22.661v-53.821h-62.318 0z" class="D"/><path d="M224.646 257.926v22.662c0 14.164 20.537 12.275 31.159 22.661 10.623-10.387 31.159-8.498 31.159-22.662v-22.662l-62.318.001h0z" fill="#41479b"/><g class="B"><path d="M255.805 294.75l-8.498-5.665v-2.833l2.833-2.832v-16.997l-8.498-5.665 8.498-11.331h2.832l2.833 2.834 2.833-2.834h2.833l8.498 11.331-8.498 5.665v16.997l2.832 2.832v2.833z"/><path d="M244.474 229.599s-11.33 2.833-11.33 14.164 11.33 16.996 11.33 16.996l5.665-8.498c-16.996-5.666-5.665-22.662-5.665-22.662zm22.662 0s11.33 2.833 11.33 14.164-11.33 16.996-11.33 16.996l-5.665-8.498c16.995-5.666 5.665-22.662 5.665-22.662z"/><use href="#B"/><use href="#B" x="45.323"/><path d="M255.805 231.015l2.06 2.11 2.947-.036-.034 2.948 2.109 2.06-2.109 2.06.034 2.947-2.947-.035-2.06 2.11-2.059-2.11-2.949.035.036-2.947-2.109-2.06 2.109-2.06-.036-2.948 2.949.036zm-19.237 39.282l2.042 2.272 2.84-1.126c1.471-.583 2.851 1.016 2.059 2.386l-1.529 2.645 1.949 2.354c1.009 1.218-.086 3.026-1.633 2.696l-2.988-.638-1.636 2.581c-.847 1.336-2.904.853-3.069-.721l-.318-3.039-2.959-.758c-1.533-.393-1.709-2.498-.264-3.14l2.792-1.24-.193-3.049c-.097-1.582 1.85-2.4 2.907-1.223zm37.729 6.458c.625-3.222 3.283-5.503 6.382-5.847-.636-.342-1.312-.625-2.057-.769a7.32 7.32 0 0 0-8.577 5.791 7.32 7.32 0 0 0 5.791 8.577c.746.145 1.479.136 2.195.056-2.745-1.477-4.358-4.586-3.734-7.808zm-29.823-49.989l5.665-28.327-11.33-8.498 2.833-2.833h5.665s2.833-2.833 8.498-2.833 11.33 2.833 11.33 11.33 2.833 31.159 2.833 31.159h-25.494v.002z"/></g><path d="M224.646 215.435c-6.258 0-11.33 5.073-11.33 11.33h22.662c-.001-6.257-5.075-11.33-11.332-11.33z" class="F"/><path d="M221.813 226.766h-16.996v-18.855a6.64 6.64 0 0 1 6.639-6.639h3.718a6.64 6.64 0 0 1 6.639 6.639v18.855h0zm73.65 70.818v-73.65h-8.498v56.653c0 8.497 8.498 16.997 8.498 16.997z" class="E"/><path d="M301.128 311.747v-87.814h-8.498v70.817c0 8.498 8.498 16.997 8.498 16.997z" class="C"/><path d="M306.794 323.078v-99.144h-8.498v82.148c-.001 8.497 8.498 16.996 8.498 16.996z" class="B"/><path d="M286.965 215.435c6.258 0 11.33 5.073 11.33 11.33h-22.662c.001-6.257 5.074-11.33 11.332-11.33z" class="F"/><path d="M289.798 226.766h16.996v-18.855a6.64 6.64 0 0 0-6.639-6.639h-3.717a6.64 6.64 0 0 0-6.639 6.639l-.001 18.855h0z" class="E"/><path d="M318.97 256.821l3.629 2.21-39.668 65.142-3.629-2.21z" class="F"/><path d="M295.078 311.573l-7.075 8.851-6.921-5.533 7.075-8.851z" class="B"/><path d="M317.717 256.084l6.049 3.682-8.497 13.961-6.049-3.682z" class="C"/><g class="G"><path d="M194.253 260.052l39.985 61.851-2.379 1.538-39.985-61.851z"/><path d="M219.413 289.383c-1.016 1.152-1.69 2.899-1.86 4.913-1.397-1.41-3.001-2.308-4.495-2.549-.394 1.461-.234 3.293.479 5.145-1.907-.672-3.775-.775-5.242-.321.413 2.088 2.114 4.354 4.721 5.909s5.409 1.976 7.442 1.348l.582-.376c1.407-1.597 2.174-4.324 1.826-7.339s-1.72-5.496-3.453-6.73z"/></g><circle cx="220.75" cy="303.647" r="2.833" class="D"/><path d="M208.648 272.731c-1.016 1.152-1.69 2.899-1.86 4.913-1.397-1.41-3.001-2.308-4.495-2.549-.394 1.461-.234 3.293.479 5.145-1.907-.672-3.775-.775-5.242-.321.413 2.088 2.114 4.354 4.721 5.909s5.409 1.976 7.442 1.348l.582-.376c1.407-1.597 2.174-4.324 1.826-7.339s-1.719-5.497-3.453-6.73z" class="G"/><circle cx="209.99" cy="286.997" r="2.833" class="D"/><path d="M197.884 256.079c-1.016 1.152-1.69 2.899-1.86 4.913-1.397-1.41-3.001-2.308-4.495-2.549-.394 1.461-.234 3.293.479 5.145-1.907-.672-3.775-.775-5.242-.321.413 2.088 2.114 4.354 4.721 5.909s5.409 1.976 7.442 1.348l.582-.376c1.407-1.597 2.174-4.324 1.826-7.339s-1.72-5.497-3.453-6.73z" class="G"/><circle cx="199.22" cy="270.347" r="2.833" class="D"/><g class="B"><path d="M226.293 306.052l7.075 8.851-6.921 5.533-7.075-8.851zm12.517-127.435h2.833v19.829h-2.833z"/><path d="M235.97 181.447h8.498v2.833h-8.498z"/></g><path d="M238.809 189.941l8.498 6.374v-9.206h-5.665z" fill="#ff875a"/><path d="M241.642 178.61v2.833h2.833v2.833h-2.833v2.833h5.665s2.833-2.833 8.498-2.833 11.33 2.833 11.33 11.33 2.833 31.159 2.833 31.159h5.665c0-6.258 5.073-11.33 11.33-11.33.984 0 1.922.164 2.833.401v-6.066a8.5 8.5 0 0 1 8.498-8.498 8.5 8.5 0 0 1 8.498 8.498v14.164 2.833 50.026l3.658-6.009-1.209-.736 8.498-13.962 1.209.736h0l1.815 1.106 3.025 1.841-8.498 13.962-1.21-.736-7.288 11.974v38.113s-6.764-6.783-8.212-14.287c-1.035-1.33-2.227-3.026-3.276-4.952l-3.242 5.326 3.014 2.409-7.075 8.851-1.879-1.502-3.202 5.261-3.629-2.21 3.485-5.726-1.692-1.353 2.409-3.013-7.433-9.116-2.197 1.79-6.609-8.11c-1.759.707-3.498 1.484-5.171 2.372l13.547 27.095-19.829 14.164-19.829-14.164 13.547-27.095a46.6 46.6 0 0 0-3.055-1.492l-5.891 7.23-2.197-1.79-7.433 9.116 2.409 3.013-2.406 1.923 3.288 5.086-2.379 1.538-3.133-4.846-2.287 1.828-7.075-8.851 3.179-2.541-1.685-2.607-.119.002c-.926 0-1.833-.413-2.372-1.248a2.77 2.77 0 0 1-.409-1.135c-.533-.032-1.073-.108-1.635-.242-1.053 1.941-2.253 3.65-3.294 4.989-1.447 7.505-8.212 14.287-8.212 14.287v-36.135c-.856-.269-1.719-.611-2.568-1.118-2.606-1.556-4.308-3.822-4.721-5.909.596-.184 1.257-.276 1.961-.276 1.03 0 2.15.199 3.282.597-.369-.96-.584-1.91-.655-2.81l-2.786-4.31-.119.002c-.926 0-1.833-.413-2.372-1.248-.23-.355-.354-.743-.41-1.135-1.568-.094-3.286-.574-4.943-1.562-2.606-1.556-4.308-3.822-4.721-5.909.596-.184 1.258-.276 1.961-.276 1.03 0 2.15.198 3.282.597-.713-1.853-.873-3.684-.479-5.145 1.494.241 3.098 1.139 4.495 2.549.17-2.014.844-3.761 1.859-4.913 1.734 1.234 3.102 3.715 3.45 6.731.222 1.918-.046 3.681-.605 5.15.335.213.638.484.867.84.563.871.543 1.918.113 2.783l2.786 4.31c.108.06.214.132.322.199V226.77v-2.833-14.164a8.5 8.5 0 0 1 8.498-8.498 8.5 8.5 0 0 1 8.498 8.498v6.066c.91-.236 1.848-.401 2.833-.401 6.258 0 11.33 5.073 11.33 11.33h8.498l5.665-28.327-2.833-2.124-5.665-4.249v6.374h-2.833v-14.164h-2.833v-2.833h2.833v-2.833h2.844m45.467 128.741l1.046-1.309.557.445 4.566-7.501c-.398-1.387-.653-2.81-.653-4.237v-.498c-2.472-3.252-5.665-8.455-5.665-13.666 0 5.966-3.662 9.074-8.674 11.462l4.36 5.351-2.195 1.788 6.658 8.165m-62.345-.1l1.514-1.21 1.046 1.309 6.658-8.167-2.195-1.788 3.605-4.424c-6.051-2.527-10.752-5.623-10.752-12.387 0 3.793-1.693 7.578-3.567 10.616.89 1.306 1.561 2.976 1.785 4.91.222 1.918-.046 3.681-.605 5.15.335.213.638.484.867.84.563.871.543 1.917.113 2.783l1.531 2.368m16.873-130.767h-2.833c-1.173 0-2.124.951-2.124 2.124v.708h-.708c-1.173 0-2.124.951-2.124 2.124v2.833c0 1.173.951 2.124 2.124 2.124h.708v12.039c0 1.173.951 2.124 2.124 2.124h2.833c1.173 0 2.124-.951 2.124-2.124v-2.124l2.266 1.699 1.761 1.321-5.062 25.306h-4.799a13.48 13.48 0 0 0-13.288-11.33c-.235 0-.47.008-.708.022v-3.563a10.64 10.64 0 0 0-10.623-10.623 10.64 10.64 0 0 0-10.623 10.623v14.164 2.833 32.578c-.767-2.115-2.014-3.885-3.577-4.998-.372-.265-.803-.394-1.23-.394a2.12 2.12 0 0 0-1.594.719c-.654.743-1.192 1.647-1.593 2.667-.93-.504-1.887-.844-2.831-.996a2.06 2.06 0 0 0-.339-.028c-.945 0-1.795.632-2.049 1.571-.249.922-.332 1.934-.254 2.989-.167-.008-.333-.012-.498-.012-.92 0-1.791.125-2.588.371-1.039.321-1.668 1.375-1.458 2.442.55 2.776 2.686 5.514 5.716 7.321a13.39 13.39 0 0 0 4.457 1.685 4.5 4.5 0 0 0 .201.342c.697 1.079 1.791 1.821 3.042 2.098l1.548 2.395-.154-.001c-.92 0-1.791.125-2.588.371-1.039.321-1.668 1.375-1.458 2.442.55 2.776 2.686 5.514 5.716 7.321a12.48 12.48 0 0 0 1.532.776v34.648c0 .86.519 1.635 1.313 1.963a2.13 2.13 0 0 0 .811.161 2.12 2.12 0 0 0 1.505-.625c.289-.289 6.952-7.042 8.689-14.879a40.3 40.3 0 0 0 1.974-2.834c.684.79 1.609 1.335 2.643 1.565l.092.141-1.678 1.342c-.44.352-.723.864-.785 1.425s.1 1.122.452 1.562l7.075 8.851c.352.44.864.723 1.425.785.078.009.157.013.235.013a2.12 2.12 0 0 0 1.326-.465l.452-.361 1.857 2.873c.306.473.787.806 1.338.924.148.032.297.047.446.047a2.12 2.12 0 0 0 1.153-.341l1.374-.888-.311.623c-.468.935-.185 2.071.665 2.679l19.829 14.164a2.12 2.12 0 0 0 2.47 0l19.829-14.164c.851-.608 1.133-1.743.665-2.679l-12.597-25.195c.534-.252 1.091-.502 1.674-.753l5.609 6.883a2.12 2.12 0 0 0 1.649.782c.472 0 .947-.157 1.341-.478l.551-.448 5.006 6.141-1.338 1.674c-.352.44-.514 1.002-.452 1.562a2.13 2.13 0 0 0 .785 1.425l.232.185-2.514 4.129c-.61 1.002-.292 2.308.71 2.919l3.629 2.21c.335.204.718.31 1.106.31.168 0 .337-.02.502-.061.547-.134 1.02-.478 1.313-.96l1.947-3.199c.391.309.855.459 1.318.459.623 0 1.241-.274 1.661-.798l7.075-8.851a2.12 2.12 0 0 0 .452-1.09c2.308 6.903 7.838 12.507 8.1 12.769.406.407.951.625 1.505.625a2.13 2.13 0 0 0 .811-.161c.794-.329 1.313-1.103 1.313-1.963v-37.514l5.937-9.752a2.14 2.14 0 0 0 .435.045c.717 0 1.417-.363 1.817-1.021l8.498-13.962c.294-.481.383-1.059.249-1.607a2.13 2.13 0 0 0-.96-1.313l-3.025-1.841-1.814-1.105-1.212-.737a2.11 2.11 0 0 0-1.101-.309 2.12 2.12 0 0 0-1.816 1.021l-7.007 11.512v-39.725-2.833-14.164a10.64 10.64 0 0 0-10.623-10.623 10.64 10.64 0 0 0-10.623 10.623v3.563a12.01 12.01 0 0 0-.708-.022 13.48 13.48 0 0 0-13.288 11.33h-1.827c-.67-5.577-2.59-22.173-2.59-29.035 0-9.92-6.951-13.455-13.455-13.455-4.817 0-7.925 1.836-9.258 2.833h-.07a2.13 2.13 0 0 0 .121-.708v-2.833c0-1.173-.951-2.124-2.124-2.124h-.708v-.708a2.13 2.13 0 0 0-2.129-2.121h0zM223.55 291.199c.544-.957 1.018-1.901 1.426-2.831 1.771 2.377 4.319 4.067 7.031 5.405l-1.86 2.283c-.356.437-.524.997-.467 1.558a2.12 2.12 0 0 0 .771 1.431l.546.446-3.785 4.642c-.216-.106-.451-.174-.695-.202a2.07 2.07 0 0 0-.235-.013c-.212 0-.42.032-.621.093a4.82 4.82 0 0 0-.751-3.062 4.62 4.62 0 0 0-.23-.324c.378-1.519.48-3.138.294-4.756-.192-1.661-.679-3.251-1.424-4.67h0zm58.029 1.523c1.871-1.091 3.688-2.473 5.066-4.33 1.085 2.477 2.511 4.73 3.861 6.569.017 1.183.179 2.401.491 3.694l-3.225 5.299c-.186.034-.37.094-.543.179l-3.785-4.642.546-.446c.437-.356.714-.871.771-1.431s-.11-1.121-.467-1.558l-2.715-3.334h0zm-41.003 13.956c.617 0 1.228-.267 1.649-.782l3.583-4.396-9.697 19.394a1.97 1.97 0 0 0-.086-.145l-2.244-3.473.905-.724c.44-.352.723-.864.785-1.425a2.12 2.12 0 0 0-.452-1.561l-1.338-1.674 5.006-6.141.551.448c.391.324.866.479 1.338.479h0zm54.274 1.993l.462-.76c.406.598.836 1.194 1.288 1.788l.127.534c-.094-.116-.202-.223-.323-.32l-1.554-1.242h0z" class="F"/><defs ><path id="B" d="M227.478 257.926l5.665 2.832 5.666-2.832-5.666-2.833z"/></defs></svg>