<svg xmlns="http://www.w3.org/2000/svg" viewBox="0 0 512 512" xmlns:v="https://vecta.io/nano"><style><![CDATA[.B{fill:#41479b}.C{fill:#f5f5f5}.D{fill:#ffe15a}]]></style><path d="M473.655 88.276H38.345C17.167 88.276 0 105.443 0 126.621v73.471h512v-73.471c0-21.178-17.167-38.345-38.345-38.345zM0 385.379c0 21.177 17.167 38.345 38.345 38.345h435.31c21.177 0 38.345-17.167 38.345-38.345v-73.471H0v73.471z" class="B"/><path d="M0 200.09h512V311.9H0z" class="C"/><g fill="#50af69"><path d="M255.789 293.562c-21.295 0-38.621-17.325-38.621-38.621 0-9.097 3.224-17.931 9.08-24.877l1.687 1.422a36.43 36.43 0 0 0-8.561 23.455c0 20.077 16.335 36.414 36.414 36.414l.001 2.207h0z"/><path d="M241.662 282.159c-.482.823-.721 1.953-.825 3.1-.436-.314-.898-.606-1.4-.851 0 0-.759 2.674-.166 4.599 0 0-2.013.249-3.861 2.103 0 0 .637.451 1.73.919-1.835 1.432-2.401 2.848-2.401 2.848 10.83 5.415 16.02-2.138 16.246-2.478-2.653-7.568-9.323-10.24-9.323-10.24z"/><path d="M250.985 292.402l.022.055v-.087l-.022.032zm-19.325-17.461c-.707.518-1.321 1.383-1.83 2.312-.253-.424-.535-.839-.87-1.229 0 0-1.618 1.976-1.821 3.817 0 0-1.788-.525-4.023.361 0 0 .372.612 1.122 1.408-2.07.536-3.065 1.523-3.065 1.523 7.149 8.525 14.287 4.055 14.601 3.852.533-7.354-4.114-12.044-4.114-12.044z"/><path d="M235.775 286.984l-.002.054.032-.073-.03.019zm-10.32-21.48c-.772.162-1.598.647-2.359 1.22-.051-.442-.129-.887-.259-1.332 0 0-2.061 1.024-2.91 2.461 0 0-1.273-1.095-3.438-1.194 0 0 .078.641.401 1.572-1.899-.327-3.082.115-3.082.115 2.713 9.652 10.232 8.625 10.567 8.575 3.158-5.841 1.08-11.417 1.08-11.417z"/><path d="M224.372 276.921c-.008.014-.013.029-.022.044l.053-.049a.22.22 0 0 1-.031.005zm-1.373-22.172c-.733.047-1.587.367-2.403.774.056-.39.087-.786.073-1.187 0 0-2.09.639-3.183 1.782 0 0-.896-1.103-2.822-1.452 0 0-.076.566 0 1.412-1.634-.513-2.801-.274-2.801-.274.228 8.702 7.231 8.721 7.543 8.717 4.185-4.684 3.593-9.772 3.593-9.772z"/><path d="M219.405 264.523l-.03.035.058-.035c.001 0-.021-.001-.028 0zm4.407-18.681c-.627-.15-1.426-.103-2.216.028.148-.312.276-.637.367-.977 0 0-1.919-.004-3.132.672 0 0-.466-1.158-1.991-1.948 0 0-.211.455-.366 1.185-1.238-.853-2.279-.953-2.279-.953-2.06 7.358 3.809 9.186 4.072 9.263 4.726-2.849 5.545-7.27 5.545-7.27z"/><path d="M218.27 253.111l-.034.022.058-.014-.024-.008zm.898-18.101s-2.001 5.241 1.103 8.276c0 0 4.046-1.195 6.046-5.402l-1.702-.322-.874-2.621-2.897 1.288-1.676-1.219z"/><path d="M224.802 226.585s-3.135 4.652-.8 8.311c0 0 4.212-.248 7.113-3.893l-1.585-.698-.257-2.751-3.113.598-1.358-1.567zm31.409 66.977v-2.207c20.078 0 36.414-16.337 36.414-36.414 0-8.577-3.04-16.907-8.561-23.455l1.687-1.422a38.64 38.64 0 0 1 9.079 24.877c.001 21.296-17.324 38.621-38.619 38.621z"/><path d="M270.338 282.159c.482.823.721 1.953.825 3.1.436-.314.898-.606 1.4-.851 0 0 .759 2.674.165 4.599 0 0 2.013.249 3.861 2.103 0 0-.637.451-1.73.919 1.835 1.432 2.401 2.848 2.401 2.848-10.83 5.415-16.02-2.138-16.246-2.478 2.654-7.568 9.324-10.24 9.324-10.24z"/><path d="M261.015 292.402l-.022.055v-.087l.022.032zm19.324-17.461c.707.518 1.321 1.383 1.829 2.312.253-.424.535-.839.87-1.229 0 0 1.618 1.976 1.821 3.817 0 0 1.788-.525 4.023.361 0 0-.372.612-1.122 1.408 2.07.536 3.065 1.523 3.065 1.523-7.149 8.525-14.287 4.055-14.601 3.852-.532-7.354 4.115-12.044 4.115-12.044z"/><path d="M276.225 286.984l.002.054-.032-.073.03.019zm10.32-21.48c.772.162 1.598.647 2.359 1.22.051-.442.129-.887.259-1.332 0 0 2.061 1.024 2.91 2.461 0 0 1.274-1.095 3.438-1.194 0 0-.078.641-.401 1.572 1.899-.327 3.082.115 3.082.115-2.713 9.652-10.232 8.625-10.567 8.575-3.159-5.841-1.08-11.417-1.08-11.417z"/><path d="M287.628 276.921c.008.014.013.029.022.044l-.053-.049a.22.22 0 0 0 .031.005zm1.373-22.172c.733.047 1.586.367 2.403.774-.056-.39-.087-.786-.072-1.187 0 0 2.09.639 3.183 1.782 0 0 .896-1.103 2.822-1.452a7 7 0 0 0 0 1.412c1.634-.513 2.801-.274 2.801-.274-.228 8.702-7.231 8.721-7.543 8.717-4.186-4.684-3.594-9.772-3.594-9.772z"/><path d="M292.595 264.523l.03.035-.059-.035h.029zm-4.409-18.681c.627-.15 1.426-.103 2.217.028-.148-.312-.277-.637-.367-.977 0 0 1.919-.004 3.132.672 0 0 .466-1.158 1.991-1.948 0 0 .211.455.366 1.185 1.238-.853 2.279-.953 2.279-.953 2.06 7.358-3.809 9.186-4.072 9.263-4.725-2.849-5.546-7.27-5.546-7.27z"/><path d="M293.73 253.111l.034.022-.058-.014.024-.008zm-.898-18.101s2.001 5.241-1.103 8.276c0 0-4.046-1.195-6.046-5.402l1.702-.322.874-2.621 2.897 1.288 1.676-1.219z"/><path d="M287.198 226.585s3.135 4.652.8 8.311c0 0-4.212-.248-7.113-3.893l1.585-.698.257-2.751 3.113.598 1.358-1.567z"/></g><path d="M256 270.345l-3.412 5.118c-.583.874-.468 2.038.276 2.781L256 281.38l3.136-3.136c.743-.743.858-1.907.276-2.781L256 270.345z" class="B"/><path d="M257.453 275.463L256 270.345l-1.454 5.118c-.248.874-.199 2.038.117 2.781L256 281.38l1.336-3.136c.317-.744.366-1.907.117-2.781z" class="C"/><path d="M256 224.552v-13.793s-5.241 7.54-4.414 18.574m-19.092-4.734c-7.582 16.456.195 29.996 1.827 32.545.044.068 10.827-17.376 10.827-17.376l-12.654-15.169" class="B"/><path d="M240.477 247.314c-1.196-3.725-1.369-8.075.067-13.066l-4.692-5.624c-3.855 10.388-2.26 18.058 1.599 23.561l3.026-4.871z" class="C"/><path d="M244.967 240.687a1.1 1.1 0 0 1-.872-.427l-13.837-17.791a1.1 1.1 0 0 1 1.741-1.353l13.837 17.791a1.1 1.1 0 0 1-.193 1.547 1.09 1.09 0 0 1-.676.233z" class="D"/><path d="M222.897 241.698c-4.414 44.138 30.897 33.103 33.103 28.69l-22.069-11.034 4.414-8.828-15.448-8.828" class="B"/><path d="M233.567 246.777l-6.151-3.69c-1.384 26.228 12.622 30.596 22.953 29.294-8.375-1.124-16.743-7.308-16.802-25.604z" class="C"/><path d="M238.343 251.627c-.2 0-.402-.054-.584-.168l-17.654-11.032c-.516-.323-.673-1.004-.35-1.519a1.1 1.1 0 0 1 1.521-.351l17.654 11.032c.516.323.673 1.004.35 1.519-.21.336-.57.519-.937.519z" class="D"/><path d="M279.506 224.555c7.582 16.456-.195 29.996-1.827 32.545-.043.068-10.827-17.376-10.827-17.376l12.654-15.169" class="B"/><path d="M271.523 247.27c1.196-3.725 1.369-8.075-.067-13.066l4.692-5.624c3.855 10.388 2.26 18.059-1.599 23.562l-3.026-4.872z" class="C"/><path d="M267.033 240.644c-.236 0-.476-.075-.676-.233a1.1 1.1 0 0 1-.193-1.547l13.837-17.791c.375-.481 1.067-.567 1.548-.194a1.1 1.1 0 0 1 .193 1.547l-13.837 17.791a1.1 1.1 0 0 1-.872.427z" class="D"/><path d="M289.103 241.655c4.414 44.138-30.897 33.103-33.103 28.69l22.069-11.034-4.414-8.828 15.448-8.828" class="B"/><path d="M278.433 246.733l6.151-3.69c1.384 26.228-12.622 30.596-22.953 29.294 8.375-1.124 16.743-7.307 16.802-25.604z" class="C"/><path d="M273.657 251.584a1.1 1.1 0 0 1-.937-.52c-.323-.515-.165-1.196.35-1.519l17.654-11.032a1.1 1.1 0 0 1 1.521.351c.323.515.166 1.196-.35 1.519l-17.654 11.032a1.09 1.09 0 0 1-.584.169z" class="D"/><circle cx="256" cy="243.86" r="8.828" fill="#ffe6e6"/><circle cx="256" cy="243.86" r="4.414" class="C"/><path d="M256 258.207a1.1 1.1 0 0 1-1.103-1.103v-13.241a1.1 1.1 0 1 1 2.206 0v13.241a1.1 1.1 0 0 1-1.103 1.103z" class="D"/><path d="M286.161 270.161h-59.127l6.897-13.124h44.322z" fill="#5aa0e6"/><path d="M257.795 259.495h15.377l-4.783-4.783a2.05 2.05 0 0 0-.801-.495l-1.665-.555a2.05 2.05 0 0 0-1.785.239l-5.316 3.544-1.027 2.05z" fill="#ffb750"/><path d="M252.566 260.322h18.353l-5.709-5.709c-.268-.268-.596-.471-.957-.591l-1.987-.662c-.716-.238-1.503-.134-2.131.286l-6.346 4.231-1.223 2.445z" fill="#ffc455"/><path d="M246.183 261.241h22.163l-6.894-6.894a2.95 2.95 0 0 0-1.155-.714l-2.4-.8c-.865-.288-1.815-.161-2.573.344l-7.662 5.108-1.479 2.956z" fill="#ffcd55"/><path d="M239.865 262.069h25.376l-7.894-7.894a3.39 3.39 0 0 0-1.323-.818l-2.748-.916c-.991-.33-2.078-.184-2.947.395l-8.774 5.849-1.69 3.384z" fill="#ffd25a"/><path d="M229.517 263.724h33.103l-10.297-10.297c-.484-.484-1.075-.85-1.725-1.066l-3.584-1.195c-1.292-.43-2.711-.241-3.844.514l-11.446 7.63-2.207 4.414z" class="D"/><g fill="#ff4b55"><path d="M258.382 245.842h-4.771l1.098-4.607h1.658a1.16 1.16 0 0 1 1.129.892l.886 3.715z"/><path d="M258.108 246.582h-4.284c-.351 0-.634-.285-.634-.634v-.212c0-.351.285-.634.634-.634h4.284c.351 0 .634.284.634.634v.212c0 .349-.285.634-.634.634zm-2.832-3.25l-1.071-.271c-.323-.082-.463-.462-.27-.734l.775-1.092.566 2.097z"/></g><path d="M250.495 232.526l-.157 1.216c1.715-1.041 3.607-1.665 5.662-1.665s3.946.622 5.662 1.665l-.157-1.216c-1.706-.89-3.542-1.402-5.505-1.4s-3.798.509-5.505 1.4z" class="B"/><path d="M250.563 231.998l-.157 1.216c1.696-1.043 3.565-1.668 5.593-1.671s3.897.627 5.593 1.671l-.157-1.216c-1.687-.897-3.499-1.405-5.437-1.406s-3.748.511-5.435 1.406z" fill="#5aa0e6"/><path d="M250.626 231.509l-.157 1.216c1.679-1.046 3.527-1.676 5.53-1.675s3.851.629 5.53 1.675l-.157-1.216c-1.668-.896-3.459-1.411-5.374-1.411s-3.702.514-5.372 1.411z" fill="#9bc800"/><path d="M250.698 230.95l-.157 1.216c1.66-1.049 3.482-1.681 5.459-1.681s3.799.63 5.458 1.681l-.157-1.216c-1.649-.9-3.414-1.416-5.301-1.417s-3.652.517-5.302 1.417z" fill="#ffe14e"/><path d="M250.769 230.401l-.157 1.216c1.641-1.053 3.437-1.685 5.387-1.686s3.747.632 5.387 1.686l-.157-1.216c-1.629-.902-3.37-1.421-5.23-1.422s-3.601.518-5.23 1.422z" fill="#ffb14e"/><path d="M250.799 230.167l-.109.852c1.619-1.054 3.391-1.693 5.311-1.693s3.691.637 5.311 1.693l-.109-.852c-1.62-.904-3.351-1.423-5.201-1.425s-3.583.52-5.203 1.425z" fill="#ff4b55"/><g class="D"><path d="M286.897 271.448h-61.793c-.407 0-.781-.224-.973-.582s-.17-.796.055-1.133l30.897-46.345c.409-.612 1.427-.612 1.836 0l30.897 46.345c.225.339.247.774.055 1.133s-.567.582-.974.582zm-59.732-2.207h57.671L256 225.99l-28.835 43.251zM256 214.069a1.1 1.1 0 0 1-1.103-1.103v-4.414a1.103 1.103 0 1 1 2.206 0v4.414a1.1 1.1 0 0 1-1.103 1.103z"/><path d="M258.207 214.069h-4.414a1.1 1.1 0 1 1 0-2.206h4.414a1.1 1.1 0 1 1 0 2.206z"/></g><g class="B"><path d="M256 293.517c-.079 0-.161-.009-.239-.025-1.08-.242-4.684-1.106-5.747-2.159-1.35-1.341-1.357-3.528-.019-4.879.65-.653 1.514-1.015 2.435-1.017h.012c.917 0 1.779.355 2.43 1.002 1.063 1.056 1.955 4.651 2.202 5.728.085.369-.025.757-.292 1.026-.209.209-.491.324-.782.324zm-3.558-5.875c-.294.097-.647.131-.882.366-.481.484-.479 1.273.008 1.757.267.26 1.46.712 2.89 1.119-.418-1.425-.877-2.614-1.141-2.881l.777-.782-.778.782c-.234-.234-.544-.361-.874-.361z"/><path d="M256 293.517a1.1 1.1 0 0 1-.783-.326 1.11 1.11 0 0 1-.292-1.026c.248-1.078 1.14-4.672 2.202-5.728h0c.654-.649 1.433-.943 2.442-1.002a3.42 3.42 0 0 1 2.434 1.017c1.341 1.352 1.332 3.539-.017 4.877-1.064 1.056-4.668 1.92-5.748 2.162-.078.017-.159.026-.238.026zm1.906-6.297l.777.782c-.264.267-.723 1.457-1.141 2.881 1.43-.407 2.623-.857 2.891-1.121.484-.481.488-1.269.006-1.754-.233-.235-.544-.366-.876-.366h-.004a1.23 1.23 0 0 0-.874.36l-.779-.782zm0 0h.022-.022z"/><path d="M251.586 300.138a1.1 1.1 0 0 1-1.103-1.103c0-5.038 4.819-7.505 5.024-7.608a1.1 1.1 0 0 1 1.478.491c.274.543.055 1.205-.487 1.481-.039.02-3.807 1.976-3.807 5.635-.001.611-.495 1.104-1.105 1.104z"/><path d="M260.414 300.138a1.1 1.1 0 0 1-1.103-1.103c0-3.659-3.768-5.617-3.807-5.635-.542-.276-.76-.938-.487-1.481s.931-.765 1.478-.491c.205.104 5.024 2.569 5.024 7.608-.002.609-.495 1.102-1.105 1.102z"/></g></svg>