<svg xmlns="http://www.w3.org/2000/svg" viewBox="0 0 512 512" xmlns:v="https://vecta.io/nano"><path d="M473.655 88.276H38.345C17.167 88.276 0 105.443 0 126.621V385.38c0 21.177 17.167 38.345 38.345 38.345h435.31c21.177 0 38.345-17.167 38.345-38.345V126.621c0-21.178-17.167-38.345-38.345-38.345z" fill="#f5f5f5"/><path d="M2.109 114.08H509.89c-5.196-15.017-19.452-25.804-36.235-25.804H38.345c-16.784 0-31.039 10.787-36.236 25.804zM0 191.49h512v25.803H0zm0-51.61h512v25.803H0zm0 120.194a8.83 8.83 0 0 0 8.828 8.828H512v-25.804H0v16.976zm0 86.246h512v25.804H0zm509.891 51.6H2.109c5.197 15.017 19.453 25.804 36.236 25.804h435.31c16.784 0 31.039-10.787 36.236-25.804zM0 294.71h512v25.803H0z" fill="#ff4b55"/><path d="M8.828 268.902h220.69a8.83 8.83 0 0 0 8.828-8.828V97.103a8.83 8.83 0 0 0-8.828-8.828H38.345C17.167 88.276 0 105.443 0 126.621v133.453a8.83 8.83 0 0 0 8.828 8.828z" fill="#41479b"/><g fill="#f5f5f5"><path d="M24.789 108.537l1.954 5.86 6.177.047c.8.007 1.131 1.027.488 1.502l-4.969 3.669 1.864 5.889c.242.762-.627 1.394-1.278.928L24 122.841l-5.025 3.592c-.651.466-1.518-.166-1.278-.928l1.864-5.889-4.969-3.669c-.643-.476-.312-1.496.488-1.502l6.177-.047 1.954-5.86c.252-.76 1.324-.76 1.578-.001zm0 30.654l1.954 5.86 6.177.047c.8.007 1.131 1.026.488 1.502l-4.969 3.67 1.864 5.889c.242.762-.627 1.394-1.278.928L24 153.496l-5.025 3.592c-.651.465-1.518-.166-1.278-.928l1.864-5.889-4.969-3.67c-.643-.476-.312-1.495.488-1.502l6.177-.047 1.954-5.86c.252-.759 1.324-.759 1.578-.001zm0 30.655l1.954 5.86 6.177.047c.8.007 1.131 1.026.488 1.502l-4.969 3.67 1.864 5.889c.242.762-.627 1.394-1.278.928L24 184.151l-5.025 3.592c-.651.465-1.518-.165-1.278-.928l1.864-5.889-4.969-3.67c-.643-.476-.312-1.495.488-1.502l6.177-.047 1.954-5.86c.252-.76 1.324-.76 1.578-.001zm0 30.654l1.954 5.86 6.177.047c.8.007 1.131 1.027.488 1.502l-4.969 3.67 1.864 5.889c.242.762-.627 1.394-1.278.928L24 214.805l-5.025 3.592c-.651.465-1.518-.166-1.278-.928l1.864-5.889-4.969-3.67c-.643-.474-.312-1.495.488-1.502l6.177-.047 1.954-5.86c.252-.76 1.324-.76 1.578-.001zm0 30.654l1.954 5.86 6.177.047c.8.007 1.131 1.026.488 1.502l-4.969 3.67 1.864 5.889c.242.762-.627 1.394-1.278.928L24 245.459l-5.025 3.592c-.651.465-1.518-.166-1.278-.928l1.864-5.889-4.969-3.67c-.643-.476-.312-1.495.488-1.502l6.177-.047 1.954-5.86c.252-.759 1.324-.759 1.578-.001z"/><use href="#B"/><use href="#C"/><use href="#D"/><use href="#E"/><path d="M72.375 108.537l1.954 5.86 6.177.047c.8.007 1.131 1.027.488 1.502l-4.969 3.669 1.864 5.889c.242.762-.627 1.394-1.278.928l-5.025-3.592-5.025 3.592c-.651.466-1.518-.166-1.278-.928l1.864-5.889-4.969-3.669c-.643-.476-.312-1.496.488-1.502l6.177-.047 1.954-5.86c.252-.759 1.325-.759 1.578 0z"/><use href="#F"/><path d="M72.375 169.846l1.954 5.86 6.177.047c.8.007 1.131 1.026.488 1.502l-4.969 3.67 1.864 5.889c.242.762-.627 1.394-1.278.928l-5.025-3.592-5.025 3.592c-.651.465-1.518-.165-1.278-.928l1.864-5.889-4.969-3.67c-.643-.476-.312-1.495.488-1.502l6.177-.047 1.954-5.86c.252-.759 1.325-.759 1.578 0zm0 30.654l1.954 5.86 6.177.047c.8.007 1.131 1.027.488 1.502l-4.969 3.67 1.864 5.889c.242.762-.627 1.394-1.278.928l-5.025-3.592-5.025 3.592c-.651.465-1.518-.166-1.278-.928l1.864-5.889-4.969-3.67c-.643-.474-.312-1.495.488-1.502l6.177-.047 1.954-5.86c.252-.759 1.325-.759 1.578 0z"/><use href="#F" y="91.963"/><path d="M96.169 123.566l1.954 5.86 6.177.047c.8.007 1.131 1.027.488 1.502l-4.969 3.67 1.864 5.889c.242.762-.627 1.394-1.278.928l-5.025-3.592-5.025 3.592c-.651.465-1.518-.166-1.278-.928l1.864-5.889-4.969-3.67c-.643-.476-.312-1.495.488-1.502l6.177-.047 1.954-5.86c.251-.758 1.325-.758 1.578 0zm0 30.655l1.954 5.86 6.177.047c.8.007 1.131 1.027.488 1.502l-4.969 3.67 1.864 5.889c.242.762-.627 1.394-1.278.928l-5.025-3.592-5.025 3.592c-.651.465-1.518-.165-1.278-.928l1.864-5.889-4.969-3.67c-.643-.474-.312-1.495.488-1.502l6.177-.047 1.954-5.86c.251-.759 1.325-.759 1.578 0zm0 30.654l1.954 5.86 6.177.047c.8.007 1.131 1.026.488 1.502l-4.969 3.67 1.864 5.889c.242.762-.627 1.394-1.278.928l-5.025-3.592-5.025 3.592c-.651.465-1.518-.166-1.278-.928l1.864-5.889-4.969-3.67c-.643-.476-.312-1.495.488-1.502l6.177-.047 1.954-5.86c.251-.759 1.325-.759 1.578 0zm0 30.654l1.954 5.86 6.177.047c.8.007 1.131 1.026.488 1.502l-4.969 3.67 1.864 5.889c.242.762-.627 1.394-1.278.928l-5.025-3.592-5.025 3.592c-.651.466-1.518-.166-1.278-.928l1.864-5.889-4.969-3.67c-.643-.476-.312-1.495.488-1.502l6.177-.047 1.954-5.86c.251-.758 1.325-.758 1.578 0zm23.793-106.992l1.954 5.86 6.177.047c.8.007 1.131 1.027.488 1.502l-4.969 3.669 1.864 5.889c.242.762-.627 1.394-1.278.928l-5.026-3.591-5.025 3.592c-.651.466-1.518-.166-1.278-.928l1.864-5.889-4.969-3.669c-.643-.476-.312-1.496.488-1.502l6.177-.047 1.954-5.86c.253-.76 1.326-.76 1.579-.001z"/><use href="#G"/><path d="M119.962 169.846l1.954 5.86 6.177.047c.8.007 1.131 1.026.488 1.502l-4.969 3.67 1.864 5.889c.242.762-.627 1.394-1.278.928l-5.026-3.593-5.025 3.592c-.651.465-1.518-.166-1.278-.928l1.864-5.889-4.969-3.67c-.643-.476-.312-1.495.488-1.502l6.177-.047 1.954-5.86c.253-.758 1.326-.758 1.579.001zm0 30.654l1.954 5.86 6.177.047c.8.007 1.131 1.027.488 1.502l-4.969 3.67 1.864 5.889c.242.762-.627 1.394-1.278.928l-5.026-3.592-5.025 3.592c-.651.465-1.518-.166-1.278-.928l1.864-5.889-4.969-3.67c-.643-.474-.312-1.495.488-1.502l6.177-.047 1.954-5.86c.253-.759 1.326-.759 1.579 0z"/><use href="#G" y="91.963"/><path d="M143.755 123.566l1.954 5.86 6.177.047c.8.007 1.131 1.027.488 1.502l-4.969 3.67 1.864 5.889c.242.762-.627 1.394-1.278.928l-5.025-3.592-5.025 3.592c-.651.465-1.518-.166-1.278-.928l1.864-5.889-4.969-3.67c-.643-.476-.312-1.495.488-1.502l6.177-.047 1.954-5.86c.253-.758 1.325-.758 1.578 0zm0 30.655l1.954 5.86 6.177.047c.8.007 1.131 1.027.488 1.502l-4.969 3.67 1.864 5.889c.242.762-.627 1.394-1.278.928l-5.025-3.592-5.025 3.592c-.651.465-1.518-.165-1.278-.928l1.864-5.889-4.969-3.67c-.643-.474-.312-1.495.488-1.502l6.177-.047 1.954-5.86c.253-.759 1.325-.759 1.578 0zm0 30.654l1.954 5.86 6.177.047c.8.007 1.131 1.026.488 1.502l-4.969 3.67 1.864 5.889c.242.762-.627 1.394-1.278.928l-5.025-3.592-5.025 3.592c-.651.465-1.518-.166-1.278-.928l1.864-5.889-4.969-3.67c-.643-.476-.312-1.495.488-1.502l6.177-.047 1.954-5.86c.253-.759 1.325-.759 1.578 0zm0 30.654l1.954 5.86 6.177.047c.8.007 1.131 1.026.488 1.502l-4.969 3.67 1.864 5.889c.242.762-.627 1.394-1.278.928l-5.025-3.592-5.025 3.592c-.651.466-1.518-.166-1.278-.928l1.864-5.889-4.969-3.67c-.643-.476-.312-1.495.488-1.502l6.177-.047 1.954-5.86c.253-.758 1.325-.758 1.578 0zm23.794-106.992l1.954 5.86 6.177.047c.8.007 1.131 1.027.488 1.502l-4.969 3.669 1.864 5.889c.242.762-.627 1.394-1.278.928l-5.025-3.592-5.025 3.592c-.651.466-1.518-.166-1.278-.928l1.864-5.889-4.969-3.669c-.643-.476-.312-1.496.488-1.502l6.177-.047 1.954-5.86c.251-.759 1.325-.759 1.578 0z"/><use href="#H"/><path d="M167.549 169.846l1.954 5.86 6.177.047c.8.007 1.131 1.026.488 1.502l-4.969 3.67 1.864 5.889c.242.762-.627 1.394-1.278.928l-5.025-3.592-5.025 3.592c-.651.465-1.518-.165-1.278-.928l1.864-5.889-4.969-3.67c-.643-.476-.312-1.495.488-1.502l6.177-.047 1.954-5.86c.251-.759 1.325-.759 1.578 0zm0 30.654l1.954 5.86 6.177.047c.8.007 1.131 1.027.488 1.502l-4.969 3.67 1.864 5.889c.242.762-.627 1.394-1.278.928l-5.025-3.592-5.025 3.592c-.651.465-1.518-.166-1.278-.928l1.864-5.889-4.969-3.67c-.643-.474-.312-1.495.488-1.502l6.177-.047 1.954-5.86c.251-.759 1.325-.759 1.578 0z"/><use href="#H" y="91.963"/><use href="#B" x="142.76"/><use href="#C" x="142.76"/><use href="#D" x="142.76"/><use href="#E" x="142.76"/><path d="M215.136 108.537l1.954 5.86 6.177.047c.8.007 1.131 1.027.488 1.502l-4.969 3.669 1.864 5.889c.242.762-.627 1.394-1.278.928l-5.025-3.592-5.025 3.592c-.651.466-1.518-.166-1.278-.928l1.864-5.889-4.969-3.669c-.643-.476-.312-1.496.488-1.502l6.177-.047 1.954-5.86c.252-.759 1.324-.759 1.578 0z"/><use href="#I"/><path d="M215.136 169.846l1.954 5.86 6.177.047c.8.007 1.131 1.026.488 1.502l-4.969 3.67 1.864 5.889c.242.762-.627 1.394-1.278.928l-5.025-3.592-5.025 3.592c-.651.465-1.518-.165-1.278-.928l1.864-5.889-4.969-3.67c-.643-.476-.312-1.495.488-1.502l6.177-.047 1.954-5.86c.252-.759 1.324-.759 1.578 0zm0 30.654l1.954 5.86 6.177.047c.8.007 1.131 1.027.488 1.502l-4.969 3.67 1.864 5.889c.242.762-.627 1.394-1.278.928l-5.025-3.592-5.025 3.592c-.651.465-1.518-.166-1.278-.928l1.864-5.889-4.969-3.67c-.643-.474-.312-1.495.488-1.502l6.177-.047 1.954-5.86c.252-.759 1.324-.759 1.578 0z"/><use href="#I" y="91.963"/></g><defs ><path id="B" d="M48.582 123.566l1.954 5.86 6.177.047c.8.007 1.131 1.027.488 1.502l-4.969 3.67 1.864 5.889c.242.762-.627 1.394-1.278.928l-5.025-3.592-5.025 3.592c-.651.465-1.518-.166-1.278-.928l1.864-5.889-4.969-3.67c-.643-.476-.312-1.495.488-1.502l6.177-.047 1.954-5.86c.252-.758 1.325-.758 1.578 0z"/><path id="C" d="M48.582 154.221l1.954 5.86 6.177.047c.8.007 1.131 1.027.488 1.502l-4.969 3.67 1.864 5.889c.242.762-.627 1.394-1.278.928l-5.025-3.592-5.025 3.592c-.651.465-1.518-.165-1.278-.928l1.864-5.889-4.969-3.67c-.643-.474-.312-1.495.488-1.502l6.177-.047 1.954-5.86c.252-.759 1.325-.759 1.578 0z"/><path id="D" d="M48.582 184.875l1.954 5.86 6.177.047c.8.007 1.131 1.026.488 1.502l-4.969 3.67 1.864 5.889c.242.762-.627 1.394-1.278.928l-5.025-3.592-5.025 3.592c-.651.465-1.518-.166-1.278-.928l1.864-5.889-4.969-3.67c-.643-.476-.312-1.495.488-1.502l6.177-.047 1.954-5.86c.252-.759 1.325-.759 1.578 0z"/><path id="E" d="M48.582 215.529l1.954 5.86 6.177.047c.8.007 1.131 1.026.488 1.502l-4.969 3.67 1.864 5.889c.242.762-.627 1.394-1.278.928l-5.025-3.592-5.025 3.592c-.651.466-1.518-.166-1.278-.928l1.864-5.889-4.969-3.67c-.643-.476-.312-1.495.488-1.502l6.177-.047 1.954-5.86c.252-.758 1.325-.758 1.578 0z"/><path id="F" d="M72.375 139.191l1.954 5.86 6.177.047c.8.007 1.131 1.026.488 1.502l-4.969 3.67 1.864 5.889c.242.762-.627 1.394-1.278.928l-5.025-3.592-5.025 3.592c-.651.465-1.518-.166-1.278-.928l1.864-5.889-4.969-3.67c-.643-.476-.312-1.495.488-1.502l6.177-.047 1.954-5.86c.252-.758 1.325-.758 1.578 0z"/><path id="G" d="M119.962 139.191l1.954 5.86 6.177.047c.8.007 1.131 1.026.488 1.502l-4.969 3.67 1.864 5.889c.242.762-.627 1.394-1.278.928l-5.026-3.592-5.025 3.592c-.651.465-1.518-.166-1.278-.928l1.864-5.889-4.969-3.67c-.643-.476-.312-1.495.488-1.502l6.177-.047 1.954-5.86c.253-.758 1.326-.758 1.579 0z"/><path id="H" d="M167.549 139.191l1.954 5.86 6.177.047c.8.007 1.131 1.026.488 1.502l-4.969 3.67 1.864 5.889c.242.762-.627 1.394-1.278.928l-5.025-3.592-5.025 3.592c-.651.465-1.518-.166-1.278-.928l1.864-5.889-4.969-3.67c-.643-.476-.312-1.495.488-1.502l6.177-.047 1.954-5.86c.251-.758 1.325-.758 1.578 0z"/><path id="I" d="M215.136 139.191l1.954 5.86 6.177.047c.8.007 1.131 1.026.488 1.502l-4.969 3.67 1.864 5.889c.242.762-.627 1.394-1.278.928l-5.025-3.592-5.025 3.592c-.651.465-1.518-.166-1.278-.928l1.864-5.889-4.969-3.67c-.643-.476-.312-1.495.488-1.502l6.177-.047 1.954-5.86c.252-.758 1.324-.758 1.578 0z"/></defs></svg>